<svg xmlns="http://www.w3.org/2000/svg" fill="none" viewBox="0 0 275 283"><g opacity=".5"><g fill="#fff" clip-path="url(#a)"><path d="M239.951 243C228.933 243 220 251.933 220 262.951s8.933 19.95 19.951 19.95 19.95-8.932 19.95-19.95c0-11.018-8.932-19.951-19.95-19.951Zm18.653 19.951c0 10.301-8.351 18.653-18.653 18.653-10.303 0-18.654-8.352-18.654-18.653 0-10.302 8.352-18.654 18.654-18.654 10.301 0 18.653 8.352 18.653 18.654Z"/><path d="M249.62 254.486c.271.291.662.76.881 1.045l4.04-2.564a26.78 26.78 0 0 0-.764-.948l-2.558 1.692-.175.15.13-.19 1.13-2.255-.799-.799-2.256 1.13-.19.13.152-.174 1.692-2.558a25.328 25.328 0 0 0-.949-.767l-2.564 4.037c.325.249.753.617 1.027.866l2.414-1.252.154-.114-.113.155-1.252 2.416ZM240.453 249.371l1.104-2.473.07-.22-.02.229.116 3.305c.387.036.787.09 1.182.156l-.18-4.894c-.551-.061-1.1-.105-1.649-.128l-1.088 2.699-.038.201-.039-.201-1.086-2.699c-.549.023-1.098.067-1.649.128l-.18 4.894a17 17 0 0 1 1.181-.156l.116-3.305-.019-.229.07.22 1.104 2.473h1.005ZM231.525 253.271c.638-.672.999-1.449.361-2.19-.347-.403-.93-.491-1.413-.292l-.048.018.015-.042c.071-.191.117-.801-.402-1.222a1.205 1.205 0 0 0-.893-.249c-.6.061-1.061.471-2.316 1.87-.379.422-.93 1.089-1.261 1.52l3.448 3.271c1.142-1.265 1.608-1.735 2.509-2.684Zm-4.499-.8c.695-.85 1.433-1.62 1.767-1.925.106-.096.221-.193.36-.23.227-.062.46.098.513.331.053.233-.094.455-.257.638-.367.414-1.714 1.823-1.714 1.823l-.669-.637Zm1.351 1.281s1.311-1.387 1.739-1.83c.17-.176.279-.283.397-.34.151-.074.316-.09.464.009a.409.409 0 0 1 .176.432c-.043.198-.205.387-.339.531l-1.738 1.86-.699-.662Z"/><path d="M251.782 262.951h-11.831V251.12c6.538 0 11.831 5.292 11.831 11.831ZM239.951 262.951v11.831c-6.539 0-11.831-5.293-11.831-11.831h11.831Z"/><path fill-opacity=".2" d="M239.951 251.12v11.831H228.12c0-6.539 5.292-11.831 11.831-11.831ZM251.782 262.951c0 6.538-5.293 11.831-11.831 11.831v-11.831h11.831Z"/></g><path fill="#fff" d="M179.955 260.408c-.044-1.835-.966-3.59-2.545-4.412.609-.925 1.204-1.858 1.784-2.801.597 1.193 1.478 2.482 1.478 4.177a6.686 6.686 0 0 1-.717 3.036Zm-1.526 1.831a3.964 3.964 0 0 1-2.351.766c-1.188 0-2.199-.483-2.827-1.317 1.192-1.436 2.372-3.048 3.483-4.683 1.297.722 1.824 2.389 1.824 3.897 0 .467-.04.914-.129 1.337Zm-5.758-1.811a4.043 4.043 0 0 1-.097-.902c0-1.599 1.148-2.888 2.666-2.888.101 0 .201.003.294.011a70.21 70.21 0 0 1-2.864 3.778m-17.706 7.233c-.52 0-.757-.419-.757-1.185 0-2.477 2.223-7.671 5.791-10.723.394.646.572 1.468.575 2.326.015 4.093-3.769 9.582-5.609 9.582Zm-14.147 3.04c-.503 0-.757-.431-.757-1.165 0-3.199 5.485-13.663 8.244-13.663.519 0 .757.43.757 1.18 0 3.232-5.453 13.648-8.244 13.648Zm-7.997-10.931a9.965 9.965 0 0 0-2.162-1.763c1.876-3.822 3.958-7.433 6.564-10.185.886.906 1.365 2.142 1.365 3.622-.001 3.678-2.449 6.906-5.767 8.326Zm-10.382 17.768a7.076 7.076 0 0 1-1.977-.267c3.25-3.622 5.67-9.423 8.316-15.247 1.111.036 2.178-.099 3.125-.267.527 1.105.853 2.457.853 4.066.001 5.261-3.906 11.715-10.317 11.715Zm-4.329-1.563c-1.042-.97-1.558-2.222-1.546-3.264.009-.519.149-.997.375-1.412.334.727 1.147 1.277 2.134 1.277.37-.001.737-.074 1.079-.215-.668 1.352-1.341 2.573-2.042 3.614Zm7.003-17.298c0-.706.862-.83 1.78-.722-.33.61-.651 1.224-.962 1.843-.52-.319-.818-.714-.818-1.121Zm4.909.655c.365.3.699.637.995 1.005a9.14 9.14 0 0 1-1.555.191c.186-.399.371-.801.56-1.196Zm49.826-7.093c.62-.703 1.006-1.58 1.006-2.227 0-.438-.257-.718-.672-.718-.689 0-1.518.842-1.518 2.111 0 .179.023.355.056.53a120.715 120.715 0 0 1-2.444 3.662 4.672 4.672 0 0 0-.898-.087c-2.002 0-4.064 1.488-4.064 4.177 0 .729.129 1.372.351 1.926-1.715 1.935-3.222 3.188-4.241 3.188-.402 0-.644-.216-.644-.666 0-.483.238-1.249.709-2.314l5.884-12.913 6.354-.742.721-1.492-6.149.199 1.067-2.338-2.384.296-1.083 2.118-8.602.275-1.546 3.04 8.996-1.049-1.808 3.554c-.926-.411-2.046-.646-3.35-.646-1.969 0-3.798.483-5.445 1.301a5.639 5.639 0 0 0-2.444-.535c-2.079 0-4.43.99-6.343 2.725-.387-1.181-1.196-1.891-2.396-1.891-1.398 0-2.883.726-4.305 1.903-.85-.69-2.082-.89-3.374-.403.696-1.289 1.079-2.661 1.079-4.025 0-2.382-1.128-4.133-3.185-5.19a15.685 15.685 0 0 1 2.231-1.509c-.29-.227-.471-.366-.713-.498a20.313 20.313 0 0 0-2.904 1.448c-1.296-.411-2.842-.618-4.61-.618-8.211 0-15.979 4.695-15.979 10.496 0 2.561 1.461 3.474 2.907 3.474 1.349 0 2.67-.75 3.089-1.659-1.176-.239-1.873-1.249-1.873-2.529 0-4.516 5.525-8.47 11.195-8.47 1.269 0 2.368.236 3.27.666-3.443 2.625-6.085 6.2-8.267 10.022a6.14 6.14 0 0 0-.918-.072c-1.631 0-2.807.694-2.807 2.034 0 .91.6 1.692 1.514 2.258-1.345 2.781-2.529 5.565-3.66 8.099-.395-.77-1.289-1.273-2.328-1.273-2.497 0-4.373 2.178-4.373 4.871 0 1.759.721 3.439 1.961 4.783-1.172 1.296-2.453 2.067-3.951 2.102a2.627 2.627 0 0 1-1.389-.347c1.172-.127 2.134-.989 2.106-2.11-.029-1.121-.97-1.915-2.263-1.887-1.583.036-2.441 1.348-2.412 2.497.048 2.131 1.872 3.247 4.252 3.192 2.058-.048 3.826-.774 5.401-1.999 1.493.95 3.362 1.528 5.452 1.528 6.314 0 11.674-5.329 11.674-12.482 0-2.845-.741-5.095-1.844-6.818 2.05-.714 3.849-1.855 5.251-3.231 1.965-1.931 3.427-1.752 4.256-1.229-3.258 3.351-5.903 8.756-5.903 12.391 0 2.25.906 3.714 2.653 3.714 5.244 0 11.502-10.013 11.425-15.514 1.683-1.848 3.934-2.949 5.762-2.949.347 0 .661.04.947.116-4.096 2.868-6.649 7.775-6.649 11.549 0 2.003.991 3.518 2.924 3.518 3.608 0 8.307-5.565 8.307-11.118 0-1.703-.487-2.988-1.264-3.889 1.261-.742 2.646-1.193 4.131-1.193.862 0 1.764.2 2.574.551l-3.613 7.096c-.841 1.732-1.167 3.016-1.167 3.946 0 1.436.845 2.17 2.195 2.17 1.956 0 4.268-1.803 6.571-4.38.995 1.221 2.546 1.767 3.83 1.767.407 0 .825-.04 1.249-.116-.971 1.213-2.586 2.126-4.954 2.713l-31.357 7.767c-4.764 1.177-7.676 3.507-6.271 7.967 1.088-.886 3.045-1.752 8.103-3.28l28.466-8.597c4.164-1.26 6.806-4.216 7.933-7.201 1.942-.929 3.665-2.712 3.665-5.189 0-2.733-2.312-4.365-3.153-6.347Z"/><g clip-path="url(#b)" opacity=".5"><mask id="c" width="70" height="30" x="5" y="248" maskUnits="userSpaceOnUse" style="mask-type:luminance"><path fill="#fff" d="M5 248.425h70v29.15H5v-29.15Z"/></mask><g mask="url(#c)"><path fill="#fff" d="M50.169 262.545c-.483-.374-1.072-.695-1.66-.801.482-.161.963-.375 1.337-.696.483-.375.91-.802 1.179-1.283.267-.429.481-.91.695-1.605.161-.587.267-1.176.267-1.712 0-.534-.106-1.069-.267-1.604-.16-.535-.481-.963-.962-1.338-.43-.375-.91-.535-1.5-.535-.482 0-1.017.215-1.338.535-.428.375-.641.857-.641 1.338 0 .587.16 1.124.481 1.497.321.375.803.588 1.445.588.587 0 .91-.213 1.124-.374.107-.054.213-.16.267-.16.214 0 .268.268.268.375 0 .588-.268 1.069-.856 1.496-.588.322-1.124.589-1.767.75a9.409 9.409 0 0 1-1.177.267l-.642.161c-.374.106-.803.214-1.177.321-.321.106-.589.16-.91.266-.429.108-.856.215-1.231.429-.643.268-1.124.588-1.445.963-.375.427-.588.962-.588 1.605 0 .641.16.962.428.962.267 0 .481-.214.75-.481.533-.535 1.23-.803 2.032-.803.697 0 1.232.16 1.767.482.48.321.856.802 1.177 1.443.267.643.428 1.23.428 1.819 0 .535-.107 1.07-.268 1.765a8.113 8.113 0 0 1-.642 1.713c-.213.373-.535.962-.963 1.55-.321.481-.75.91-1.178 1.391-.374.427-.856.855-1.284 1.284-.428.427-.857.748-1.338 1.175-.427.375-1.016.642-1.284.642-.321 0-.803-.212-1.337-.641-.483-.375-.858-.75-1.339-1.176a24.85 24.85 0 0 1-1.178-1.232c-.16-.16-.267-.32-.428-.427-.318-.325-.621-.665-.909-1.016a11.15 11.15 0 0 1-1.018-1.55c-.32-.537-.535-1.072-.75-1.659-.32-.588-.373-1.176-.373-1.765 0-.643.107-1.23.375-1.819.267-.641.695-1.07 1.177-1.444.482-.321 1.07-.481 1.767-.481.535 0 .908.054 1.283.213.322.107.75.322 1.07.696.161.214.322.321.535.321.322 0 .537-.375.537-.856 0-.909-.59-1.658-1.178-2.246l-1.07-1.07c-.215-.16-.375-.375-.589-.588-.642-.642-1.017-1.124-1.285-1.659-.213-.427-.321-.855-.428-1.337a6.166 6.166 0 0 1-.16-1.39c0-.641.107-1.284.267-1.873.214-.587.481-1.175.803-1.603.374-.535.856-.91 1.337-1.23a3.366 3.366 0 0 1 1.766-.482c.537 0 1.232.053 1.82.267a3.047 3.047 0 0 1 1.445 1.123c.322.428.482 1.07.482 1.819 0 .803-.482 1.713-1.124 1.713-.428 0-.642-.697-.909-.964-.267-.321-.589-.535-1.231-.535-.589 0-.963.214-1.392.695-.32.375-.482.91-.482 1.551 0 .803.267 1.391.803 1.873.536.481 1.125.748 1.927.748.803 0 1.338-.107 1.819-.267.589-.268 1.125-.588 1.552-1.07.375-.375.697-.909.963-1.605.215-.588.375-1.176.375-1.765a5.324 5.324 0 0 0-.268-1.765 4.012 4.012 0 0 0-.962-1.498c-.375-.32-.857-.695-1.553-.962a6.494 6.494 0 0 0-1.711-.481 9.577 9.577 0 0 0-1.82-.16c-.641 0-1.23.106-1.819.212-.75.108-1.285.269-1.766.483-.589.267-1.125.535-1.605.908a4.886 4.886 0 0 0-1.285 1.284c-.375.481-.642 1.016-.856 1.659a5.983 5.983 0 0 0-.322 1.871c0 .643.108 1.284.322 1.925.213.535.535 1.07.962 1.659.429.535.91.962 1.393 1.337.427.32.91.642 1.391.909a6.586 6.586 0 0 0-1.445 0c-.642.054-1.178.214-1.659.375-.515.224-1 .511-1.445.855-.482.321-.856.75-1.177 1.178a5.571 5.571 0 0 0-.75 1.497c0 .481-.16 1.069-.16 1.711 0 .535.053 1.124.213 1.713.108.534.322 1.122.59 1.657.213.482.534.963.855 1.498.322.481.643.962 1.018 1.39.321.375.695.75 1.07 1.07.428.427 1.016.909 1.499 1.284.481.375 1.016.748 1.551 1.07.482.266.964.587 1.392.801.588.267 1.177.429 1.66.589a5.096 5.096 0 0 0 1.712.321c.587 0 1.123-.16 1.712-.321.535-.16 1.07-.375 1.605-.642.483-.213.963-.535 1.499-.856a15.76 15.76 0 0 0 1.391-.962c.429-.322.91-.695 1.338-1.07.428-.428.857-.909 1.231-1.39.321-.375.696-.803.962-1.232.323-.481.537-1.016.75-1.55.215-.482.43-1.016.59-1.605.16-.587.16-1.176.16-1.712 0-.695-.16-1.39-.428-2.031-.375-.75-.75-1.284-1.284-1.713h-.001Zm-25.046 12.89V250.19a.708.708 0 0 0-.697-.695h-2.3a.708.708 0 0 0-.696.695v10.59H8.746v-10.59a.708.708 0 0 0-.696-.695H5.696a.708.708 0 0 0-.696.695v25.245c0 .375.321.696.696.696h2.3a.709.709 0 0 0 .697-.696v-10.964h12.63v10.964c0 .375.32.696.696.696h2.3c.482.053.803-.267.803-.696Zm45.863-6.952c0 2.032-1.391 4.011-4.227 4.011H59.8v-8.023h6.957c2.783 0 4.228 1.925 4.228 4.012h.001Zm-1.07-11.608c0 1.925-1.177 3.744-3.8 3.744h-6.262v-7.434h6.262c2.569 0 3.8 1.818 3.8 3.69Zm1.284 5.401c1.766-1.23 2.73-3.637 2.73-5.562 0-4.279-3.05-7.22-7.546-7.22h-9.9a.591.591 0 0 0-.589.587v25.513c0 .322.267.589.587.589h10.17c5.566 0 8.402-3.209 8.402-7.702-.054-3.422-1.927-5.455-3.854-6.203v-.002Z"/></g></g><g fill="#fff" clip-path="url(#d)"><path d="M237.676 179.196h-3.277c-.79 0-1.395.198-2.02.916l-4.629 5.307v-6.223h-4.548v15.903c.001.24.097.469.267.638.17.169.401.265.641.266h3.636v-7.623l4.008 6.233c.598.931 1.191 1.39 2.554 1.39h3.734l-6.376-9.916 6.01-6.891ZM218.452 179.196h-10.12v15.302c0 .837.826 1.508 1.706 1.508h8.414a.917.917 0 0 0 .642-.266c.171-.17.267-.4.267-.639v-2.173h-5.805a.684.684 0 0 1-.682-.686v-3.535h5.174v-3.07h-5.174v-3.363h6.487v-2.166a.913.913 0 0 0-.909-.905M250.425 179.196h-10.121v15.302c0 .837.827 1.508 1.706 1.508h8.415a.91.91 0 0 0 .909-.905v-2.173h-5.806a.692.692 0 0 1-.681-.686v-3.535h5.175v-3.07h-5.175v-3.363h6.487v-2.166a.908.908 0 0 0-.909-.905M186.01 179.196h-4.548v15.903a.91.91 0 0 0 .91.904h3.635l.003-16.807ZM176.419 179.196h-10.124v15.302c0 .873.834 1.508 1.708 1.508h8.416a.917.917 0 0 0 .641-.267.906.906 0 0 0 .267-.638v-2.173h-5.809a.684.684 0 0 1-.681-.686v-3.535h5.174v-3.07h-5.171v-3.363h6.487v-2.166a.908.908 0 0 0-.908-.905M161.707 179.196h-4.548v6.444h-3.969v-6.444h-5.273v.661a1.195 1.195 0 0 1 .726 1.127V196h4.547v-7.291h3.975V196h4.547l-.005-16.804ZM203.741 179.196v15.903a.904.904 0 0 1-.267.638.914.914 0 0 1-.641.266h-2.789l-6.135-9.631c.084.597.127 1.199.127 1.801v7.83h-3.396v-16.807h2.205c1.125 0 1.943.462 2.531 1.384.501.781 5.139 8.043 5.139 8.043s-.167-.495-.167-1.821v-7.606h3.393ZM269 179.196v.661a1.229 1.229 0 0 0-.721 1.127v14.113a.9.9 0 0 1-.904.903h-2.785l-6.136-9.631c.084.597.127 1.199.127 1.802V196h-3.396v-16.804h2.205c1.123 0 1.943.462 2.531 1.384.501.781 5.138 8.043 5.138 8.043s-.166-.495-.166-1.821v-7.606H269Z"/><path d="M139.451 185.315a.28.28 0 0 1-.169.071.273.273 0 0 1-.177-.051.274.274 0 0 1-.092-.333c.124-.373 2.407-7.371 2.407-7.371l-6.3-4.555a.266.266 0 0 1-.119-.139.273.273 0 0 1 .107-.328.282.282 0 0 1 .179-.043h7.787s2.286-6.991 2.406-7.367a.278.278 0 0 1 .27-.22.271.271 0 0 1 .27.22l2.408 7.366h7.786a.277.277 0 0 1 .29.188.274.274 0 0 1-.124.322l-3.757 2.719h-4.446l-1.378-4.205-1.378 4.205h-4.437l3.598 2.604-1.378 4.205-3.753 2.712Z"/></g><mask id="e" width="110" height="40" x="0" y="157" maskUnits="userSpaceOnUse" style="mask-type:luminance"><path fill="#fff" d="M109.516 157H0v39.24h109.516V157Z"/></mask><g mask="url(#e)"><path fill="#fff" d="M30.273 186.637c-.064 0 0-.255 0-.509v-.7c0-.636-.318-.954-.954-.954h-.89c-.637 0-.955.318-.955.954v9.604c0 .636.318.954.954.954h1.018c.636 0 .954-.318.954-.954v-4.198c0-1.908.954-4.007 2.989-4.007 1.335 0 1.526 1.082 1.526 2.29v5.915c0 .636.318.954.954.954h1.018c.636 0 .954-.318.954-.954v-4.198c0-2.035 1.017-4.007 2.925-4.007 1.336 0 1.59 1.018 1.59 2.29v5.915c0 .636.318.954.954.954h.954c.636 0 .954-.318.954-.954v-6.424c0-3.052-1.399-4.388-3.752-4.388-1.78 0-3.307 1.145-3.943 2.353h-.064c-.445-1.59-1.653-2.353-3.37-2.353-1.845 0-3.244 1.272-3.816 2.417Zm-17.108 8.395v-14.119c0-.636-.318-.954-.954-.954h-1.018c-.636 0-.954.318-.954.954v5.724c-1.144.636-2.29.954-3.561.954-1.336 0-2.608-.382-3.816-1.081v-5.534c0-.636-.318-.954-.954-.954H.954c-.636 0-.954.318-.954.954v14.183c0 .636.318.954.954.954h1.018c.636 0 .954-.318.954-.954v-5.851c1.208.572 2.48.89 3.815.89a8.749 8.749 0 0 0 3.562-.763v5.724c0 .636.318.954.954.954h1.017c.573-.127.89-.445.89-1.081Zm10.62-4.77c0 2.162-1.59 3.625-3.434 3.625s-3.434-1.463-3.434-3.625c0-2.099 1.526-3.625 3.434-3.625 1.908 0 3.435 1.462 3.435 3.625Zm-3.434-6.042c-3.497 0-6.36 2.48-6.36 6.042 0 3.561 2.799 6.042 6.36 6.042 3.562 0 6.36-2.481 6.36-6.042 0-3.562-2.862-6.042-6.36-6.042Zm23.15-10.621c-1.654 2.099-4.325 3.307-7.186 3.307-2.862 0-5.533-1.272-7.187-3.307a1.025 1.025 0 0 1-.19-.572c0-.191.126-.382.254-.509a.723.723 0 0 1 .508-.191c.255 0 .445.127.573.318 1.399 1.717 3.625 2.735 5.978 2.735 2.353 0 4.579-1.018 5.978-2.735a.758.758 0 0 1 .572-.318c.191 0 .319.064.51.191.19.127.254.318.254.509.127.254.063.445-.064.572Zm4.58-5.151c0-.382-.192-.7-.446-.954l-10.43-10.112c-.19-.255-.572-.382-.89-.382-.382 0-.7.127-.954.382l-3.944 3.815v-.636c0-.699-.572-1.335-1.335-1.335h-1.463c-.7 0-1.335.572-1.335 1.335v4.643l-2.354 2.353a1.296 1.296 0 0 0-.381.954c0 .7.572 1.336 1.335 1.336h1.4v8.776c0 .7.572 1.336 1.335 1.336h15.455c.699 0 1.335-.572 1.335-1.336v-8.776h1.463c.636-.064 1.208-.636 1.208-1.399Zm.508 21.178c-.127-1.527.636-2.799 2.035-3.18 1.272-.318 2.417.318 2.926 1.844-.7-.063-1.527 0-2.48.255-1.018.19-1.845.572-2.481 1.081Zm8.459 4.134c.381-.382.381-.891 0-1.336l-.446-.318c-.445-.445-.636-.445-1.144-.063-.446.445-1.273 1.271-2.29 1.526-1.972.509-3.562-.318-4.261-2.226.954.127 2.29.064 3.816-.382 1.653-.445 2.798-1.017 3.37-1.717.255-.254.382-.636.318-.954-.826-3.052-3.18-4.833-6.36-4.006-3.37.89-5.024 3.943-4.07 7.377.827 3.18 3.88 5.215 7.569 4.197 1.717-.445 2.861-1.462 3.498-2.098Zm3.752-9.604c0-1.081.954-1.78 2.417-1.78 1.271 0 2.098.508 2.798.89.445.254.954.318 1.272-.318l.381-.763c.255-.509.191-.954-.318-1.272-.7-.509-2.226-1.208-4.133-1.208-3.053 0-5.406 1.844-5.406 4.642 0 5.024 7.504 4.388 7.504 7.441 0 1.081-.89 1.844-2.416 1.844-1.59 0-2.735-.826-3.244-1.144-.572-.318-.954-.318-1.336.191l-.445.635c-.445.636-.254 1.018.127 1.336.764.636 2.672 1.654 4.961 1.654 3.37 0 5.342-2.163 5.342-4.77 0-5.152-7.504-4.325-7.504-7.378Zm16.09 4.643c-.636-.254-1.526-.382-2.48-.318-1.018.064-1.908.254-2.608.572.191-1.526 1.209-2.607 2.671-2.671 1.336-.063 2.29.827 2.417 2.417Zm2.926.636c-.128-3.18-2.1-5.406-5.343-5.279-3.434.128-5.724 2.735-5.596 6.297.127 3.243 2.607 5.914 6.423 5.787 1.78-.064 3.116-.827 3.88-1.336.508-.318.572-.763.254-1.272l-.318-.445c-.318-.508-.572-.636-1.081-.318-.509.382-1.463.954-2.544 1.018-2.035.063-3.434-1.081-3.689-3.116.954.381 2.226.508 3.816.445 1.717-.064 2.926-.445 3.689-.891.318-.19.509-.508.509-.89Zm7.758-3.243v-.891c0-.636-.254-.954-.89-.954-1.653 0-2.925 1.527-3.37 2.926h-.064s.064-.382.064-.763v-1.082c0-.636-.318-.954-.954-.954h-.89c-.637 0-.955.318-.955.954v9.604c0 .636.318.954.954.954h1.018c.636 0 .954-.318.954-.954v-3.689c0-2.099 1.017-4.198 3.116-4.198.7 0 1.017-.318 1.017-.953Zm11.512-.636c.254-.636-.064-1.082-.763-1.082H97.24c-.572 0-.89.255-1.08.764l-2.163 6.359c-.255.7-.382 1.717-.382 1.717h-.063s-.191-1.081-.445-1.717l-2.163-6.359c-.127-.573-.509-.764-1.08-.764h-1.082c-.7 0-.954.446-.763 1.082l3.498 9.666c.127.573.508.764 1.08.764h1.781c.573 0 .89-.255 1.082-.764l3.625-9.666Zm7.568 3.243c-.636-.254-1.526-.382-2.48-.318-1.018.064-1.908.254-2.608.572.191-1.526 1.208-2.607 2.671-2.671 1.272-.063 2.29.827 2.417 2.417Zm2.862.636c-.127-3.18-2.099-5.406-5.342-5.279-3.435.128-5.724 2.735-5.597 6.297.127 3.243 2.608 5.914 6.423 5.787 1.781-.064 3.117-.827 3.88-1.336.509-.318.572-.763.254-1.272l-.318-.445c-.318-.508-.572-.636-1.081-.318-.509.382-1.463.954-2.544 1.018-2.035.063-3.434-1.081-3.688-3.116.953.381 2.225.508 3.815.445 1.718-.064 2.926-.445 3.689-.891.318-.19.509-.508.509-.89Z"/></g><path fill="#fff" d="M107.925 179.705c.891 0 1.59.699 1.59 1.653 0 .891-.699 1.654-1.59 1.654-.89 0-1.59-.763-1.59-1.654 0-.954.7-1.653 1.59-1.653Zm0 2.862c.7 0 1.209-.573 1.209-1.272 0-.7-.509-1.272-1.209-1.272-.699 0-1.208.572-1.208 1.272 0 .699.509 1.272 1.208 1.272Zm-.572-1.908c0-.128.064-.191.191-.191h.509c.318 0 .508.191.508.509 0 .254-.19.381-.254.445l.064.063.19.382c.064.127 0 .191-.063.191h-.064c-.127 0-.191-.064-.191-.127l-.19-.446h-.191v.446c0 .127-.064.19-.191.19s-.191-.063-.191-.19v-1.272h-.127Zm.572.572c.128 0 .255-.064.255-.254 0-.128-.064-.255-.255-.255h-.19v.509h.19Z"/><g clip-path="url(#f)"><path fill="#fff" d="M147.38 97.908a6.094 6.094 0 0 0-.775-2.713l-4.237-7.41a5.95 5.95 0 0 1-.667-1.785l-.18.31a6.006 6.006 0 0 0 0 5.935l3.389 5.936a6.005 6.005 0 0 1 0 5.935l-.18.31a5.96 5.96 0 0 0-.667-1.785l-3.101-5.425-1.983-3.46a5.95 5.95 0 0 1-.667-1.784l-.18.31a6.017 6.017 0 0 0-.018 5.917l3.407 5.954a6.005 6.005 0 0 1 0 5.935l-.18.31a5.987 5.987 0 0 0-.667-1.785l-4.237-7.483a5.848 5.848 0 0 1-.775-3.222c-4.543 1.201-7.662 3.732-7.662 6.682 0 4.096 6.057 7.41 13.539 7.41 7.482 0 13.539-3.314 13.539-7.41-.018-2.95-3.155-5.48-7.698-6.682Zm12.782 12.654c.054-1.056.198-1.766.487-2.586 1.424.674 3.263 1.002 4.651 1.002 2.362 0 3.696-.765 3.696-2.295 0-1.493-.974-2.184-3.354-3.24l-1.298-.565c-2.397-1.056-4.02-2.421-4.02-5.134 0-2.932 2.001-4.807 6.13-4.807 1.658 0 3.209.237 4.651.746a9.95 9.95 0 0 1-.505 2.568c-1.37-.51-2.993-.747-4.164-.747-2.218 0-3.227.874-3.227 2.24 0 1.329.991 2.112 2.776 2.876l1.37.583c3.227 1.384 4.579 2.859 4.579 5.335 0 2.949-2.217 4.989-6.526 4.989-2.109.018-3.822-.292-5.246-.965Zm25.401-12.272v12.836h-2.56l-.144-1.548c-.703 1.129-1.803 1.858-3.587 1.858-3.354 0-5.589-2.458-5.589-6.774 0-4.515 2.398-7.082 7.103-7.082 1.803-.018 3.317.2 4.777.71Zm-2.794 9.905v-8.066c-.577-.109-1.226-.146-2.001-.146-2.903 0-4.255 1.803-4.255 4.679 0 2.622 1.046 4.461 3.534 4.461a4.356 4.356 0 0 0 2.722-.928Zm17.127-5.699v8.63h-2.795v-8.139c0-2.021-.667-3.004-3.461-3.004-.667 0-1.442.073-2.218.2v10.943h-2.794V98.29c1.785-.437 3.732-.71 5.084-.71 4.669-.018 6.184 1.82 6.184 4.916Zm7.752 6.536a6.14 6.14 0 0 0 2.181-.382 25.8 25.8 0 0 1-.325 2.385c-.757.31-1.568.419-2.361.419-2.722 0-4.453-1.257-4.453-4.388V93.574c.865-.291 1.929-.418 2.794-.418v4.86h4.417c-.054.875-.126 1.676-.252 2.422h-4.165v6.3c0 1.639.811 2.294 2.164 2.294Zm14.999-10.742v12.836h-2.56l-.144-1.548c-.722 1.129-1.803 1.858-3.588 1.858-3.353 0-5.589-2.458-5.589-6.774 0-4.515 2.398-7.082 7.103-7.082 1.803-.018 3.3.2 4.778.71Zm-2.795 9.905v-8.066c-.576-.109-1.225-.146-2.001-.146-2.902 0-4.254 1.803-4.254 4.679 0 2.622 1.045 4.461 3.533 4.461 1.1 0 1.983-.364 2.722-.928Zm17.109-5.699v8.63h-2.794v-8.139c0-2.021-.667-3.004-3.462-3.004-.667 0-1.442.073-2.217.2v10.943h-2.794V98.29c1.784-.437 3.731-.71 5.083-.71 4.688-.018 6.184 1.82 6.184 4.916Zm14.188-9.34v17.97h-2.56l-.144-1.639c-.721 1.202-1.803 1.949-3.642 1.949-3.353 0-5.588-2.458-5.588-6.774 0-4.515 2.397-7.082 7.103-7.082.739 0 1.424.073 2.091.2v-4.242c.829-.31 1.821-.382 2.74-.382Zm-2.758 15.002v-7.902c-.739-.145-1.497-.255-2.236-.255-2.776 0-4.092 1.748-4.092 4.68 0 2.622 1.046 4.46 3.533 4.46 1.1-.018 2.02-.4 2.795-.983Zm16.82-2.531h-8.924c.361 2.295 1.677 3.387 4.164 3.387 1.533 0 3.083-.328 4.471-.983-.108.746-.252 1.73-.432 2.567-1.28.583-2.614.819-4.129.819-4.687 0-6.94-2.621-6.94-7.009 0-3.824 1.748-6.865 6.201-6.865 3.984 0 5.715 2.64 5.715 5.881a10.99 10.99 0 0 1-.126 2.203Zm-8.978-2.348h6.31c0-2.112-1.118-3.332-3.047-3.332-1.983-.018-3.029 1.147-3.263 3.332ZM275 97.671c0 .856-.108 1.875-.252 2.421a18.947 18.947 0 0 0-2.11-.109c-.685 0-1.37.055-2.055.146v10.997h-2.794V98.29c1.19-.419 3.209-.71 4.777-.71.866-.018 1.839.018 2.434.09Z"/></g><path fill="#fff" d="M9.808 101.015V88.389h3.26v4.978h6.97v-4.978h3.446v12.626H20.09v-5.548h-7.023v5.548h-3.26ZM29.609 101.015h-3.26V88.389h3.26v12.626ZM30.852 88.389h13.994v2.1h-5.221v10.526h-3.392V90.489h-5.354v-2.1h-.027ZM41.934 101.015l5.99-12.626h4.214l6.042 12.626h-3.71l-1.193-2.67h-6.413l-1.087 2.67h-3.843Zm10.575-4.77-2.412-5.678-2.465 5.678h4.877ZM74.03 101.015V88.389h3.392v4.978h6.97v-4.978h3.313v12.626h-3.26v-5.548h-7.023v5.548h-3.393ZM93.8 101.015h-3.26V88.389h3.26v12.626ZM68.619 92.64c.026-1.322-.795-2.566-3.498-2.592-3.499-.026-3.843 3.034-3.843 4.667-.027 3.526 1.51 4.563 4.028 4.615 2.465.052 3.34-1.504 3.313-2.826h3.63c-.158 3.163-2.358 4.744-6.943 4.796-5.46.052-7.818-2.878-7.818-6.585 0-3.682 2.306-6.715 7.66-6.715 3.816 0 6.784 1.478 6.943 4.64h-3.472ZM6.896 112.448H5.12v-6.17c0-.389.133-.959-.98-.959h-.345v-.441s2.465-.104 3.127-.311l-.026 7.881ZM74.296 112.5h-1.643v-6.17c0-.389.132-1.141-.98-1.141h-.345v-.441h3.63l4.002 5.833v-5.833h1.644v7.778h-2.015l-4.24-6.093-.053 6.067ZM56.616 112.5h-1.537v-6.378c0-.285.133-.959-.663-.959h-.344v-.519s1.881-.103 2.544-.311v3.734s.69-1.167 2.12-1.167c1.431 0 1.75 1.063 1.75 1.763v3.837h-1.458v-3.863s-.08-.7-.875-.7-1.51.804-1.51 1.426c0 .648-.027 3.137-.027 3.137ZM8.668 107.704l-.053-.415s2.253-.285 2.518-.363v1.141s.795-1.141 2.173-1.141c1.378 0 1.696 1.089 1.696 1.452v4.122h-1.537v-4.044c0-.208-.185-.623-.795-.623-.61 0-1.484 1.011-1.484 1.452v3.189h-1.59v-4.2c0-.311.053-.57-.928-.57ZM20.68 108.3v-1.219s-1.086-.181-1.722-.181c-.636 0-2.094.285-2.094 1.607 0 1.737 2.916 1.763 2.916 2.774 0 .856-1.644.882-2.73.13-.08-.052-.186 0-.186 0v1.089s.901.181 1.776.181 2.491-.285 2.491-1.685c0-1.685-2.995-2.074-2.995-2.852-.026-.803 1.723-.622 2.545.156ZM22.93 108.404c0-.337-.079-.674-1.06-.674v-.467s2.306-.207 2.518-.337v.726h.239s.318-.7 1.484-.7 2.385.674 2.385 2.774-.954 2.93-2.385 2.93c-1.431 0-1.51-.571-1.51-.571h-.24v2.774h-1.43v-6.455Zm1.511 1.555c0 1.504.637 1.919 1.193 1.919.583 0 1.246-.363 1.246-2.204 0-1.841-.928-1.918-1.246-1.918-.636-.026-1.193.7-1.193 2.203ZM30.619 108.326c0-.337-.026-.596-1.034-.596v-.415s2.253-.285 2.518-.363v5.548H30.62v-4.174ZM32.31 105.396c0 .441-.424.804-.927.804-.504 0-.928-.363-.928-.804 0-.44.424-.803.928-.803.53 0 .927.363.927.803ZM34.695 112.474v-4.096c0-.337-.08-.674-1.06-.674v-.467s2.306-.207 2.518-.337v.985h.133s.477-.985 1.537-.985c.45 0 .768.052.768.052v1.374s-.424-.233-.795-.233c-.37 0-1.563.388-1.563 1.296v3.085h-1.538ZM87.651 107.004v.466s.716-.026 1.007.259c.292.286 1.458 1.815 1.458 1.815l-1.564 1.789h1.723l.663-.648 1.484 1.867h1.802l-4.267-5.548h-2.306ZM43.202 108.637h-2.253s.08-1.141 1.166-1.141c1.06.026 1.087 1.141 1.087 1.141Zm-1.14-1.763c-.954 0-2.836.156-2.836 2.722 0 2.593 2.04 3.111 3.392 3.111 1.352 0 1.935-.363 1.935-.363v-.803s-.583.311-1.351.311c-2.174 0-2.306-2.567-2.306-2.567h3.79c.026-2.204-1.644-2.411-2.624-2.411ZM65.917 108.637h-2.253s.08-1.141 1.166-1.141c1.06.026 1.087 1.141 1.087 1.141Zm-1.14-1.763c-.954 0-2.836.156-2.836 2.722 0 2.593 2.041 3.111 3.393 3.111 1.351 0 1.934-.363 1.934-.363v-.803s-.583.311-1.351.311c-2.174 0-2.306-2.567-2.306-2.567h3.79c.026-2.204-1.643-2.411-2.624-2.411ZM85.98 108.637h-2.279s.106-1.141 1.166-1.141c1.06.026 1.113 1.141 1.113 1.141Zm-1.14-1.763c-.954 0-2.835.156-2.835 2.722 0 2.593 2.04 3.111 3.392 3.111 1.352 0 1.935-.363 1.935-.363v-.803s-.583.311-1.352.311c-2.173 0-2.305-2.567-2.305-2.567h3.79c0-2.204-1.67-2.411-2.624-2.411ZM49.09 107.678v-.648h1.06v-1.686h1.51v1.686h1.723v.648H51.66v3.733c0 .389.478.493 1.538.493v.648s-.345.156-1.14.156c-.795 0-1.988-.104-1.988-1.167v-3.863h-.98ZM94.913 107.678v-.648h1.06v-1.686h1.51v1.686h1.723v.648h-1.723v3.733c0 .389.477.493 1.537.493v.648s-.344.156-1.14.156c-.794 0-1.987-.104-1.987-1.167v-3.863h-.98ZM91.44 108.767l1.326-1.737h1.67l-1.564 1.737H91.44ZM96.237 103.037h1.776l-2.04 2.307h-1.75l2.014-2.307Z"/><g fill="#fff" clip-path="url(#g)"><path d="M244.548 40.794v.064l.056-.032.056.032v-.064C262.87 30.6 260.146 7.37 260.146 7.37c-4.584 0-3.543-3.793-3.543-3.793h-1.916v-1.69C251.413.394 246.065.068 244.66.006V0l-.005.001c-1.405.062-6.86.392-10.133 1.886v1.69h-1.917s1.041 3.792-3.543 3.792c0 0-2.724 23.231 15.486 33.424m1.725-36.533s4.926.39 8.992 4.829c4.065 4.439 1.656 7.839-2.625 10.07-.061.03 2.13.93 1.613 3.443-.516 2.511-1.01 4.157-7.98 12.494V4.26Zm-1.318 12.77c.267 0 .524.107.713.297a1.019 1.019 0 0 1-.001 1.436 1.003 1.003 0 0 1-1.426 0 1.018 1.018 0 0 1 .001-1.436c.189-.19.445-.297.713-.297Zm-13.254-5.39c.177-.12 2.327-1.38 2.327-1.38 1.359 8.487 4.15 14.325 4.15 14.325l.242-3.26c-1.936-8.425-2.323-14.142-2.323-14.142l2.345-.953c.494 8.532 2.925 16.913 2.925 16.913l-.086-18.472 2.474-.411-.064 31.01c-1.958-2.772-3.937-9.29-3.937-9.29l-.848 5.596c-4.88-6.723-7.382-19.817-7.205-19.936"/><path d="M254.254 15.26c.024-.034 3.183-3.875-5.529-7.795v10.979s4.26-1.364 5.529-3.183Zm-4.066 4.981-1.613.629v7.535s2.151-2.534 2.926-4.612c0 0 .752-2.945-1.313-3.552Zm-16.219 24.902a10.224 10.224 0 0 0-.873-.1c.41-.94.873-1.838 1.373-2.718.196-.34-.286-.942-.713-1.211-1.444 1.05-2.826 2.431-4.082 3.912-.776.027-1.534.071-2.157.117-.375.026-.481.197-.517.538.398.402.818.783 1.257 1.14-.286.394-.571.789-.838 1.174-.285.324-.027.88.365 1.005.363-.571.74-1.134 1.132-1.686.953.664 2.023 1.184 2.968 1.121.247-.895.545-1.776.891-2.638.32.025.626.052.914.084l.28-.738Zm-5.356 1.21a4.41 4.41 0 0 1-.633-.547c.348-.036.722-.054 1.114-.072l-.481.62Zm2.085 1.221c-.374-.162-.909-.44-1.425-.772.267-.368.534-.735.819-1.094.446 0 .901.009 1.355.018-.267.61-.508 1.229-.749 1.848Zm1.07-2.567a23.507 23.507 0 0 0-1.114 0c.811-.986 1.666-1.91 2.567-2.718a22.18 22.18 0 0 0-1.453 2.718ZM236.26 47.404c-.062 0-.054-.09-.018-.207.089-.27.25-.565.393-.807.293-.512-.241-1.157-.402-1.157-.178 0-.963.556-1.64 1.318l.223-.511c.16-.413-.418-.754-.846-.897l.143.789a19.047 19.047 0 0 0-.423-.051l-.683 1.8c-.125.333.49.808.73.808l.143-.305c.455-.88 1.382-1.74 1.667-1.884a7.464 7.464 0 0 0-.731 1.417c-.125.35.454.772.588.772.259 0 1.242-.613 2.113-1.584l.667-1.759c-.439 1.013-1.79 2.258-1.924 2.258Z"/><path d="m233.969 45.142-.28.74c.146.015.289.031.423.05l-.143-.79Zm4.492-1.121c-.08.296.16.592.499.718.454-.144.9-.655.971-.915.063-.225-.142-.628-.508-.718-.4.098-.882.628-.962.915Zm.196 3.275c-.116 0-.009-.251.036-.36l.339-.897c.151-.385-.42-.753-.847-.897.106.207-.169.53-.071 1.005a7.33 7.33 0 0 1-.598.758l-.294.777c-.125.331.445.807.669.807.396 0 1.241-.804 2.002-1.67l.555-1.466c-.451.72-1.605 1.943-1.791 1.943Z"/><path d="m238.185 45.143-.002.002-.667 1.76c.216-.239.415-.492.597-.758-.098-.475.179-.798.072-1.004Zm7.37 2.018a3.76 3.76 0 0 1 .331-.58c-.441.492-.868.823-.973.823-.062 0-.053-.09-.017-.207a4.46 4.46 0 0 1 .392-.807c.293-.512-.241-1.158-.401-1.158-.197 0-1.079.638-1.792 1.49l.241-.593c.151-.412-.419-.915-.517-.915-.188 0-1.043.592-1.72 1.454l.276-.629c.16-.412-.419-.753-.847-.896l-.08.21.009-.013v.807c-.183.229-.371.453-.565.673l-.326.861c-.125.333.49.808.731.808.525-.888 1.247-1.794 1.827-2.189l-.58 1.435c-.151.368.686.745.847.745.374-.978 1.497-2.018 1.81-2.18a7.386 7.386 0 0 0-.732 1.418c-.124.349.455.77.589.77.196 0 .81-.353 1.475-.947a.579.579 0 0 1 .022-.38Z"/><path d="m240.457 45.34-.008.013-.556 1.467c.197-.225.389-.452.564-.673v-.807Zm8.654 1.956c-.116 0-.009-.251.036-.36l.338-.897c.152-.385-.418-.753-.847-.897l-.311.817c-.134-.476-.571-.799-.847-.799-.301 0-1.071.654-1.594 1.421.123-.136.246-.285.364-.443.214-.278.419-.466.518.01a7.818 7.818 0 0 1-1.235 1.393c.111.467.645.948.833.948.392 0 .945-.467 1.372-.978l-.062.17c-.125.332.446.808.668.808.397 0 1.244-.805 2.005-1.671l.561-1.477c-.446.719-1.612 1.955-1.799 1.955Zm-2.353.367c-.054-.134 0-.412.116-.61.294-.53.722-.969.989-.969.107 0 .25.225.295.332-.161.36-1.239 1.176-1.4 1.247"/><path d="M246.767 46.147c-.098-.475-.303-.287-.516-.008a7.165 7.165 0 0 1-.365.443 3.848 3.848 0 0 0-.331.58.585.585 0 0 0-.022.379c.422-.378.864-.85 1.234-1.394Zm4.688 1.149c-.116 0-.01-.251.035-.36l.998-2.628h.714c.151 0 .302-.431.231-.628h-.704l.214-.547c.151-.386-.339-.951-.766-1.095l-.633 1.642h-4.002c-.401 0-.606.367-.678.628h4.439l-.393 1.033.001-.002v.808c-.175.22-.366.447-.562.67l-.329.864c-.125.332.445.808.669.808.395 0 1.241-.803 2.001-1.67l.556-1.466c-.451.72-1.605 1.943-1.791 1.943Z"/><path d="M250.911 45.34v.002l-.562 1.476c.196-.224.387-.451.563-.67v-.808h-.001Zm2.691-1.32c-.08.297.161.593.499.719.455-.144.901-.655.972-.915.063-.225-.143-.628-.508-.718-.401.098-.883.628-.963.915Zm.945 2.854c.082-.218.218-.442.385-.655h-.001c-.277.305-.945 1.077-1.132 1.077-.116 0-.009-.251.035-.36l.339-.897c.152-.385-.419-.753-.847-.897l-.08.211.009-.013v.807c-.183.229-.371.453-.564.673l-.327.861c-.125.332.445.808.668.808.307 0 .883-.482 1.48-1.1a1.072 1.072 0 0 1 .035-.515Z"/><path d="m253.255 45.34-.009.013-.556 1.467c.197-.225.389-.452.565-.673v-.807Zm4.598 1.076.205-.322c.143-.216-.223-.754-.508-.664-.201.066-.388.17-.552.304-.054-.197-.277-.448-.553-.654-.5.153-1.104.615-1.513 1.139l.667-.072c-.344.43-.707.844-1.088 1.241.074.524.421 1.101.82 1.101.499 0 1.551-.7 2.059-1.292a4.17 4.17 0 0 0 1.259-.674l.412-1.089c-.213.444-.8.815-1.208.982Zm-1.292.79c-.348.287-.651.422-.864.538-.143-.144-.143-.574.187-.995.213-.279.463-.458.73-.593-.151.233-.231.467-.231.61 0 .234.062.368.178.44Z"/><path d="M254.932 46.219a2.564 2.564 0 0 0-.385.655 1.059 1.059 0 0 0-.035.514c.38-.397.743-.81 1.087-1.24l-.667.071Zm7.894.072c-.419.503-1.23 1.112-1.363 1.112-.063 0-.054-.09-.018-.206.089-.269.25-.565.392-.807.294-.512-.241-1.158-.401-1.158-.179 0-.963.556-1.64 1.319l.223-.512c.16-.412-.419-.753-.847-.897l-.111.292.04-.095v.773c-.138.15-.289.288-.452.41l-.44 1.16c-.124.331.491.807.732.807l.142-.305c.454-.88 1.381-1.74 1.667-1.884a7.335 7.335 0 0 0-.731 1.418c-.125.35.454.77.588.77.321 0 1.738-.986 2.228-1.488.267-.279.169-.548-.009-.71Z"/><path d="M259.101 46.111v-.771l-.039.094-.412 1.09c.17-.134.326-.272.451-.413Zm-11.845-5.428v-.597h.163v-.169h-.523v.169h.163v.596h.197Zm.667-.356-.154-.41h-.194l-.129.765h.196l.064-.44h.002l.174.44h.079l.182-.44h.002l.055.44h.198l-.115-.764h-.196l-.163.409h-.001Z"/></g><g fill="#fff" clip-path="url(#h)"><path d="M55.026 35.329c1.751.086 3.21-.739 4.585-1.65.255-.172.608-.419.492-.794-.115-.376-.237-.69-.608-.807-1.07.03-2.134.175-3.174.431-.285 0-.608.185-.863.031.194-.632.432-1.249.711-1.847l2.651-.074c.322-.05.663-.03.9-.308a2.75 2.75 0 0 0-.036-1.046c-.815-.431-1.989-.191-2.9-.228L56.685 29c.12-.442.262-.878.426-1.305 1.459-.037 2.736.049 4.043-.345a.416.416 0 0 0 .237-.394 2.315 2.315 0 0 0-.548-.936 2.276 2.276 0 0 0-.911-.578 19.07 19.07 0 0 0-4.159.344c-.699.191-1.55.068-2.177.462-.048.135.122.21.104.326.17.825 1.052.727 1.611.967-.353.616-.286 1.847-1.27 1.767-.56.295-.122.997-.104 1.447-.407.997-1.034 2.253-.39 3.355.137.303.34.571.592.784.252.213.55.366.868.447M33.054 34.935c.267-.105.644-.173.73-.517.103-2.494-.14-5.036-.274-7.585a2.13 2.13 0 0 0-.535-1.151c-.152-.105-.335-.259-.542-.154-.19.137-.328.337-.389.566a26.18 26.18 0 0 0-.219 8.324c.22.498.779.443 1.216.517M45.925 34.763a.9.9 0 0 0 .492-.567c.22-1.231.17-2.635.268-3.835-.02-.454.064-.907.243-1.324.797 1.114 1.216 2.407 1.982 3.522.547.615.906 1.563 1.788 1.668a2.28 2.28 0 0 0 1.143-.55c.323-.289.559-.664.68-1.081.32-1.27.364-2.595.128-3.884a9.091 9.091 0 0 0-1.495-3.578c-.39-.45-.779-1.14-1.411-1.188-.2.086-.219.289-.255.461.34 1.977 1.216 3.854 1.295 5.917.087.41.058.837-.085 1.231h-.104c-1.003-1.293-1.611-2.721-2.632-4.008-.444-.462-.748-1.12-1.344-1.41-.34-.154-.608.154-.797.394a14.04 14.04 0 0 0-1.088 4.113c0 1.342-.541 2.783.359 3.903a1.03 1.03 0 0 0 .833.259M36.805 34.036c1.781.985 4.554.997 6.25-.185 1.119-.615 1.119-2.031.967-3.115-.359-1.305-1.733-1.718-2.87-1.89-1.63-.135-3.295-.172-4.773-.69a.105.105 0 0 1 .003-.125.103.103 0 0 1 .034-.028c1.903-.69 4.195-.548 6.232-.825a2.848 2.848 0 0 0 1.374-.376c.212-.192.344-.458.37-.745-.097-.166-.267-.166-.407-.252-2.833-.776-6.45-.69-8.791 1.114a2.208 2.208 0 0 0-.493 1.927c.135.29.362.526.645.671 1.678.499 3.684.191 5.38.616.73.082 1.402.438 1.885.997a.586.586 0 0 1-.267.585 9.399 9.399 0 0 1-3.606.997c-.9-.049-2.085.259-2.748-.566a.542.542 0 0 1 .268-.671c1.495-.517 2.565 1.065 4.097.554.438-.154 1.083-.21 1.217-.776a5.617 5.617 0 0 0-2.627-.85c-1.216-.098-2.566-.307-3.417.653a1.566 1.566 0 0 0-.267 1.515 3.533 3.533 0 0 0 1.544 1.477M13.914 36.893c-.39-.585-.359-1.361-.51-2.044a15.08 15.08 0 0 1-6.251-5.11 1.514 1.514 0 0 1 .152-1.392c1.173-1.293 2.784-1.717 4.347-2.204l1.921-.357c.189-1.637.189-3.423.833-4.925.56-.123.815.548 1.1.893.493 1.12.31 2.598.511 3.749 2.651 0 5.4.105 7.473 1.7a2.246 2.246 0 0 1 .766 1.735 2.595 2.595 0 0 1-.561 1.056 2.554 2.554 0 0 1-.971.687 2.148 2.148 0 0 1-1.593-.277.618.618 0 0 1 .37-.413c.341-.24.834-.616.815-1.053a13.001 13.001 0 0 0-3.818-.997 21.062 21.062 0 0 0-2.547-.215l-.067.086c0 2.08.219 6.224.219 6.224 3.123.629 6.362.263 9.272-1.047 1.52-.825 2.735-2.407 2.565-4.18-.206-3.33-3.088-5.91-5.74-7.64-5.143-3.159-11.113-5.221-17.607-4.119-.176.086-.413.068-.51.24.267.308.845 0 1.118.376.085.104.256.209.152.345a2.533 2.533 0 0 1-2.14 0 .455.455 0 0 1-.188-.536c.137-.494.41-.94.787-1.283a2.68 2.68 0 0 1 1.34-.663c5.57-1.422 11.224.216 15.979 2.561 3.648 1.755 7.296 4.864 9.016 8.663.409 1.053.518 2.2.318 3.313a6.107 6.107 0 0 1-1.455 2.985c-2.122 2.216-4.864 3.078-7.812 3.33a21.452 21.452 0 0 1-5.199-.51c-.079.48-.067 1.083-.608 1.286-.51-.049-1.216.296-1.495-.24m-.609-3.694c.177-1.798.254-3.604.232-5.411-1.922.24-3.904.314-5.57 1.151a.536.536 0 0 0-.152.536 11.45 11.45 0 0 0 5.533 3.694M30.336 24.358a1.36 1.36 0 0 1-.304-1.391 2.779 2.779 0 0 1-.705-2.204c.291-1.429 1.629-2.525 2.85-3.177 1.223-.653 2.956-1.016 4.257-.296.211.177.396.385.547.616.284-.008.566.055.82.181.256.127.477.314.645.545a2.146 2.146 0 0 1-.103 2.167c-1.77 2.063-4.11 4.008-6.962 2.974-.225.259-.255.69-.644.776a.462.462 0 0 1-.426-.191m4.092-2.167c1.216-.363 2.748-.96 2.985-2.463a.935.935 0 0 0-.267-.615 1.263 1.263 0 0 0-1.003-.056 8.331 8.331 0 0 0-3.752 3.183 4.47 4.47 0 0 0 2.074-.05m-3.752-.738a30.615 30.615 0 0 1 2.463-2.58v-.086c-1.107.222-2.36 1.102-2.548 2.321l.085.345ZM59.951 41.16c.067-2.463.852-4.698 1.563-6.933l.359-.96c-1.466-2.808.559-5.695 2.432-7.863.182-.153.37-.357.608-.24.255.5-.067.98-.152 1.447-.779 1.496-1.934 2.888-1.885 4.71l.049.05c1.495-1.922 3.161-4.003 5.265-5.228a1.288 1.288 0 0 1 1.003 0 3.759 3.759 0 0 1 1.245 1.713c.244.68.289 1.417.13 2.123-.39 2.32-2.682 4.31-4.755 5.024a4.476 4.476 0 0 1-1.825.086 39.794 39.794 0 0 0-2.054 7.837c-.377.228-.718-.135-1.04-.308a2.348 2.348 0 0 1-.949-1.459m8.02-9.524c1.003-.893 1.63-2.149 1.216-3.503-.067-.142-.152-.296-.34-.277a18.337 18.337 0 0 0-3.612 4.863 4.992 4.992 0 0 0 2.736-1.083ZM106.323 29.868c0 1.342-.164 2.955 1.04 3.503a2.407 2.407 0 0 0 1.994 0c1.216-.69 1.07-2.093 1.07-3.318V16.638h2.159v13.045c0 1.638.243 3.922-2.08 5.073a5.719 5.719 0 0 1-4.566 0c-1.963-.941-1.775-2.832-1.775-4.26V16.638h2.158v13.23ZM118.818 17.26v-.622h2.158v18.37h-2.158V17.26ZM129.823 31.118c.516-1.318-.329-2.561-1.338-3.99l-1.149-1.588c-1.532-2.124-2.596-3.854-1.447-5.929.93-1.631 3.04-2.696 4.45-3.226l.906 1.52c-1.477.58-2.924 1.343-3.417 2.747-.407 1.126.274 2.191 1.314 3.638l1.307 1.804c1.775 2.555 2.572 3.916 1.125 6.292-.821 1.404-3.01 2.53-4.7 3.017l-.961-1.588c1.447-.511 3.308-1.152 3.91-2.672M143.247 30.071h-3.855v3.19h4.293v1.748H137.234V16.638h6.013v1.89h-3.855v9.82h3.855v1.723ZM188.555 16.638v18.371H195v-1.755h-4.286v-3.183h3.854v-1.724h-3.854v-9.82h3.854v-1.89h-6.013ZM167.901 17.26v-.622h2.159v18.37h-2.159V17.26ZM181.569 29.061v-2.025l-4.098-5.116v13.089h-2.158v-18.76l6.256 7.604v-7.24h2.159v18.396h-2.159V29.06ZM86.478 18.146c-3.976 1.76-5.672 4.974-5.648 7.819.055 2.684 1.538 5.67 5.57 7.616v1.846a9.948 9.948 0 0 1-4.917-2.702 10.145 10.145 0 0 1-2.708-4.956c-.657-3.263.523-7.567 4.742-10.25a14.844 14.844 0 0 1 2.961-1.275v1.902ZM91.701 35.009V16.244c2.736.615 5.794 2.58 7.023 5.578a7.23 7.23 0 0 1 .479 3.73 7.194 7.194 0 0 1-1.458 3.46 10.073 10.073 0 0 1-1.618 1.706l2.846 4.31H96.54l-2.268-3.294a1.209 1.209 0 0 1-.438.227v3.079l-2.134-.031Zm2.159-5.276A6.372 6.372 0 0 0 96 27.839a6.468 6.468 0 0 0 1.111-2.65c.25-1.748-.845-4.494-3.252-6.033v10.577ZM163.688 33.242v1.724h-5.964V16.638h2.152v16.604h3.812Z"/></g></g><defs><clipPath id="a"><path fill="#fff" d="M220 243h40v40h-40z"/></clipPath><clipPath id="b"><path fill="#fff" d="M5 248h70v30H5z"/></clipPath><clipPath id="d"><path fill="#fff" d="M135 165h134v31H135z"/></clipPath><clipPath id="f"><path fill="#fff" d="M128 86h147v26H128z"/></clipPath><clipPath id="g"><path fill="#fff" d="M227 0h36v49h-36z"/></clipPath><clipPath id="h"><path fill="#fff" d="M3 15h192v28H3z"/></clipPath></defs></svg>