<svg xmlns="http://www.w3.org/2000/svg" fill="none" viewBox="0 0 272 116"><g clip-path="url(#a)"><path fill="#fff" d="M144.38 97.908a6.094 6.094 0 0 0-.775-2.713l-4.237-7.41a5.95 5.95 0 0 1-.667-1.785l-.18.31a6.006 6.006 0 0 0 0 5.935l3.389 5.936a6.005 6.005 0 0 1 0 5.935l-.18.31a5.96 5.96 0 0 0-.667-1.785l-3.101-5.425-1.983-3.46a5.95 5.95 0 0 1-.667-1.784l-.18.31a6.017 6.017 0 0 0-.018 5.917l3.407 5.954a6.005 6.005 0 0 1 0 5.935l-.18.31a5.987 5.987 0 0 0-.667-1.785l-4.237-7.483a5.848 5.848 0 0 1-.775-3.222c-4.543 1.201-7.662 3.732-7.662 6.682 0 4.096 6.057 7.41 13.539 7.41 7.482 0 13.539-3.314 13.539-7.41-.018-2.95-3.155-5.48-7.698-6.682Zm12.782 12.654c.054-1.056.198-1.766.487-2.586 1.424.674 3.263 1.002 4.651 1.002 2.362 0 3.696-.765 3.696-2.295 0-1.493-.974-2.184-3.354-3.24l-1.298-.565c-2.397-1.056-4.02-2.421-4.02-5.134 0-2.932 2.001-4.807 6.13-4.807 1.658 0 3.209.237 4.651.746a9.95 9.95 0 0 1-.505 2.568c-1.37-.51-2.993-.747-4.164-.747-2.218 0-3.227.874-3.227 2.24 0 1.329.991 2.112 2.776 2.876l1.37.583c3.227 1.384 4.579 2.859 4.579 5.335 0 2.949-2.217 4.989-6.526 4.989-2.109.018-3.822-.292-5.246-.965Zm25.401-12.272v12.836h-2.56l-.144-1.548c-.703 1.129-1.803 1.858-3.587 1.858-3.354 0-5.589-2.458-5.589-6.774 0-4.515 2.398-7.082 7.103-7.082 1.803-.018 3.317.2 4.777.71Zm-2.794 9.905v-8.066c-.577-.109-1.226-.146-2.001-.146-2.903 0-4.255 1.803-4.255 4.679 0 2.622 1.046 4.461 3.534 4.461a4.356 4.356 0 0 0 2.722-.928Zm17.127-5.699v8.63h-2.795v-8.139c0-2.021-.667-3.004-3.461-3.004-.667 0-1.442.073-2.218.2v10.943h-2.794V98.29c1.785-.437 3.732-.71 5.084-.71 4.669-.018 6.184 1.82 6.184 4.916Zm7.752 6.536a6.14 6.14 0 0 0 2.181-.382 25.8 25.8 0 0 1-.325 2.385c-.757.31-1.568.419-2.361.419-2.722 0-4.453-1.257-4.453-4.388V93.574c.865-.291 1.929-.418 2.794-.418v4.86h4.417c-.054.875-.126 1.676-.252 2.422h-4.165v6.3c0 1.639.811 2.294 2.164 2.294Zm14.999-10.742v12.836h-2.56l-.144-1.548c-.722 1.129-1.803 1.858-3.588 1.858-3.353 0-5.589-2.458-5.589-6.774 0-4.515 2.398-7.082 7.103-7.082 1.803-.018 3.3.2 4.778.71Zm-2.795 9.905v-8.066c-.576-.109-1.225-.146-2.001-.146-2.902 0-4.254 1.803-4.254 4.679 0 2.622 1.045 4.461 3.533 4.461 1.1 0 1.983-.364 2.722-.928Zm17.109-5.699v8.63h-2.794v-8.139c0-2.021-.667-3.004-3.462-3.004-.667 0-1.442.073-2.217.2v10.943h-2.794V98.29c1.784-.437 3.731-.71 5.083-.71 4.688-.018 6.184 1.82 6.184 4.916Zm14.188-9.34v17.97h-2.56l-.144-1.639c-.721 1.202-1.803 1.949-3.642 1.949-3.353 0-5.588-2.458-5.588-6.774 0-4.515 2.397-7.082 7.103-7.082.739 0 1.424.073 2.091.2v-4.242c.829-.31 1.821-.382 2.74-.382Zm-2.758 15.002v-7.902c-.739-.145-1.497-.255-2.236-.255-2.776 0-4.092 1.748-4.092 4.68 0 2.622 1.046 4.46 3.533 4.46 1.1-.018 2.02-.4 2.795-.983Zm16.82-2.531h-8.924c.361 2.295 1.677 3.387 4.164 3.387 1.533 0 3.083-.328 4.471-.983-.108.746-.252 1.73-.432 2.567-1.28.583-2.614.819-4.129.819-4.687 0-6.94-2.621-6.94-7.009 0-3.824 1.748-6.865 6.201-6.865 3.984 0 5.715 2.64 5.715 5.881a10.99 10.99 0 0 1-.126 2.203Zm-8.978-2.348h6.31c0-2.112-1.118-3.332-3.047-3.332-1.983-.018-3.029 1.147-3.263 3.332ZM272 97.671c0 .856-.108 1.875-.252 2.421a18.947 18.947 0 0 0-2.11-.109c-.685 0-1.37.055-2.055.146v10.997h-2.794V98.29c1.19-.419 3.209-.71 4.777-.71.866-.018 1.839.018 2.434.09Z"/></g><path fill="#fff" d="M6.808 101.015V88.389h3.26v4.978h6.97v-4.978h3.446v12.626H17.09v-5.548h-7.023v5.548h-3.26ZM26.609 101.015h-3.26V88.389h3.26v12.626ZM27.852 88.389h13.994v2.1h-5.221v10.526h-3.392V90.489h-5.354v-2.1h-.027ZM38.934 101.015l5.99-12.626h4.214l6.042 12.626h-3.71l-1.193-2.67h-6.413l-1.087 2.67h-3.843Zm10.575-4.77-2.412-5.678-2.465 5.678h4.877ZM71.03 101.015V88.389h3.392v4.978h6.97v-4.978h3.313v12.626h-3.26v-5.548h-7.023v5.548h-3.393ZM90.8 101.015h-3.26V88.389h3.26v12.626ZM65.619 92.64c.026-1.322-.795-2.566-3.498-2.592-3.499-.026-3.843 3.034-3.843 4.667-.027 3.526 1.51 4.563 4.028 4.615 2.465.052 3.34-1.504 3.313-2.826h3.63c-.158 3.163-2.358 4.744-6.943 4.796-5.46.052-7.818-2.878-7.818-6.585 0-3.682 2.306-6.715 7.66-6.715 3.815 0 6.784 1.478 6.943 4.64h-3.472ZM3.896 112.448H2.12v-6.17c0-.389.133-.959-.98-.959H.794v-.441s2.465-.104 3.127-.311l-.026 7.881ZM71.296 112.5h-1.643v-6.17c0-.389.132-1.141-.98-1.141h-.345v-.441h3.63l4.002 5.833v-5.833h1.644v7.778h-2.015l-4.24-6.093-.053 6.067ZM53.616 112.5h-1.537v-6.378c0-.285.133-.959-.663-.959h-.344v-.519s1.881-.103 2.544-.311v3.734s.69-1.167 2.12-1.167c1.431 0 1.75 1.063 1.75 1.763v3.837h-1.458v-3.863s-.08-.7-.875-.7-1.51.804-1.51 1.426c0 .648-.027 3.137-.027 3.137ZM5.668 107.704l-.053-.415s2.253-.285 2.518-.363v1.141s.795-1.141 2.173-1.141c1.378 0 1.696 1.089 1.696 1.452v4.122h-1.537v-4.044c0-.208-.185-.623-.795-.623-.61 0-1.484 1.011-1.484 1.452v3.189h-1.59v-4.2c0-.311.053-.57-.928-.57ZM17.68 108.3v-1.219s-1.086-.181-1.722-.181c-.636 0-2.094.285-2.094 1.607 0 1.737 2.916 1.763 2.916 2.774 0 .856-1.644.882-2.73.13-.08-.052-.186 0-.186 0v1.089s.901.181 1.776.181 2.491-.285 2.491-1.685c0-1.685-2.995-2.074-2.995-2.852-.026-.803 1.723-.622 2.545.156ZM19.93 108.404c0-.337-.079-.674-1.06-.674v-.467s2.306-.207 2.518-.337v.726h.239s.318-.7 1.484-.7 2.385.674 2.385 2.774-.954 2.93-2.385 2.93c-1.431 0-1.51-.571-1.51-.571h-.24v2.774h-1.43v-6.455Zm1.511 1.555c0 1.504.637 1.919 1.193 1.919.583 0 1.246-.363 1.246-2.204 0-1.841-.928-1.918-1.246-1.918-.636-.026-1.193.7-1.193 2.203ZM27.619 108.326c0-.337-.026-.596-1.034-.596v-.415s2.253-.285 2.518-.363v5.548H27.62v-4.174ZM29.31 105.396c0 .441-.424.804-.927.804-.504 0-.928-.363-.928-.804 0-.44.424-.803.928-.803.53 0 .927.363.927.803ZM31.695 112.474v-4.096c0-.337-.08-.674-1.06-.674v-.467s2.306-.207 2.518-.337v.985h.133s.477-.985 1.537-.985c.45 0 .768.052.768.052v1.374s-.424-.233-.795-.233c-.37 0-1.563.388-1.563 1.296v3.085h-1.538ZM84.651 107.004v.466s.716-.026 1.007.259c.292.286 1.458 1.815 1.458 1.815l-1.564 1.789h1.723l.663-.648 1.484 1.867h1.802l-4.267-5.548h-2.306ZM40.202 108.637h-2.253s.08-1.141 1.166-1.141c1.06.026 1.087 1.141 1.087 1.141Zm-1.14-1.763c-.954 0-2.836.156-2.836 2.722 0 2.593 2.04 3.111 3.392 3.111 1.352 0 1.935-.363 1.935-.363v-.803s-.583.311-1.351.311c-2.174 0-2.306-2.567-2.306-2.567h3.79c.026-2.204-1.644-2.411-2.624-2.411ZM62.917 108.637h-2.253s.08-1.141 1.166-1.141c1.06.026 1.087 1.141 1.087 1.141Zm-1.14-1.763c-.954 0-2.836.156-2.836 2.722 0 2.593 2.041 3.111 3.393 3.111 1.351 0 1.934-.363 1.934-.363v-.803s-.583.311-1.351.311c-2.174 0-2.306-2.567-2.306-2.567h3.79c.026-2.204-1.643-2.411-2.624-2.411ZM82.98 108.637h-2.279s.106-1.141 1.166-1.141c1.06.026 1.113 1.141 1.113 1.141Zm-1.14-1.763c-.954 0-2.835.156-2.835 2.722 0 2.593 2.04 3.111 3.392 3.111 1.352 0 1.935-.363 1.935-.363v-.803s-.583.311-1.352.311c-2.173 0-2.305-2.567-2.305-2.567h3.79c0-2.204-1.67-2.411-2.624-2.411ZM46.09 107.678v-.648h1.06v-1.686h1.51v1.686h1.723v.648H48.66v3.733c0 .389.478.493 1.538.493v.648s-.345.156-1.14.156c-.795 0-1.988-.104-1.988-1.167v-3.863h-.98ZM91.913 107.678v-.648h1.06v-1.686h1.51v1.686h1.723v.648h-1.723v3.733c0 .389.477.493 1.537.493v.648s-.344.156-1.14.156c-.794 0-1.987-.104-1.987-1.167v-3.863h-.98ZM88.44 108.767l1.326-1.737h1.67l-1.564 1.737H88.44ZM93.237 103.037h1.776l-2.04 2.307h-1.75l2.014-2.307Z"/><g fill="#fff" clip-path="url(#b)"><path d="M241.548 40.794v.064l.056-.032.056.032v-.064C259.87 30.6 257.146 7.37 257.146 7.37c-4.584 0-3.543-3.793-3.543-3.793h-1.916v-1.69C248.413.394 243.065.068 241.66.006V0l-.005.001c-1.405.062-6.86.392-10.133 1.886v1.69h-1.917s1.041 3.792-3.543 3.792c0 0-2.724 23.231 15.486 33.424m1.725-36.533s4.926.39 8.992 4.829c4.065 4.439 1.656 7.839-2.625 10.07-.061.03 2.13.93 1.613 3.443-.516 2.511-1.01 4.157-7.98 12.494V4.26Zm-1.318 12.77c.267 0 .524.107.713.297a1.019 1.019 0 0 1-.001 1.436 1.003 1.003 0 0 1-1.426 0 1.018 1.018 0 0 1 .001-1.436c.189-.19.445-.297.713-.297Zm-13.254-5.39c.177-.12 2.327-1.38 2.327-1.38 1.359 8.487 4.15 14.325 4.15 14.325l.242-3.26c-1.936-8.425-2.323-14.142-2.323-14.142l2.345-.953c.494 8.532 2.925 16.913 2.925 16.913l-.086-18.472 2.474-.411-.064 31.01c-1.958-2.772-3.937-9.29-3.937-9.29l-.848 5.596c-4.88-6.723-7.382-19.817-7.205-19.936"/><path d="M251.254 15.26c.024-.034 3.183-3.875-5.529-7.795v10.979s4.26-1.364 5.529-3.183Zm-4.066 4.981-1.613.629v7.535s2.151-2.534 2.926-4.612c0 0 .752-2.945-1.313-3.552Zm-16.219 24.902a10.224 10.224 0 0 0-.873-.1c.41-.94.873-1.838 1.373-2.718.196-.34-.286-.942-.713-1.211-1.444 1.05-2.826 2.431-4.082 3.912-.776.027-1.534.071-2.157.117-.375.026-.481.197-.517.538.398.402.818.783 1.257 1.14-.286.394-.571.789-.838 1.174-.285.324-.027.88.365 1.005.363-.571.74-1.134 1.132-1.686.953.664 2.023 1.184 2.968 1.121.247-.895.545-1.776.891-2.638.32.025.626.052.914.084l.28-.738Zm-5.356 1.21a4.41 4.41 0 0 1-.633-.547c.348-.036.722-.054 1.114-.072l-.481.62Zm2.085 1.221c-.374-.162-.909-.44-1.425-.772.267-.368.534-.735.819-1.094.446 0 .901.009 1.355.018-.267.61-.508 1.229-.749 1.848Zm1.07-2.567a23.507 23.507 0 0 0-1.114 0c.811-.986 1.666-1.91 2.567-2.718a22.18 22.18 0 0 0-1.453 2.718ZM233.26 47.404c-.062 0-.054-.09-.018-.207.089-.27.25-.565.393-.807.293-.512-.241-1.157-.402-1.157-.178 0-.963.556-1.64 1.318l.223-.511c.16-.413-.418-.754-.846-.897l.143.789a19.047 19.047 0 0 0-.423-.051l-.683 1.8c-.125.333.49.808.73.808l.143-.305c.455-.88 1.382-1.74 1.667-1.884a7.464 7.464 0 0 0-.731 1.417c-.125.35.454.772.588.772.259 0 1.242-.613 2.113-1.584l.667-1.759c-.439 1.013-1.79 2.258-1.924 2.258Z"/><path d="m230.969 45.142-.28.74c.146.015.289.031.423.05l-.143-.79Zm4.492-1.121c-.08.296.16.592.499.718.454-.144.9-.655.971-.915.063-.225-.142-.628-.508-.718-.4.098-.882.628-.962.915Zm.196 3.275c-.116 0-.009-.251.036-.36l.339-.897c.151-.385-.42-.753-.847-.897.106.207-.169.53-.071 1.005a7.33 7.33 0 0 1-.598.758l-.294.777c-.125.331.445.807.669.807.396 0 1.241-.804 2.002-1.67l.555-1.466c-.451.72-1.605 1.943-1.791 1.943Z"/><path d="m235.185 45.143-.002.002-.667 1.76c.216-.239.415-.492.597-.758-.098-.475.179-.798.072-1.004Zm7.37 2.018a3.76 3.76 0 0 1 .331-.58c-.441.492-.868.823-.973.823-.062 0-.053-.09-.017-.207a4.46 4.46 0 0 1 .392-.807c.293-.512-.241-1.158-.401-1.158-.197 0-1.079.638-1.792 1.49l.241-.593c.151-.412-.419-.915-.517-.915-.188 0-1.043.592-1.72 1.454l.276-.629c.16-.412-.419-.753-.847-.896l-.08.21.009-.013v.807c-.183.229-.371.453-.565.673l-.326.861c-.125.333.49.808.731.808.525-.888 1.247-1.794 1.827-2.189l-.58 1.435c-.151.368.686.745.847.745.374-.978 1.497-2.018 1.81-2.18a7.386 7.386 0 0 0-.732 1.418c-.124.349.455.77.589.77.196 0 .81-.353 1.475-.947a.579.579 0 0 1 .022-.38Z"/><path d="m237.457 45.34-.008.013-.556 1.467c.197-.225.389-.452.564-.673v-.807Zm8.654 1.956c-.116 0-.009-.251.036-.36l.338-.897c.152-.385-.418-.753-.847-.897l-.311.817c-.134-.476-.571-.799-.847-.799-.301 0-1.071.654-1.594 1.421.123-.136.246-.285.364-.443.214-.278.419-.466.518.01a7.818 7.818 0 0 1-1.235 1.393c.111.467.645.948.833.948.392 0 .945-.467 1.372-.978l-.062.17c-.125.332.446.808.668.808.397 0 1.244-.805 2.005-1.671l.561-1.477c-.446.719-1.612 1.955-1.799 1.955Zm-2.353.367c-.054-.134 0-.412.116-.61.294-.53.722-.969.989-.969.107 0 .25.225.295.332-.161.36-1.239 1.176-1.4 1.247"/><path d="M243.767 46.147c-.098-.475-.303-.287-.516-.008a7.165 7.165 0 0 1-.365.443 3.848 3.848 0 0 0-.331.58.585.585 0 0 0-.022.379c.422-.378.864-.85 1.234-1.394Zm4.688 1.149c-.116 0-.01-.251.035-.36l.998-2.628h.714c.151 0 .302-.431.231-.628h-.704l.214-.547c.151-.386-.339-.951-.766-1.095l-.633 1.642h-4.002c-.401 0-.606.367-.678.628h4.439l-.393 1.033.001-.002v.808c-.175.22-.366.447-.562.67l-.329.864c-.125.332.445.808.669.808.395 0 1.241-.803 2.001-1.67l.556-1.466c-.451.72-1.605 1.943-1.791 1.943Z"/><path d="M247.911 45.34v.002l-.562 1.476c.196-.224.387-.451.563-.67v-.808h-.001Zm2.691-1.32c-.08.297.161.593.499.719.455-.144.901-.655.972-.915.063-.225-.143-.628-.508-.718-.401.098-.883.628-.963.915Zm.945 2.854c.082-.218.218-.442.385-.655h-.001c-.277.305-.945 1.077-1.132 1.077-.116 0-.009-.251.035-.36l.339-.897c.152-.385-.419-.753-.847-.897l-.08.211.009-.013v.807c-.183.229-.371.453-.564.673l-.327.861c-.125.332.445.808.668.808.307 0 .883-.482 1.48-1.1a1.072 1.072 0 0 1 .035-.515Z"/><path d="m250.255 45.34-.009.013-.556 1.467c.197-.225.389-.452.565-.673v-.807Zm4.598 1.076.205-.322c.143-.216-.223-.754-.508-.664-.201.066-.388.17-.552.304-.054-.197-.277-.448-.553-.654-.5.153-1.104.615-1.513 1.139l.667-.072c-.344.43-.707.844-1.088 1.241.074.524.421 1.101.82 1.101.499 0 1.551-.7 2.059-1.292a4.17 4.17 0 0 0 1.259-.674l.412-1.089c-.213.444-.8.815-1.208.982Zm-1.292.79c-.348.287-.651.422-.864.538-.143-.144-.143-.574.187-.995.213-.279.463-.458.73-.593-.151.233-.231.467-.231.61 0 .234.062.368.178.44Z"/><path d="M251.932 46.219a2.564 2.564 0 0 0-.385.655 1.059 1.059 0 0 0-.035.514c.38-.397.743-.81 1.087-1.24l-.667.071Zm7.894.072c-.419.503-1.23 1.112-1.363 1.112-.063 0-.054-.09-.018-.206.089-.269.25-.565.392-.807.294-.512-.241-1.158-.401-1.158-.179 0-.963.556-1.64 1.319l.223-.512c.16-.412-.419-.753-.847-.897l-.111.292.04-.095v.773c-.138.15-.289.288-.452.41l-.44 1.16c-.124.331.491.807.732.807l.142-.305c.454-.88 1.381-1.74 1.667-1.884a7.335 7.335 0 0 0-.731 1.418c-.125.35.454.77.588.77.321 0 1.738-.986 2.228-1.488.267-.279.169-.548-.009-.71Z"/><path d="M256.101 46.111v-.771l-.039.094-.412 1.09c.17-.134.326-.272.451-.413Zm-11.845-5.428v-.597h.163v-.169h-.523v.169h.163v.596h.197Zm.667-.356-.154-.41h-.194l-.129.765h.196l.064-.44h.002l.174.44h.079l.182-.44h.002l.055.44h.198l-.115-.764h-.196l-.163.409h-.001Z"/></g><g fill="#fff" clip-path="url(#c)"><path d="M52.026 35.329c1.751.086 3.21-.739 4.585-1.65.255-.172.608-.419.492-.794-.115-.376-.237-.69-.608-.807-1.07.03-2.134.175-3.174.431-.285 0-.608.185-.863.031.194-.632.432-1.249.711-1.847l2.651-.074c.322-.05.663-.03.9-.308a2.75 2.75 0 0 0-.036-1.046c-.815-.431-1.989-.191-2.9-.228L53.685 29c.12-.442.262-.878.426-1.305 1.459-.037 2.736.049 4.043-.345a.416.416 0 0 0 .237-.394 2.315 2.315 0 0 0-.548-.936 2.276 2.276 0 0 0-.911-.578 19.07 19.07 0 0 0-4.159.344c-.699.191-1.55.068-2.177.462-.048.135.122.21.104.326.17.825 1.052.727 1.611.967-.353.616-.286 1.847-1.27 1.767-.56.295-.122.997-.104 1.447-.407.997-1.034 2.253-.39 3.355.137.303.34.571.592.784.252.213.55.366.868.447M30.054 34.935c.267-.105.644-.173.73-.517.103-2.494-.14-5.036-.274-7.585a2.13 2.13 0 0 0-.535-1.151c-.152-.105-.335-.259-.542-.154-.19.137-.328.337-.389.566a26.18 26.18 0 0 0-.219 8.324c.22.498.779.443 1.216.517M42.925 34.763a.9.9 0 0 0 .492-.567c.22-1.231.17-2.635.268-3.835-.02-.454.064-.907.243-1.324.797 1.114 1.216 2.407 1.982 3.522.547.615.906 1.563 1.788 1.668a2.28 2.28 0 0 0 1.143-.55c.323-.289.559-.664.68-1.081.32-1.27.364-2.595.128-3.884a9.091 9.091 0 0 0-1.495-3.578c-.39-.45-.779-1.14-1.411-1.188-.2.086-.219.289-.255.461.34 1.977 1.216 3.854 1.295 5.917.087.41.058.837-.085 1.231h-.104c-1.003-1.293-1.611-2.721-2.632-4.008-.444-.462-.748-1.12-1.344-1.41-.34-.154-.608.154-.797.394a14.04 14.04 0 0 0-1.088 4.113c0 1.342-.541 2.783.359 3.903a1.03 1.03 0 0 0 .833.259M33.805 34.036c1.781.985 4.554.997 6.25-.185 1.119-.615 1.119-2.031.967-3.115-.359-1.305-1.733-1.718-2.87-1.89-1.63-.135-3.295-.172-4.773-.69a.105.105 0 0 1 .003-.125.103.103 0 0 1 .034-.028c1.903-.69 4.195-.548 6.232-.825a2.848 2.848 0 0 0 1.374-.376c.212-.192.344-.458.37-.745-.097-.166-.267-.166-.407-.252-2.833-.776-6.45-.69-8.791 1.114a2.208 2.208 0 0 0-.493 1.927c.135.29.362.526.645.671 1.678.499 3.684.191 5.38.616.73.082 1.402.438 1.885.997a.586.586 0 0 1-.267.585 9.399 9.399 0 0 1-3.606.997c-.9-.049-2.085.259-2.748-.566a.542.542 0 0 1 .268-.671c1.495-.517 2.565 1.065 4.097.554.438-.154 1.083-.21 1.217-.776a5.617 5.617 0 0 0-2.627-.85c-1.216-.098-2.566-.307-3.417.653a1.566 1.566 0 0 0-.267 1.515 3.533 3.533 0 0 0 1.544 1.477M10.914 36.893c-.39-.585-.359-1.361-.51-2.044a15.08 15.08 0 0 1-6.251-5.11 1.514 1.514 0 0 1 .152-1.392c1.173-1.293 2.784-1.717 4.347-2.204l1.921-.357c.189-1.637.189-3.423.833-4.925.56-.123.815.548 1.1.893.493 1.12.31 2.598.511 3.749 2.651 0 5.4.105 7.473 1.7a2.246 2.246 0 0 1 .766 1.735 2.595 2.595 0 0 1-.561 1.056 2.554 2.554 0 0 1-.971.687 2.148 2.148 0 0 1-1.593-.277.618.618 0 0 1 .37-.413c.341-.24.834-.616.815-1.053a13.001 13.001 0 0 0-3.818-.997 21.062 21.062 0 0 0-2.547-.215l-.067.086c0 2.08.219 6.224.219 6.224 3.123.629 6.362.263 9.272-1.047 1.52-.825 2.735-2.407 2.565-4.18-.206-3.33-3.088-5.91-5.74-7.64-5.143-3.159-11.113-5.221-17.607-4.119-.176.086-.413.068-.51.24.267.308.845 0 1.118.376.085.104.256.209.152.345a2.533 2.533 0 0 1-2.14 0 .455.455 0 0 1-.188-.536c.137-.494.41-.94.787-1.283a2.68 2.68 0 0 1 1.34-.663c5.57-1.422 11.224.216 15.979 2.561 3.648 1.755 7.296 4.864 9.016 8.663.409 1.053.518 2.2.318 3.313a6.107 6.107 0 0 1-1.455 2.985c-2.122 2.216-4.864 3.078-7.812 3.33a21.452 21.452 0 0 1-5.199-.51c-.079.48-.067 1.083-.608 1.286-.51-.049-1.216.296-1.495-.24m-.609-3.694c.177-1.798.254-3.604.232-5.411-1.922.24-3.904.314-5.57 1.151a.536.536 0 0 0-.152.536 11.45 11.45 0 0 0 5.533 3.694M27.336 24.358a1.36 1.36 0 0 1-.304-1.391 2.779 2.779 0 0 1-.705-2.204c.291-1.429 1.629-2.525 2.85-3.177 1.223-.653 2.956-1.016 4.257-.296.211.177.396.385.547.616.284-.008.566.055.82.181.256.127.477.314.645.545a2.146 2.146 0 0 1-.103 2.167c-1.77 2.063-4.11 4.008-6.962 2.974-.225.259-.255.69-.644.776a.462.462 0 0 1-.426-.191m4.092-2.167c1.216-.363 2.748-.96 2.985-2.463a.935.935 0 0 0-.267-.615 1.263 1.263 0 0 0-1.003-.056 8.331 8.331 0 0 0-3.752 3.183 4.47 4.47 0 0 0 2.074-.05m-3.752-.738a30.615 30.615 0 0 1 2.463-2.58v-.086c-1.107.222-2.36 1.102-2.548 2.321l.085.345ZM56.951 41.16c.067-2.463.852-4.698 1.563-6.933l.359-.96c-1.466-2.808.559-5.695 2.432-7.863.182-.153.37-.357.608-.24.255.5-.067.98-.152 1.447-.779 1.496-1.934 2.888-1.885 4.71l.049.05c1.495-1.922 3.161-4.003 5.265-5.228a1.288 1.288 0 0 1 1.003 0 3.759 3.759 0 0 1 1.245 1.713c.244.68.289 1.417.13 2.123-.39 2.32-2.682 4.31-4.755 5.024a4.476 4.476 0 0 1-1.825.086 39.794 39.794 0 0 0-2.054 7.837c-.377.228-.718-.135-1.04-.308a2.348 2.348 0 0 1-.949-1.459m8.02-9.524c1.003-.893 1.63-2.149 1.216-3.503-.067-.142-.152-.296-.34-.277a18.337 18.337 0 0 0-3.612 4.863 4.992 4.992 0 0 0 2.736-1.083ZM103.323 29.868c0 1.342-.164 2.955 1.04 3.503a2.407 2.407 0 0 0 1.994 0c1.216-.69 1.07-2.093 1.07-3.318V16.638h2.159v13.045c0 1.638.243 3.922-2.08 5.073a5.719 5.719 0 0 1-4.566 0c-1.963-.941-1.775-2.832-1.775-4.26V16.638h2.158v13.23ZM115.818 17.26v-.622h2.158v18.37h-2.158V17.26ZM126.823 31.118c.516-1.318-.329-2.561-1.338-3.99l-1.149-1.588c-1.532-2.124-2.596-3.854-1.447-5.929.93-1.631 3.04-2.696 4.45-3.226l.906 1.52c-1.477.58-2.924 1.343-3.417 2.747-.407 1.126.274 2.191 1.314 3.638l1.307 1.804c1.775 2.555 2.572 3.916 1.125 6.292-.821 1.404-3.01 2.53-4.7 3.017l-.961-1.588c1.447-.511 3.308-1.152 3.91-2.672M140.247 30.071h-3.855v3.19h4.293v1.748H134.234V16.638h6.013v1.89h-3.855v9.82h3.855v1.723ZM185.555 16.638v18.371H192v-1.755h-4.286v-3.183h3.854v-1.724h-3.854v-9.82h3.854v-1.89h-6.013ZM164.901 17.26v-.622h2.159v18.37h-2.159V17.26ZM178.569 29.061v-2.025l-4.098-5.116v13.089h-2.158v-18.76l6.256 7.604v-7.24h2.159v18.396h-2.159V29.06ZM83.478 18.146c-3.976 1.76-5.672 4.974-5.648 7.819.055 2.684 1.538 5.67 5.57 7.616v1.846a9.948 9.948 0 0 1-4.917-2.702 10.145 10.145 0 0 1-2.708-4.956c-.657-3.263.523-7.567 4.742-10.25a14.844 14.844 0 0 1 2.961-1.275v1.902ZM88.701 35.009V16.244c2.736.615 5.794 2.58 7.023 5.578a7.23 7.23 0 0 1 .479 3.73 7.194 7.194 0 0 1-1.458 3.46 10.073 10.073 0 0 1-1.618 1.706l2.846 4.31H93.54l-2.268-3.294a1.209 1.209 0 0 1-.438.227v3.079l-2.134-.031Zm2.159-5.276A6.372 6.372 0 0 0 93 27.839a6.468 6.468 0 0 0 1.111-2.65c.25-1.748-.845-4.494-3.252-6.033v10.577ZM160.688 33.242v1.724h-5.964V16.638h2.152v16.604h3.812Z"/></g><defs><clipPath id="a"><path fill="#fff" d="M125 86h147v26H125z"/></clipPath><clipPath id="b"><path fill="#fff" d="M224 0h36v49h-36z"/></clipPath><clipPath id="c"><path fill="#fff" d="M0 15h192v28H0z"/></clipPath></defs></svg>