<svg xmlns="http://www.w3.org/2000/svg" fill="none" viewBox="0 0 269 126"><g fill="#fff" clip-path="url(#a)"><path d="M239.951 86C228.933 86 220 94.933 220 105.951s8.933 19.95 19.951 19.95 19.95-8.932 19.95-19.95c0-11.018-8.932-19.951-19.95-19.951Zm18.653 19.951c0 10.301-8.351 18.653-18.653 18.653-10.303 0-18.654-8.352-18.654-18.653 0-10.302 8.352-18.654 18.654-18.654 10.301 0 18.653 8.352 18.653 18.654Z"/><path d="M249.62 97.486c.271.291.662.76.881 1.045l4.04-2.564a26.597 26.597 0 0 0-.764-.948l-2.558 1.692-.175.15.13-.19 1.13-2.255-.799-.798-2.256 1.13-.19.13.152-.175 1.692-2.558a24.546 24.546 0 0 0-.949-.767l-2.564 4.037c.325.25.753.616 1.027.866l2.414-1.252.154-.114-.113.155-1.252 2.416ZM240.453 92.37l1.104-2.472.07-.22-.02.23.116 3.304c.387.036.787.09 1.182.156l-.18-4.894c-.551-.061-1.1-.105-1.649-.128l-1.088 2.7-.038.2-.039-.2-1.086-2.7c-.549.023-1.098.067-1.649.128l-.18 4.894c.394-.066.794-.119 1.181-.156l.116-3.305-.019-.228.07.219 1.104 2.473h1.005ZM231.525 96.27c.638-.671.999-1.448.361-2.19-.347-.402-.93-.49-1.413-.291l-.048.018.015-.042c.071-.191.117-.801-.402-1.222a1.204 1.204 0 0 0-.893-.249c-.6.061-1.061.47-2.316 1.87a30.33 30.33 0 0 0-1.261 1.52l3.448 3.27c1.142-1.264 1.608-1.734 2.509-2.683Zm-4.499-.8c.695-.849 1.433-1.62 1.767-1.924.106-.096.221-.193.36-.23.227-.062.46.099.513.33.053.234-.094.456-.257.639-.367.414-1.714 1.823-1.714 1.823l-.669-.637Zm1.351 1.282s1.311-1.387 1.739-1.83c.17-.176.279-.283.397-.34.151-.074.316-.09.464.009a.409.409 0 0 1 .176.432c-.043.198-.205.387-.339.531l-1.738 1.86-.699-.662Z"/><path d="M251.782 105.951h-11.831V94.12c6.538 0 11.831 5.292 11.831 11.831ZM239.951 105.951v11.831c-6.539 0-11.831-5.293-11.831-11.831h11.831Z"/><path fill-opacity=".2" d="M239.951 94.12v11.831H228.12c0-6.539 5.292-11.831 11.831-11.831ZM251.782 105.951c0 6.538-5.293 11.831-11.831 11.831v-11.831h11.831Z"/></g><path fill="#fff" d="M179.955 103.408c-.044-1.835-.966-3.59-2.545-4.412.609-.925 1.204-1.858 1.784-2.8.597 1.192 1.478 2.48 1.478 4.176a6.686 6.686 0 0 1-.717 3.036Zm-1.526 1.831a3.964 3.964 0 0 1-2.351.766c-1.188 0-2.199-.483-2.827-1.317 1.192-1.436 2.372-3.048 3.483-4.683 1.297.722 1.824 2.389 1.824 3.897 0 .467-.04.914-.129 1.337Zm-5.758-1.811a4.043 4.043 0 0 1-.097-.902c0-1.599 1.148-2.888 2.666-2.888.101 0 .201.003.294.011a70.28 70.28 0 0 1-2.864 3.778m-17.706 7.233c-.52 0-.757-.419-.757-1.185 0-2.477 2.223-7.671 5.791-10.723.394.646.572 1.468.575 2.326.015 4.093-3.769 9.582-5.609 9.582Zm-14.147 3.04c-.503 0-.757-.431-.757-1.165 0-3.199 5.485-13.663 8.244-13.663.519 0 .757.43.757 1.18 0 3.232-5.453 13.648-8.244 13.648Zm-7.997-10.931a9.965 9.965 0 0 0-2.162-1.763c1.876-3.822 3.958-7.433 6.564-10.185.886.906 1.365 2.142 1.365 3.622-.001 3.678-2.449 6.906-5.767 8.326Zm-10.382 17.768a7.076 7.076 0 0 1-1.977-.267c3.25-3.622 5.67-9.423 8.316-15.247 1.111.036 2.178-.099 3.125-.267.527 1.105.853 2.457.853 4.066.001 5.261-3.906 11.715-10.317 11.715Zm-4.329-1.563c-1.042-.97-1.558-2.222-1.546-3.264.009-.519.149-.997.375-1.412.334.727 1.147 1.277 2.134 1.277.37-.001.737-.074 1.079-.215-.668 1.352-1.341 2.573-2.042 3.614Zm7.003-17.298c0-.706.862-.83 1.78-.722-.33.61-.651 1.224-.962 1.843-.52-.319-.818-.714-.818-1.121Zm4.909.655c.365.3.699.637.995 1.005a9.14 9.14 0 0 1-1.555.191c.186-.399.371-.801.56-1.196Zm49.826-7.094c.62-.702 1.006-1.58 1.006-2.226 0-.438-.257-.718-.672-.718-.689 0-1.518.842-1.518 2.11 0 .18.023.356.056.531a121.861 121.861 0 0 1-2.444 3.663 4.68 4.68 0 0 0-.898-.088c-2.002 0-4.064 1.488-4.064 4.177 0 .729.129 1.372.351 1.926-1.715 1.935-3.222 3.188-4.241 3.188-.402 0-.644-.216-.644-.666 0-.483.238-1.249.709-2.314l5.884-12.913 6.354-.742.721-1.492-6.149.2 1.067-2.339-2.384.296-1.083 2.118-8.602.275-1.546 3.04 8.996-1.049-1.808 3.554c-.926-.41-2.046-.646-3.35-.646-1.969 0-3.798.483-5.445 1.3a5.634 5.634 0 0 0-2.444-.534c-2.079 0-4.43.99-6.343 2.725-.387-1.18-1.196-1.89-2.396-1.89-1.398 0-2.883.725-4.305 1.902-.85-.69-2.082-.89-3.374-.403.696-1.289 1.079-2.66 1.079-4.025 0-2.382-1.128-4.133-3.185-5.19a15.654 15.654 0 0 1 2.231-1.508c-.29-.228-.471-.367-.713-.499a20.24 20.24 0 0 0-2.904 1.448c-1.296-.41-2.842-.618-4.61-.618-8.211 0-15.979 4.695-15.979 10.496 0 2.561 1.461 3.474 2.907 3.474 1.349 0 2.67-.75 3.089-1.659-1.176-.24-1.873-1.249-1.873-2.53 0-4.515 5.525-8.469 11.195-8.469 1.269 0 2.368.236 3.27.666-3.443 2.625-6.085 6.2-8.267 10.021a6.234 6.234 0 0 0-.918-.071c-1.631 0-2.807.694-2.807 2.034 0 .91.6 1.692 1.514 2.258-1.345 2.781-2.529 5.565-3.66 8.099-.395-.77-1.289-1.273-2.328-1.273-2.497 0-4.373 2.178-4.373 4.871 0 1.759.721 3.439 1.961 4.783-1.172 1.296-2.453 2.067-3.951 2.102a2.627 2.627 0 0 1-1.389-.347c1.172-.127 2.134-.989 2.106-2.11-.029-1.121-.97-1.915-2.263-1.887-1.583.036-2.441 1.348-2.412 2.497.048 2.131 1.872 3.247 4.252 3.192 2.058-.048 3.826-.774 5.401-1.999 1.493.95 3.362 1.528 5.452 1.528 6.314 0 11.674-5.329 11.674-12.482 0-2.845-.741-5.095-1.844-6.818 2.05-.714 3.849-1.855 5.251-3.231 1.965-1.931 3.427-1.752 4.256-1.229-3.258 3.351-5.903 8.756-5.903 12.391 0 2.25.906 3.714 2.653 3.714 5.244 0 11.502-10.013 11.425-15.514 1.683-1.848 3.934-2.949 5.762-2.949.347 0 .661.04.947.116-4.096 2.868-6.649 7.775-6.649 11.549 0 2.003.991 3.518 2.924 3.518 3.608 0 8.307-5.565 8.307-11.118 0-1.703-.487-2.988-1.264-3.89 1.261-.742 2.646-1.192 4.131-1.192.862 0 1.764.2 2.574.55l-3.613 7.097c-.841 1.732-1.167 3.016-1.167 3.946 0 1.436.845 2.17 2.195 2.17 1.956 0 4.268-1.803 6.571-4.38.995 1.221 2.546 1.767 3.83 1.767.407 0 .825-.04 1.249-.116-.971 1.213-2.586 2.126-4.954 2.713l-31.357 7.767c-4.764 1.177-7.676 3.507-6.271 7.967 1.088-.886 3.045-1.752 8.103-3.28l28.466-8.597c4.164-1.26 6.806-4.216 7.933-7.201 1.942-.929 3.665-2.712 3.665-5.189 0-2.733-2.312-4.365-3.153-6.347Z"/><g clip-path="url(#b)"><mask id="c" width="70" height="30" x="5" y="91" maskUnits="userSpaceOnUse" style="mask-type:luminance"><path fill="#fff" d="M5 91.425h70v29.15H5v-29.15Z"/></mask><g mask="url(#c)"><path fill="#fff" d="M50.169 105.545c-.483-.374-1.072-.695-1.66-.801.482-.161.963-.375 1.337-.696.483-.375.91-.802 1.179-1.283.267-.429.481-.91.695-1.605.161-.587.267-1.176.267-1.712 0-.534-.106-1.07-.267-1.604-.16-.535-.481-.963-.962-1.338-.43-.375-.91-.535-1.5-.535-.482 0-1.017.215-1.338.535-.428.375-.641.857-.641 1.338 0 .587.16 1.124.481 1.497.321.375.803.588 1.445.588.587 0 .91-.213 1.124-.374.107-.054.213-.16.267-.16.214 0 .268.268.268.375 0 .588-.268 1.069-.856 1.496-.588.322-1.124.589-1.767.75a9.409 9.409 0 0 1-1.177.267l-.642.161c-.374.106-.803.214-1.177.321-.321.106-.589.16-.91.266-.429.108-.856.215-1.231.429-.643.268-1.124.588-1.445.963-.375.427-.588.962-.588 1.605 0 .641.16.962.428.962.267 0 .481-.214.75-.481.533-.535 1.23-.803 2.032-.803.697 0 1.232.16 1.767.482.48.321.856.802 1.177 1.443.267.643.428 1.23.428 1.819 0 .535-.107 1.07-.268 1.765a8.113 8.113 0 0 1-.642 1.713c-.213.373-.535.962-.963 1.55-.321.481-.75.91-1.178 1.391-.374.427-.856.855-1.284 1.284-.428.427-.857.748-1.338 1.175-.427.375-1.016.642-1.284.642-.321 0-.803-.212-1.337-.641-.483-.375-.858-.75-1.339-1.176a24.85 24.85 0 0 1-1.178-1.232c-.16-.16-.267-.32-.428-.427-.318-.325-.621-.665-.909-1.016a11.15 11.15 0 0 1-1.018-1.55c-.32-.537-.535-1.072-.75-1.659-.32-.588-.373-1.176-.373-1.765 0-.643.107-1.23.375-1.819.267-.641.695-1.07 1.177-1.444.482-.321 1.07-.481 1.767-.481.535 0 .908.054 1.283.213.322.107.75.322 1.07.696.161.214.322.321.535.321.322 0 .537-.375.537-.856 0-.909-.59-1.658-1.178-2.246l-1.07-1.07c-.215-.16-.375-.375-.589-.588-.642-.642-1.017-1.124-1.285-1.659-.213-.427-.321-.855-.428-1.337a6.164 6.164 0 0 1-.16-1.39c0-.641.107-1.284.267-1.873.214-.587.481-1.175.803-1.603.374-.535.856-.91 1.337-1.23a3.372 3.372 0 0 1 1.766-.482c.537 0 1.232.053 1.82.267a3.047 3.047 0 0 1 1.445 1.123c.322.428.482 1.07.482 1.82 0 .802-.482 1.712-1.124 1.712-.428 0-.642-.697-.909-.964-.267-.321-.589-.535-1.231-.535-.589 0-.963.214-1.392.695-.32.375-.482.91-.482 1.551 0 .803.267 1.391.803 1.873.536.481 1.125.748 1.927.748.803 0 1.338-.107 1.819-.267.589-.268 1.125-.588 1.552-1.07.375-.375.697-.909.963-1.605.215-.588.375-1.176.375-1.765.01-.6-.08-1.196-.268-1.765a4.01 4.01 0 0 0-.962-1.498c-.375-.32-.857-.695-1.553-.962a6.552 6.552 0 0 0-1.711-.481 9.593 9.593 0 0 0-1.82-.16c-.641 0-1.23.106-1.819.212-.75.108-1.285.269-1.766.483-.589.267-1.125.535-1.605.908a4.88 4.88 0 0 0-1.285 1.284c-.375.481-.642 1.016-.856 1.659a5.983 5.983 0 0 0-.322 1.871c0 .643.108 1.284.322 1.925.213.535.535 1.07.962 1.659.429.535.91.962 1.393 1.337.427.32.91.642 1.391.909a6.586 6.586 0 0 0-1.445 0c-.642.054-1.178.214-1.659.375-.515.224-1 .511-1.445.855-.482.321-.856.75-1.177 1.178a5.571 5.571 0 0 0-.75 1.497c0 .481-.16 1.069-.16 1.711 0 .535.053 1.124.213 1.713.108.534.322 1.122.59 1.657.213.482.534.963.855 1.498.322.481.643.962 1.018 1.39.321.375.695.75 1.07 1.07.428.427 1.016.909 1.499 1.284.481.375 1.016.748 1.551 1.07.482.266.964.587 1.392.801.588.267 1.177.429 1.66.589a5.096 5.096 0 0 0 1.712.321c.587 0 1.123-.16 1.712-.321.535-.16 1.07-.375 1.605-.642.483-.213.963-.535 1.499-.856a15.76 15.76 0 0 0 1.391-.962c.429-.322.91-.695 1.338-1.07.428-.428.857-.909 1.231-1.39.321-.375.696-.803.962-1.232.323-.481.537-1.016.75-1.55.215-.482.43-1.016.59-1.605.16-.587.16-1.176.16-1.712 0-.695-.16-1.39-.428-2.031-.375-.75-.75-1.284-1.284-1.713h-.001Zm-25.046 12.89V93.19a.708.708 0 0 0-.697-.695h-2.3a.709.709 0 0 0-.696.695v10.59H8.746V93.19a.708.708 0 0 0-.696-.695H5.696A.709.709 0 0 0 5 93.19v25.245c0 .375.321.696.696.696h2.3a.709.709 0 0 0 .697-.696v-10.964h12.63v10.964c0 .375.32.696.696.696h2.3c.482.053.803-.267.803-.696Zm45.863-6.952c0 2.032-1.391 4.011-4.227 4.011H59.8v-8.023h6.957c2.783 0 4.228 1.925 4.228 4.012h.001Zm-1.07-11.608c0 1.925-1.177 3.744-3.8 3.744h-6.262v-7.434h6.262c2.569 0 3.8 1.818 3.8 3.69Zm1.284 5.401c1.766-1.23 2.73-3.637 2.73-5.562 0-4.279-3.05-7.22-7.546-7.22h-9.9a.594.594 0 0 0-.589.587v25.513c0 .322.267.589.587.589h10.17c5.566 0 8.402-3.209 8.402-7.702-.054-3.422-1.927-5.455-3.854-6.203v-.002Z"/></g></g><g fill="#fff" clip-path="url(#d)"><path d="M237.676 22.196h-3.277c-.79 0-1.395.198-2.02.916l-4.629 5.307v-6.223h-4.548V38.1c.001.24.097.469.267.638.17.17.401.265.641.266h3.636V31.38l4.008 6.233c.598.93 1.191 1.39 2.554 1.39h3.734l-6.376-9.916 6.01-6.89ZM218.452 22.196h-10.12v15.302c0 .837.826 1.508 1.706 1.508h8.414a.913.913 0 0 0 .909-.905v-2.173h-5.805a.682.682 0 0 1-.682-.685v-3.536h5.174v-3.07h-5.174v-3.363h6.487v-2.166a.913.913 0 0 0-.909-.905M250.425 22.196h-10.121v15.302c0 .837.827 1.508 1.706 1.508h8.415a.913.913 0 0 0 .909-.905v-2.173h-5.806a.691.691 0 0 1-.681-.686v-3.535h5.175v-3.07h-5.175v-3.363h6.487v-2.166a.908.908 0 0 0-.909-.905M186.01 22.196h-4.548V38.1a.91.91 0 0 0 .91.904h3.635l.003-16.807ZM176.419 22.196h-10.124v15.302c0 .873.834 1.508 1.708 1.508h8.416a.907.907 0 0 0 .908-.905v-2.173h-5.809a.686.686 0 0 1-.681-.685v-3.536h5.174v-3.07h-5.171v-3.363h6.487v-2.166a.907.907 0 0 0-.908-.905M161.707 22.196h-4.548v6.444h-3.969v-6.444h-5.273v.661a1.198 1.198 0 0 1 .726 1.127V39h4.547v-7.29h3.975V39h4.547l-.005-16.804ZM203.741 22.196V38.1a.914.914 0 0 1-.908.904h-2.789l-6.135-9.631c.084.597.127 1.199.127 1.801v7.83h-3.396V22.196h2.205c1.125 0 1.943.462 2.531 1.384.501.781 5.139 8.043 5.139 8.043s-.167-.495-.167-1.82v-7.607h3.393ZM269 22.196v.661a1.227 1.227 0 0 0-.721 1.127v14.113a.902.902 0 0 1-.904.903h-2.785l-6.136-9.63c.084.596.127 1.198.127 1.8V39h-3.396V22.196h2.205c1.123 0 1.943.462 2.531 1.384.501.781 5.138 8.043 5.138 8.043s-.166-.495-.166-1.82v-7.607H269Z"/><path d="M139.451 28.315a.276.276 0 0 1-.451-.13.273.273 0 0 1 .013-.183c.124-.373 2.407-7.371 2.407-7.371l-6.3-4.555a.27.27 0 0 1-.119-.139.272.272 0 0 1 .107-.328.278.278 0 0 1 .179-.043h7.787s2.286-6.991 2.406-7.367a.277.277 0 0 1 .445-.158.27.27 0 0 1 .095.158l2.408 7.366h7.786a.275.275 0 0 1 .166.51l-3.757 2.719h-4.446l-1.378-4.205-1.378 4.205h-4.437l3.598 2.604-1.378 4.205-3.753 2.712Z"/></g><mask id="e" width="110" height="40" x="0" y="0" maskUnits="userSpaceOnUse" style="mask-type:luminance"><path fill="#fff" d="M109.516 0H0v39.24h109.516V0Z"/></mask><g mask="url(#e)"><path fill="#fff" d="M30.273 29.637c-.064 0 0-.255 0-.51v-.699c0-.636-.318-.954-.954-.954h-.89c-.637 0-.955.318-.955.954v9.604c0 .636.318.954.954.954h1.018c.636 0 .954-.318.954-.954v-4.198c0-1.908.954-4.007 2.989-4.007 1.335 0 1.526 1.082 1.526 2.29v5.915c0 .636.318.954.954.954h1.018c.636 0 .954-.318.954-.954v-4.198c0-2.035 1.017-4.007 2.925-4.007 1.336 0 1.59 1.018 1.59 2.29v5.915c0 .636.318.954.954.954h.954c.636 0 .954-.318.954-.954v-6.424c0-3.053-1.399-4.388-3.752-4.388-1.78 0-3.307 1.145-3.943 2.353h-.064c-.445-1.59-1.653-2.353-3.37-2.353-1.845 0-3.244 1.272-3.816 2.417Zm-17.108 8.395v-14.12c0-.635-.318-.953-.954-.953h-1.018c-.636 0-.954.318-.954.954v5.724c-1.144.636-2.29.954-3.561.954-1.336 0-2.608-.382-3.816-1.082v-5.532c0-.637-.318-.954-.954-.954H.954c-.636 0-.954.317-.954.954v14.182c0 .636.318.954.954.954h1.018c.636 0 .954-.318.954-.954v-5.851c1.208.572 2.48.89 3.815.89a8.752 8.752 0 0 0 3.562-.763v5.724c0 .636.318.954.954.954h1.017c.573-.127.89-.445.89-1.081Zm10.62-4.77c0 2.162-1.59 3.625-3.434 3.625s-3.434-1.463-3.434-3.625c0-2.099 1.526-3.625 3.434-3.625 1.908 0 3.435 1.462 3.435 3.625Zm-3.434-6.042c-3.497 0-6.36 2.48-6.36 6.042 0 3.561 2.799 6.042 6.36 6.042 3.562 0 6.36-2.48 6.36-6.042s-2.862-6.042-6.36-6.042Zm23.15-10.62c-1.654 2.098-4.325 3.306-7.186 3.306-2.862 0-5.533-1.272-7.187-3.307a1.026 1.026 0 0 1-.19-.572c0-.191.126-.382.254-.51a.722.722 0 0 1 .508-.19c.255 0 .445.127.573.318 1.399 1.717 3.625 2.735 5.978 2.735 2.353 0 4.579-1.018 5.978-2.735a.759.759 0 0 1 .572-.318c.191 0 .319.064.51.19.19.128.254.319.254.51.127.254.063.445-.064.572Zm4.58-5.152c0-.382-.192-.7-.446-.954L37.205.382c-.19-.255-.572-.382-.89-.382-.382 0-.7.127-.954.382l-3.944 3.815v-.636c0-.7-.572-1.335-1.335-1.335h-1.463c-.7 0-1.335.572-1.335 1.335v4.643l-2.354 2.353a1.294 1.294 0 0 0-.381.954c0 .7.572 1.336 1.335 1.336h1.4v8.776c0 .7.572 1.336 1.335 1.336h15.455c.699 0 1.335-.572 1.335-1.336v-8.776h1.463c.636-.064 1.208-.636 1.208-1.4Zm.508 21.178c-.127-1.526.636-2.798 2.035-3.18 1.272-.318 2.417.318 2.926 1.844-.7-.063-1.527 0-2.48.255-1.018.19-1.845.572-2.481 1.08Zm8.459 4.134c.381-.382.381-.89 0-1.336l-.446-.318c-.445-.445-.636-.445-1.144-.064-.446.446-1.273 1.273-2.29 1.527-1.972.509-3.562-.318-4.261-2.226.954.127 2.29.064 3.816-.382 1.653-.445 2.798-1.017 3.37-1.717.255-.254.382-.636.318-.954-.826-3.052-3.18-4.833-6.36-4.006-3.37.89-5.024 3.943-4.07 7.377.827 3.18 3.88 5.215 7.569 4.197 1.717-.445 2.861-1.462 3.498-2.098Zm3.752-9.604c0-1.08.954-1.78 2.417-1.78 1.271 0 2.098.508 2.798.89.445.254.954.318 1.272-.318l.381-.763c.255-.509.191-.954-.318-1.272-.7-.509-2.226-1.209-4.133-1.209-3.053 0-5.406 1.845-5.406 4.643 0 5.024 7.504 4.388 7.504 7.441 0 1.081-.89 1.845-2.416 1.845-1.59 0-2.735-.827-3.244-1.145-.572-.318-.954-.318-1.336.19l-.445.637c-.445.636-.254 1.017.127 1.335.764.636 2.672 1.654 4.961 1.654 3.37 0 5.342-2.163 5.342-4.77 0-5.152-7.504-4.325-7.504-7.378ZM76.89 31.8c-.636-.254-1.526-.382-2.48-.318-1.018.064-1.908.254-2.608.572.191-1.526 1.209-2.607 2.671-2.67 1.336-.064 2.29.826 2.417 2.416Zm2.926.636c-.128-3.18-2.1-5.406-5.343-5.279-3.434.128-5.724 2.735-5.596 6.297.127 3.243 2.607 5.914 6.423 5.787 1.78-.064 3.116-.827 3.88-1.336.508-.318.572-.763.254-1.272l-.318-.445c-.318-.508-.572-.636-1.081-.318-.509.382-1.463.954-2.544 1.018-2.035.063-3.434-1.081-3.689-3.116.954.381 2.226.508 3.816.445 1.717-.064 2.926-.445 3.689-.89.318-.191.509-.51.509-.891Zm7.758-3.244v-.89c0-.636-.254-.954-.89-.954-1.653 0-2.925 1.526-3.37 2.926h-.064s.064-.382.064-.764v-1.08c0-.637-.318-.955-.954-.955h-.89c-.637 0-.955.318-.955.954v9.604c0 .636.318.954.954.954h1.018c.636 0 .954-.318.954-.954v-3.689c0-2.099 1.017-4.198 3.116-4.198.7 0 1.017-.317 1.017-.953Zm11.512-.636c.254-.636-.064-1.08-.763-1.08H97.24c-.572 0-.89.254-1.08.762l-2.163 6.36c-.255.7-.382 1.718-.382 1.718h-.063s-.191-1.082-.445-1.718l-2.163-6.36c-.127-.572-.509-.763-1.08-.763h-1.082c-.7 0-.954.445-.763 1.081l3.498 9.667c.127.573.508.764 1.08.764h1.781c.573 0 .89-.255 1.082-.764l3.625-9.667Zm7.568 3.244c-.636-.254-1.526-.382-2.48-.318-1.018.064-1.908.254-2.608.572.191-1.526 1.208-2.607 2.671-2.67 1.272-.064 2.29.826 2.417 2.416Zm2.862.636c-.127-3.18-2.099-5.406-5.342-5.279-3.435.128-5.724 2.735-5.597 6.297.127 3.243 2.608 5.914 6.423 5.787 1.781-.064 3.117-.827 3.88-1.336.509-.318.572-.763.254-1.272l-.318-.445c-.318-.508-.572-.636-1.081-.318-.509.382-1.463.954-2.544 1.018-2.035.063-3.434-1.081-3.688-3.116.953.381 2.225.508 3.815.445 1.718-.064 2.926-.445 3.689-.89.318-.191.509-.51.509-.891Z"/></g><path fill="#fff" d="M107.925 22.705c.891 0 1.59.7 1.59 1.653 0 .89-.699 1.654-1.59 1.654-.89 0-1.59-.764-1.59-1.654 0-.954.7-1.653 1.59-1.653Zm0 2.862c.7 0 1.209-.573 1.209-1.273 0-.699-.509-1.271-1.209-1.271-.699 0-1.208.572-1.208 1.271 0 .7.509 1.273 1.208 1.273Zm-.572-1.908c0-.128.064-.191.191-.191h.509c.318 0 .508.19.508.509 0 .254-.19.381-.254.445l.064.063.19.382c.064.127 0 .19-.063.19h-.064c-.127 0-.191-.063-.191-.127l-.19-.445h-.191v.445c0 .128-.064.191-.191.191s-.191-.063-.191-.19v-1.272h-.127Zm.572.572c.128 0 .255-.064.255-.254 0-.128-.064-.255-.255-.255h-.19v.509h.19Z"/><defs><clipPath id="a"><path fill="#fff" d="M220 86h40v40h-40z"/></clipPath><clipPath id="b"><path fill="#fff" d="M5 91h70v30H5z"/></clipPath><clipPath id="d"><path fill="#fff" d="M135 8h134v31H135z"/></clipPath></defs></svg>