<svg width="215" height="50" viewBox="0 0 215 50" fill="none" xmlns="http://www.w3.org/2000/svg">
<path d="M96.8792 19.9922C99.8489 20.0388 99.9537 17.9309 99.9537 17.5C99.9537 16.5334 99.418 15.0311 96.8792 14.4138V19.9922ZM96.8792 14.1693C98.2651 13.8082 99.4064 13.0512 99.4064 11.5606C99.4064 10.1048 98.2767 9.48758 96.8792 9.35947V14.1693ZM97.4149 8.26475C100.629 8.26475 101.514 10.2911 101.514 11.4557C101.514 12.9814 100.466 13.7384 99.8023 14.2391C101.06 14.9961 102.12 16.1491 102.12 17.5815C102.12 19.0023 100.955 20.3067 99.9188 20.6677C99.1967 20.9239 98.2418 21.1452 97.3916 21.1335L94.4685 21.0986C94.911 19.7127 94.9692 18.1755 94.9692 17.4301V11.6421C94.9692 9.31289 94.6897 8.68401 94.5267 8.26475H97.4149ZM107.943 8.26475C107.698 9.02174 107.465 9.7205 107.465 11.6654V17.5932C107.465 19.0489 107.57 19.7943 107.943 21.1452H105.043C105.299 20.3416 105.544 19.5963 105.544 17.4534V11.316C105.544 9.86025 105.369 9.04503 105.043 8.26475H107.943ZM121.382 10.6988C120.625 10.3028 119.566 9.76708 118.04 9.76708C115.175 9.76708 113.16 11.8983 113.16 14.7632C113.16 17.3952 114.872 19.6545 117.9 19.6545C119.88 19.6545 120.986 18.7927 121.697 18.2686L121.592 20.2601C120.765 20.6677 119.6 21.2384 117.574 21.2384C112.578 21.2384 111.122 17.2904 111.122 14.9728C111.122 11.5373 114.01 8.13665 118.622 8.13665C119.961 8.13665 120.753 8.41615 121.382 8.63742V10.6988ZM131.421 8.26475L130.443 10.2562C128.999 9.60404 128.242 9.42935 126.891 9.48758V13.9829H130.92L129.826 15.788C128.347 15.3571 127.869 15.2873 126.891 15.2174V19.9224C128.545 19.9224 129.453 19.9224 132.178 18.9907L131.235 21.1335H124.492C124.713 20.3766 124.969 19.4682 124.969 17.8261V11.5256C124.969 10.6522 124.853 9.38276 124.492 8.26475H131.421ZM140.866 10.7337C140.295 10.2911 139.573 9.7205 138.432 9.7205C137.314 9.7205 136.441 10.4425 136.441 11.4557C136.441 12.6786 137.524 13.3075 139.131 14.2391C140.982 15.2989 141.495 16.3121 141.495 17.5466C141.495 19.6778 139.829 21.2151 137.139 21.2151C136.126 21.2151 135.52 21.0404 134.927 20.8773V18.1522C135.509 18.8276 136.266 19.7127 137.454 19.7127C138.572 19.7127 139.375 18.816 139.375 17.9076C139.375 17.0109 138.677 16.4519 138.292 16.2073C135.544 14.4953 134.449 13.8082 134.449 11.8517C134.449 9.81366 136.149 8.125 138.257 8.125C139.422 8.125 140.249 8.48602 140.866 8.74224V10.7337ZM154.026 8.2764L153.129 10.2562C151.72 9.68556 151.254 9.5691 149.764 9.5691V18.0707C149.764 19.0955 149.845 20.1436 150.125 21.1452H147.504C147.691 20.3416 147.865 19.3983 147.865 17.861V9.5691C147.003 9.55745 146.246 9.55745 143.766 10.4425L144.453 8.2764H154.026ZM163.75 8.26475L162.772 10.2562C161.328 9.60404 160.571 9.42935 159.22 9.48758V13.9829H163.25L162.155 15.788C160.676 15.3571 160.198 15.2873 159.22 15.2174V19.9224C160.862 19.9224 161.782 19.9224 164.507 18.9907L163.564 21.1335H156.821C157.042 20.3766 157.298 19.4682 157.298 17.8261V11.5256C157.298 10.6522 157.182 9.38276 156.821 8.26475H163.75ZM169.76 14.9961C170.982 14.6584 172.939 14.0994 172.939 12.1312C172.939 11.1646 172.333 9.62733 169.76 9.37112V14.9961ZM167.85 10.955C167.85 9.44099 167.64 8.74224 167.5 8.29969L170.004 8.26475C173.312 8.21817 174.884 10.2096 174.884 11.9332C174.884 14.0295 173.032 15.0543 172.45 15.3688C173.603 17.3952 175.175 19.3051 176.712 21.1335H174.942C173.207 19.6429 172.415 18.7112 169.76 15.1825V18.3618C169.76 19.3634 169.783 19.771 170.121 21.1452H167.512C167.791 19.8758 167.861 18.9325 167.861 17.8144V10.955H167.85ZM96.8792 28.8665C96.7744 29.2391 96.7627 29.3789 96.7627 29.5536C96.7627 30.0543 97.0189 31.0443 97.3101 31.8245L99.9887 38.6374L102.749 32.0458C103.028 31.382 103.366 30.427 103.366 29.7166C103.366 29.5303 103.354 29.3439 103.215 28.8781L106.557 28.9247C105.823 29.7865 105.299 30.7648 104.857 31.8245L100.652 41.8284H99.1967L95.5748 32.5233C95.4234 32.1273 94.9692 31.1025 94.5849 30.3106C94.189 29.5186 94.0376 29.3207 93.6416 28.8665H96.8792ZM112.229 28.8665C111.984 29.6234 111.751 30.3222 111.751 32.2671V38.1949C111.751 39.6506 111.856 40.396 112.229 41.7469H109.329C109.585 40.9433 109.829 40.198 109.829 38.0551V31.9293C109.829 30.4736 109.655 29.6584 109.329 28.8781H112.229V28.8665ZM122.256 41.7352H115.967C116.293 40.9084 116.479 40.4193 116.479 37.6009V31.9177C116.479 30.066 116.235 29.4488 116.037 28.8781H118.925C118.669 29.5419 118.448 30.1359 118.424 32.0342L118.354 40.4309C120.66 40.2213 121.941 39.8603 123.316 39.3129L122.256 41.7352ZM132.551 41.7352H126.262C126.588 40.9084 126.774 40.4193 126.774 37.6009V31.9177C126.774 30.066 126.53 29.4488 126.332 28.8781H129.22C128.964 29.5419 128.743 30.1359 128.719 32.0342L128.649 40.4309C130.955 40.2213 132.236 39.8603 133.611 39.3129L132.551 41.7352ZM140.808 36.2267H143.929L142.438 32.7795L140.808 36.2267ZM146.945 38.2182C147.877 40.2213 148.471 41.0831 148.96 41.7352H145.897C145.897 41.1646 145.827 40.5124 145.361 39.4643L144.604 37.729H140.086L139.434 39.1149C139.212 39.5924 138.711 40.7104 138.781 41.7236H135.637C136.068 41.2228 136.441 40.757 137.512 38.6491L142.473 28.7966H142.578L146.945 38.2182ZM161.223 31.3005C160.361 30.8579 158.975 30.1359 157.135 30.1359C154.958 30.1359 152.5 31.7314 152.5 35.1786C152.5 37.9969 154.41 40.2562 157.718 40.2562C158.882 40.2562 159.383 40.0466 159.989 39.8137V38.3929C159.989 36.4014 159.616 35.889 159.127 35.2368H162.271C162.132 35.6328 161.91 36.2151 161.91 37.4728V38.9984C161.91 39.8603 161.91 40.1165 162.155 40.9899C161.281 41.3276 160.012 41.8284 157.636 41.8284C151.848 41.8284 150.532 38.0202 150.532 35.5745C150.532 33.9441 151.079 32.2787 152.151 31.0093C153.525 29.3556 155.156 28.7267 157.881 28.7267C159.441 28.7267 160.443 28.9713 161.223 29.1576V31.3005ZM172.555 28.8665L171.576 30.8579C170.132 30.2057 169.375 30.0311 168.024 30.0893V34.5846H172.054L170.959 36.3898C169.48 35.9589 169.003 35.889 168.024 35.8191V40.5241C169.678 40.5241 170.586 40.5241 173.312 39.5924L172.368 41.7352H165.625C165.847 40.9783 166.103 40.0699 166.103 38.4278V32.1273C166.103 31.2539 165.986 29.9845 165.625 28.8665H172.555Z" fill="white"/>
<path fill-rule="evenodd" clip-rule="evenodd" d="M62.093 1.12573C48.9097 1.12573 38.2188 11.8167 38.2188 25C38.2188 38.1832 48.9097 48.8742 62.093 48.8742C75.2762 48.8742 85.9672 38.1832 85.9672 25C85.9672 11.8167 75.2762 1.12573 62.093 1.12573ZM62.0932 46.7548C50.0978 46.7548 40.3385 36.9955 40.3385 25.0001C40.3385 13.0048 50.0978 3.24548 62.0932 3.24548C74.0885 3.24548 83.8478 13.0048 83.8478 25.0001C83.8478 36.9955 74.0885 46.7548 62.0932 46.7548ZM62.0932 2.36039C49.6087 2.36039 39.4534 12.5157 39.4534 25.0001C39.4534 37.4846 49.6087 47.6399 62.0932 47.6399C74.5776 47.6399 84.7329 37.4846 84.7329 25.0001C84.7329 12.5157 74.5776 2.36039 62.0932 2.36039ZM59.193 23.5093C57.0735 22.927 55.7808 22.0769 53.8475 20.0505C54.7559 22.8455 56.6542 24.3245 59.228 25.198L59.193 23.5093ZM59.7637 14.6933C57.2598 15.4736 55.2101 16.5334 53.2536 18.3735C54.162 15.427 56.7823 14.0179 59.7637 14.6933ZM57.2947 21.7741C60.5556 22.6941 63.3856 20.7259 63.0246 17.5699C62.0579 16.4519 60.6837 16.021 58.669 16.3936C60.4857 16.3471 61.7901 17.5349 62.2676 18.9558C61.8483 19.4915 61.2544 19.9806 60.4508 20.4348C58.8553 20.1553 58.1682 19.7477 57.3879 19.177C58.0401 18.618 59.2746 18.0474 60.6954 17.9426C58.8553 17.5 57.2249 17.7446 55.9322 18.3967C56.4562 19.6196 57.5277 20.528 58.8902 21.1685C58.4128 21.3781 57.877 21.5761 57.2947 21.7741ZM63.8747 21.7857C64.853 18.2337 64.6084 16.5334 62.3142 14.2042C65.5168 15.4037 67.2288 18.0939 63.8747 21.7857ZM60.4392 24.1615C62.2326 24.0101 64.1076 23.1716 65.0742 22.0419C64.7831 24.5691 62.2792 25.3261 60.4392 24.1615ZM52.252 29.0761C51.3437 28.7267 50.7031 28.2958 50.2839 27.993C49.6433 27.5388 49.4687 26.9099 50.1092 26.3276C50.6915 25.7686 51.0874 25.1048 51.0292 24.5109C52.6597 26.1646 54.3017 27.1662 56.759 27.8766C52.6946 25.2329 51.1573 22.9387 50.016 20.0272C49.655 19.0955 49.7132 18.455 50.2606 18.059C51.1107 17.4534 51.926 16.4519 52.6014 14.8913C51.9609 15.5318 51.5999 15.7298 51.0642 15.9162C51.4912 15.4357 51.8457 14.917 52.1888 14.4148C52.4445 14.0406 52.6939 13.6756 52.9624 13.3424C53.5797 12.5621 54.325 11.9565 55.6294 11.9682C57.0851 11.9915 58.7039 12.1079 60.311 12.4107C59.812 12.1412 59.3557 11.9316 58.8542 11.7012L58.8536 11.701C58.7701 11.6626 58.6854 11.6237 58.5991 11.5839C58.4943 10.0349 60.1597 9.94178 60.9283 10.5939C61.9065 11.4325 62.978 11.9565 64.2823 12.1662C66.3553 12.4922 67.7994 14.2275 66.8328 14.7865C66.5079 14.9693 66.2262 15.1166 65.9467 15.2629L65.9467 15.2629L65.9462 15.2631C65.745 15.3684 65.5449 15.4731 65.3305 15.5901C65.7674 15.5743 66.1875 15.5238 66.5825 15.4763C67.6508 15.3478 68.5363 15.2413 69.0805 15.9045C69.8258 16.8129 70.3382 17.9775 70.1752 18.979C70.0704 19.6312 69.6977 20.1902 69.0805 20.5047C68.7893 20.6561 68.4865 21.087 68.8242 21.2733C68.867 21.2983 68.9162 21.3265 68.97 21.3574C69.3414 21.5701 69.9294 21.907 70.082 22.1817C70.2567 22.4961 70.2916 22.8339 70.0121 23.1949C69.4415 23.9286 68.8359 25.2562 68.4399 26.7236C68.1488 27.7717 67.1472 28.4356 65.8079 28.0745C63.9446 27.5621 62.3025 26.7353 60.9283 25.4891C61.1612 26.153 61.6503 26.8284 62.419 27.3758C62.7567 27.6203 62.7683 28.3773 61.9997 28.4938C60.8002 28.6801 59.6705 29.4837 58.9135 30.462C58.0284 31.5916 56.7474 31.6731 55.6527 30.7997C54.4881 29.8564 53.4982 28.8199 52.9042 27.5621C52.8592 27.7283 52.8626 27.9592 52.866 28.1929C52.874 28.7455 52.8822 29.3134 52.252 29.0761ZM69.884 27.271C70.4547 25.7104 71.1651 24.5808 72.8305 24.2663C72.0152 23.9635 71.2117 24.1033 70.5595 24.8719C71.4493 23.1978 72.7005 23.3402 73.8545 23.4714C74.4828 23.5429 75.0822 23.6111 75.5789 23.3812C74.8219 25.92 72.8421 27.3408 69.884 27.271ZM52.0347 31.5119C53.3668 31.4552 54.8461 31.3924 55.8506 32.8494C55.1635 32.2438 54.5579 31.9992 53.3701 32.1273C55.0354 32.4301 55.6527 32.9891 55.9555 34.2702C53.4749 34.6662 50.8312 33.5016 50.1674 31.382C50.6924 31.5689 51.3438 31.5412 52.0347 31.5119ZM63.5953 28.2492C63.374 37.4029 49.5735 39.569 45.6023 29.0527C49.3988 43.7616 65.5401 38.3812 63.5953 28.2492ZM65.5751 36.3664C66.7513 36.4013 67.7063 36.7391 68.3701 37.7756C66.4602 36.8322 65.3305 36.9254 64.1776 37.6125C65.5751 39.5807 68.4167 40.1863 70.513 38.6374C70.0077 38.4743 69.6248 38.0326 69.2189 37.5644C68.4365 36.6619 67.5687 35.661 65.5751 36.3664ZM74.2634 30.2524C71.2587 29.1227 68.5569 29.4372 65.9482 31.3937C68.6617 27.3758 74.1003 27.3758 78.6073 31.8362C77.2838 31.8264 76.5628 32.2953 75.4368 33.0275C75.2252 33.165 74.9994 33.3119 74.7525 33.4667C71.678 35.3882 68.9295 35.5629 65.5871 34.0606C64.3061 35.0039 63.223 36.25 62.4427 37.962C63.4093 31.8246 69.8729 29.8914 74.2634 30.2524Z" fill="white"/>
</svg>
