<svg width="61" height="60" viewBox="0 0 61 60" fill="none" xmlns="http://www.w3.org/2000/svg">
<g clip-path="url(#clip0_681_69)">
<path d="M30.0711 0C13.5438 0 0.14502 13.3988 0.14502 29.9261C0.14502 46.4534 13.5438 59.8522 30.0711 59.8522C46.5984 59.8522 59.9972 46.4534 59.9972 29.9261C59.9972 13.3988 46.5984 0 30.0711 0ZM58.0512 29.9261C58.0512 45.3783 45.5251 57.9062 30.0711 57.9062C14.6172 57.9062 2.09106 45.3783 2.09106 29.9261C2.09106 14.4739 14.6189 1.94604 30.0711 1.94604C45.5233 1.94604 58.0512 14.4739 58.0512 29.9261Z" fill="white"/>
<path d="M44.5748 17.2293C44.9813 17.6656 45.5672 18.3694 45.8963 18.797L51.9561 14.9507C51.6534 14.5548 51.1713 13.953 50.8106 13.529L46.9731 16.0662L46.7109 16.2914L46.9062 16.0064L48.6007 12.6246L47.4024 11.4263L44.0188 13.1208L43.7338 13.3161L43.9608 13.0539L46.4998 9.21812C46.0529 8.83806 45.6235 8.48967 45.0763 8.06738L41.23 14.1219C41.7174 14.4967 42.3596 15.0474 42.7696 15.4222L46.3907 13.543L46.6229 13.3724L46.4523 13.6046L44.5748 17.2293Z" fill="white"/>
<path d="M30.824 9.55599L32.4797 5.8469L32.5853 5.51787L32.5554 5.86098L32.7296 10.8176C33.3102 10.8721 33.9102 10.9531 34.5014 11.0516L34.2322 3.71083C33.4052 3.61934 32.5818 3.55423 31.7583 3.51904L30.1272 7.56772L30.0692 7.8686L30.0111 7.56772L28.3818 3.51904C27.5583 3.55423 26.7349 3.61934 25.9079 3.71083L25.6387 11.0516C26.2299 10.9531 26.8299 10.8739 27.4105 10.8176L27.5847 5.86098L27.5548 5.51787L27.6604 5.8469L29.3161 9.55599H30.824Z" fill="white"/>
<path d="M17.4325 15.4065C18.3896 14.3983 18.9316 13.2335 17.9744 12.1215C17.4536 11.5179 16.5791 11.386 15.8542 11.6833L15.782 11.7115L15.8049 11.6481C15.9122 11.3613 15.9808 10.4464 15.2014 9.81471C14.8213 9.50679 14.3445 9.39242 13.8624 9.44169C12.9632 9.53318 12.2718 10.1473 10.3891 12.2464C9.82073 12.8798 8.99375 13.8792 8.49756 14.5267L13.6688 19.4323C15.3826 17.5355 16.0811 16.83 17.4325 15.4065ZM10.6847 14.2065C11.7263 12.9326 12.833 11.7766 13.3345 11.3191C13.4929 11.1748 13.6653 11.0305 13.8747 10.9742C14.2143 10.881 14.5644 11.122 14.6436 11.4704C14.7228 11.8206 14.5028 12.1531 14.2583 12.4276C13.7075 13.0487 11.6876 15.1619 11.6876 15.1619L10.6847 14.2065ZM12.7099 16.1279C12.7099 16.1279 14.677 14.0481 15.3193 13.383C15.5744 13.1191 15.738 12.959 15.914 12.8728C16.141 12.7619 16.3891 12.739 16.6108 12.8868C16.8289 13.0329 16.9292 13.2845 16.8747 13.5344C16.8096 13.8317 16.5668 14.115 16.3662 14.3314C16.0952 14.6217 13.7621 17.1185 13.7586 17.122L12.7099 16.1279Z" fill="white"/>
<path d="M47.8179 29.9261H30.0713V12.1794C39.8789 12.1794 47.8179 20.1184 47.8179 29.9261Z" fill="white"/>
<path d="M30.0713 29.926V47.6727C20.2637 47.6727 12.3247 39.7337 12.3247 29.926H30.0713Z" fill="white"/>
<path d="M30.0713 12.1794V29.9261H12.3247C12.3247 20.1184 20.2637 12.1794 30.0713 12.1794Z" fill="white" fill-opacity="0.2"/>
<path d="M47.8179 29.926C47.8179 39.7337 39.8789 47.6727 30.0713 47.6727V29.926H47.8179Z" fill="white" fill-opacity="0.2"/>
</g>
<defs>
<clipPath id="clip0_681_69">
<rect width="60" height="60" fill="white" transform="translate(0.14502)"/>
</clipPath>
</defs>
</svg>
