<svg width="161" height="38" viewBox="0 0 161 38" fill="none" xmlns="http://www.w3.org/2000/svg">
<g clip-path="url(#clip0_681_91)">
<path d="M122.742 17.4351H118.83C117.887 17.4351 117.164 17.672 116.417 18.5342C115.67 19.3964 110.89 24.9037 110.89 24.9037V17.4351H105.46V36.5221C105.462 36.8092 105.576 37.0843 105.779 37.2874C105.983 37.4904 106.258 37.6051 106.545 37.6064H110.885V28.4578L115.672 35.9379C116.386 37.0552 117.094 37.6064 118.721 37.6064H123.18L115.567 25.705L122.742 17.4351Z" fill="white"/>
<path d="M99.7886 17.4351H87.7046V35.7997C87.7046 36.8051 88.6918 37.6097 89.7416 37.6097H99.7886C100.076 37.6088 100.352 37.4941 100.556 37.2906C100.759 37.0872 100.874 36.8114 100.875 36.5237V33.9157H93.9424C93.7256 33.9135 93.5185 33.8259 93.366 33.6718C93.2135 33.5178 93.1279 33.3098 93.1279 33.093V28.8494H99.3065V25.1653H93.1279V21.129H100.875V18.5293C100.874 18.2415 100.759 17.9658 100.556 17.7623C100.352 17.5588 100.076 17.4442 99.7886 17.4433" fill="white"/>
<path d="M137.966 17.4351H125.88V35.7997C125.88 36.8051 126.868 37.6097 127.917 37.6097H137.966C138.254 37.6088 138.529 37.4941 138.732 37.2905C138.936 37.087 139.05 36.8113 139.05 36.5237V33.9157H132.118C131.902 33.9131 131.695 33.8253 131.543 33.6713C131.391 33.5173 131.305 33.3095 131.305 33.093V28.8494H137.484V25.1653H131.305V21.129H139.05V18.5293C139.05 18.2417 138.936 17.9659 138.732 17.7624C138.529 17.5589 138.254 17.4442 137.966 17.4433" fill="white"/>
<path d="M61.052 17.4351H55.6221V36.5221C55.6238 36.8094 55.7388 37.0844 55.9422 37.2875C56.1455 37.4905 56.4207 37.6051 56.7081 37.6064H61.0487L61.052 17.4351Z" fill="white"/>
<path d="M49.6 17.4351H37.5127V35.7997C37.5127 36.8478 38.5082 37.6097 39.5514 37.6097H49.6C49.8875 37.6084 50.1628 37.4935 50.3659 37.2901C50.569 37.0866 50.6835 36.8112 50.6844 36.5237V33.9157H43.7489C43.5324 33.9131 43.3257 33.8253 43.1735 33.6713C43.0213 33.5173 42.936 33.3095 42.936 33.093V28.8494H49.113V25.1653H42.9393V21.129H50.6844V18.5293C50.6835 18.2418 50.569 17.9663 50.3659 17.7629C50.1628 17.5595 49.8875 17.4446 49.6 17.4433" fill="white"/>
<path d="M32.0332 17.4351H26.6033V25.1686H21.8644V17.4351H15.5674V18.2282C15.8304 18.3414 16.0535 18.5306 16.208 18.7717C16.3625 19.0127 16.4414 19.2945 16.4345 19.5807V37.6031H21.8644V28.8527H26.6099V37.6031H32.0398L32.0332 17.4351Z" fill="white"/>
<path d="M82.2237 17.4351V36.5221C82.2224 36.8092 82.1077 37.0843 81.9046 37.2874C81.7016 37.4904 81.4265 37.6051 81.1393 37.6064H77.809L70.4835 26.0472C70.5845 26.7635 70.6351 27.486 70.6349 28.2093V37.6064H66.5806V17.4351H69.2133C70.5559 17.4351 71.5333 17.9896 72.2359 19.0953C72.8332 20.0332 78.3717 28.749 78.3717 28.749C78.3717 28.749 78.1726 28.155 78.1726 26.5639V17.4351H82.2237Z" fill="white"/>
<path d="M160.145 17.4351V18.2282C159.886 18.3457 159.666 18.5362 159.513 18.7764C159.361 19.0166 159.281 19.296 159.284 19.5807V36.5188C159.284 36.8055 159.171 37.0806 158.968 37.2838C158.766 37.487 158.492 37.6018 158.205 37.6031H154.879L147.552 26.0439C147.653 26.7602 147.704 27.4827 147.704 28.206V37.6031H143.649V17.4351H146.282C147.623 17.4351 148.602 17.9896 149.305 19.0953C149.902 20.0332 155.439 28.749 155.439 28.749C155.439 28.749 155.241 28.155 155.241 26.5639V17.4351H160.145Z" fill="white"/>
<path d="M5.45932 24.7788C5.40361 24.8297 5.33213 24.8598 5.25684 24.8643C5.18156 24.8687 5.10703 24.8471 5.04574 24.8032C4.98445 24.7592 4.94011 24.6956 4.92015 24.6229C4.90018 24.5501 4.90581 24.4727 4.93607 24.4037C5.08416 23.9561 7.81064 15.5562 7.81064 15.5562L0.287732 10.0901C0.222527 10.0523 0.17225 9.99333 0.145303 9.92297C0.118355 9.85261 0.116368 9.77513 0.139674 9.70348C0.16298 9.63183 0.210166 9.57034 0.273351 9.5293C0.336536 9.48825 0.411892 9.47013 0.486829 9.47797H9.78516C9.78516 9.47797 12.5149 1.08627 12.6581 0.635425C12.6732 0.561033 12.7135 0.49415 12.7723 0.44611C12.8311 0.39807 12.9047 0.371826 12.9806 0.371826C13.0565 0.371826 13.1301 0.39807 13.1888 0.44611C13.2476 0.49415 13.288 0.561033 13.3031 0.635425C13.4479 1.08463 16.1777 9.47632 16.1777 9.47632C16.1777 9.47632 25.0021 9.47632 25.4743 9.47632C25.5493 9.46849 25.6246 9.48661 25.6878 9.52765C25.751 9.5687 25.7982 9.63018 25.8215 9.70183C25.8448 9.77348 25.8428 9.85096 25.8159 9.92132C25.7889 9.99169 25.7386 10.0507 25.6734 10.0884L21.1863 13.3513H15.8782L14.2328 8.30478L12.5873 13.3513H7.28904L11.5853 16.4776L9.93983 21.5242L5.45932 24.7788Z" fill="white"/>
</g>
<defs>
<clipPath id="clip0_681_91">
<rect width="160" height="37.2065" fill="white" transform="translate(0.144531 0.396729)"/>
</clipPath>
</defs>
</svg>
