<svg width="141" height="42" viewBox="0 0 141 42" fill="none" xmlns="http://www.w3.org/2000/svg">
<g clip-path="url(#clip0_681_26)">
<path d="M9.98535 19.5464V0.917969H14.6903V8.26223H24.7504V0.917969H29.7232V19.5464H24.8268V11.3606H14.6903V19.5464H9.98535Z" fill="white"/>
<path d="M38.5648 19.5464H33.8599V0.917969H38.5648V19.5464Z" fill="white"/>
<path d="M40.3594 0.917969H60.5561V4.01633H53.0207V19.5464H48.1246V4.01633H40.3977V0.917969H40.3594Z" fill="white"/>
<path d="M56.3535 19.5464L64.9982 0.917969H71.0801L79.8015 19.5464H74.4463L72.725 15.6065H63.4683L61.8998 19.5464H56.3535ZM71.6158 12.5081L68.1349 4.13108L64.5775 12.5081H71.6158Z" fill="white"/>
<path d="M102.676 19.5464V0.917969H107.572V8.26223H117.632V0.917969H122.414V19.5464H117.709V11.3606H107.572V19.5464H102.676Z" fill="white"/>
<path d="M131.211 19.5464H126.506V0.917969H131.211V19.5464Z" fill="white"/>
<path d="M94.8678 7.19123C94.9061 5.24041 93.7203 3.40434 89.8186 3.3661C84.7695 3.32784 84.2723 7.84151 84.2723 10.2513C84.234 15.4535 86.4527 16.9836 90.0865 17.0601C93.6439 17.1366 94.9061 14.8415 94.8678 12.8907H100.108C99.8789 17.5574 96.7039 19.8907 90.0865 19.9672C82.2068 20.0437 78.8022 15.7213 78.8022 10.2513C78.8022 4.81965 82.1301 0.344238 89.857 0.344238C95.3652 0.344238 99.6494 2.52457 99.8789 7.19123H94.8678Z" fill="white"/>
<path d="M5.78254 36.4154H3.21969C3.21969 36.4154 3.21969 27.8852 3.21969 27.3115C3.21969 26.7377 3.41096 25.8963 1.8044 25.8963H1.30713V25.2459C1.30713 25.2459 4.86451 25.093 5.8208 24.7869L5.78254 36.4154Z" fill="white"/>
<path d="M103.06 36.4915H100.689C100.689 36.4915 100.689 27.9616 100.689 27.3879C100.689 26.8141 100.88 25.7046 99.2735 25.7046H98.7764V25.0544C98.7764 25.0544 103.022 25.0544 104.017 25.0544L109.793 33.661V25.0544H112.164V36.5299H109.257L103.137 27.5407L103.06 36.4915Z" fill="white"/>
<path d="M77.5432 36.4918H75.3246C75.3246 36.4918 75.3246 27.6941 75.3246 27.082C75.3246 26.6613 75.516 25.6666 74.3684 25.6666H73.8711V24.9016C73.8711 24.9016 76.5869 24.7486 77.5432 24.4426V29.9508C77.5432 29.9508 78.5377 28.2295 80.6033 28.2295C82.6688 28.2295 83.1279 29.7977 83.1279 30.8305C83.1279 31.8633 83.1279 36.4918 83.1279 36.4918H81.0242V30.7924C81.0242 30.7924 80.9094 29.7596 79.7619 29.7596C78.6143 29.7596 77.5816 30.9453 77.5816 31.8633C77.5816 32.8197 77.5432 36.4918 77.5432 36.4918Z" fill="white"/>
<path d="M8.34066 29.4151L8.26416 28.8032C8.26416 28.8032 11.5155 28.3823 11.898 28.2676V29.9508C11.898 29.9508 13.0456 28.2676 15.0347 28.2676C17.0237 28.2676 17.4827 29.8741 17.4827 30.4098C17.4827 30.9069 17.4827 36.4918 17.4827 36.4918H15.2642C15.2642 36.4918 15.2642 30.8305 15.2642 30.5246C15.2642 30.2184 14.9964 29.6065 14.1166 29.6065C13.2368 29.6065 11.9746 31.0983 11.9746 31.7485C11.9746 32.4371 11.9746 36.4534 11.9746 36.4534H9.67947C9.67947 36.4534 9.67947 30.7922 9.67947 30.2567C9.67947 29.7977 9.75596 29.4151 8.34066 29.4151Z" fill="white"/>
<path d="M25.678 30.2951V28.4973C25.678 28.4973 24.1098 28.2295 23.1917 28.2295C22.2738 28.2295 20.1699 28.6504 20.1699 30.6012C20.1699 33.1639 24.3776 33.2022 24.3776 34.694C24.3776 35.9563 22.006 35.9947 20.4377 34.8852C20.3229 34.8088 20.1699 34.8852 20.1699 34.8852V36.4918C20.1699 36.4918 21.4705 36.7596 22.7328 36.7596C23.995 36.7596 26.3284 36.3389 26.3284 34.2734C26.3284 31.7869 22.006 31.2131 22.006 30.0656C21.9677 28.8799 24.4924 29.1475 25.678 30.2951Z" fill="white"/>
<path d="M28.9261 30.4479C28.9261 29.9508 28.8114 29.4534 27.396 29.4534V28.7649C27.396 28.7649 30.7239 28.459 31.0298 28.2676V29.3387H31.3741C31.3741 29.3387 31.8331 28.3059 33.5163 28.3059C35.1993 28.3059 36.9589 29.3004 36.9589 32.3987C36.9589 35.4971 35.5819 36.7213 33.5163 36.7213C31.4507 36.7213 31.336 35.8797 31.336 35.8797H30.9917V39.9725H28.9261V30.4479ZM31.1065 32.743C31.1065 34.9616 32.0245 35.5737 32.8278 35.5737C33.6691 35.5737 34.6255 35.0381 34.6255 32.3223C34.6255 29.6065 33.2868 29.4918 32.8278 29.4918C31.9097 29.4534 31.1065 30.5246 31.1065 32.743Z" fill="white"/>
<path d="M40.0223 30.3334C40.0223 29.836 39.9842 29.4534 38.5308 29.4534V28.8416C38.5308 28.8416 41.782 28.4207 42.1646 28.3059V29.9891V36.4918H40.0223V30.3334Z" fill="white"/>
<path d="M42.4633 26.0108C42.4633 26.661 41.8512 27.1967 41.1246 27.1967C40.3977 27.1967 39.7856 26.661 39.7856 26.0108C39.7856 25.3606 40.3977 24.825 41.1246 24.825C41.8895 24.825 42.4633 25.3606 42.4633 26.0108Z" fill="white"/>
<path d="M45.9061 36.4537V30.4098C45.9061 29.9127 45.7914 29.4154 44.376 29.4154V28.7268C44.376 28.7268 47.7038 28.4209 48.01 28.2295V29.6832H48.2012C48.2012 29.6832 48.8897 28.2295 50.4198 28.2295C51.07 28.2295 51.5291 28.3061 51.5291 28.3061V30.3334C51.5291 30.3334 50.917 29.9891 50.3815 29.9891C49.8461 29.9891 48.1248 30.5629 48.1248 31.9016C48.1248 33.2787 48.1248 36.4537 48.1248 36.4537H45.9061Z" fill="white"/>
<path d="M122.337 28.3826V29.0711C122.337 29.0711 123.37 29.0328 123.79 29.4535C124.211 29.8744 125.894 32.1311 125.894 32.1311L123.637 34.7705H126.124L127.08 33.8141L129.222 36.5682H131.823L125.665 28.3826H122.337Z" fill="white"/>
<path d="M58.1823 30.7922H54.9308C54.9308 30.7922 55.0456 29.1092 56.6138 29.1092C58.1439 29.1475 58.1823 30.7922 58.1823 30.7922ZM56.5374 28.1912C55.1603 28.1912 52.4443 28.4207 52.4443 32.2076C52.4443 36.0328 55.3898 36.7977 57.3407 36.7977C59.2915 36.7977 60.1331 36.2623 60.1331 36.2623V35.0764C60.1331 35.0764 59.2915 35.5354 58.1823 35.5354C55.0456 35.5354 54.8544 31.7485 54.8544 31.7485H60.3243C60.3626 28.4971 57.9525 28.1912 56.5374 28.1912Z" fill="white"/>
<path d="M90.9677 30.7922H87.7162C87.7162 30.7922 87.831 29.1092 89.3995 29.1092C90.9294 29.1475 90.9677 30.7922 90.9677 30.7922ZM89.3228 28.1912C87.9458 28.1912 85.23 28.4207 85.23 32.2076C85.23 36.0328 88.1753 36.7977 90.1261 36.7977C92.0769 36.7977 92.9185 36.2623 92.9185 36.2623V35.0764C92.9185 35.0764 92.0769 35.5354 90.9677 35.5354C87.831 35.5354 87.6398 31.7485 87.6398 31.7485H93.1097C93.148 28.4971 90.7382 28.1912 89.3228 28.1912Z" fill="white"/>
<path d="M119.925 30.7922H116.636C116.636 30.7922 116.789 29.1092 118.319 29.1092C119.849 29.1475 119.925 30.7922 119.925 30.7922ZM118.28 28.1912C116.903 28.1912 114.188 28.4207 114.188 32.2076C114.188 36.0328 117.133 36.7977 119.084 36.7977C121.034 36.7977 121.876 36.2623 121.876 36.2623V35.0764C121.876 35.0764 121.034 35.5354 119.925 35.5354C116.789 35.5354 116.597 31.7485 116.597 31.7485H122.067C122.067 28.4971 119.657 28.1912 118.28 28.1912Z" fill="white"/>
<path d="M66.6812 29.3769V28.4208H68.2111V25.9343H70.3914V28.4208H72.8779V29.3769H70.3914C70.3914 29.3769 70.3914 34.5028 70.3914 34.8851C70.3914 35.4589 71.0799 35.612 72.61 35.612C72.61 35.8032 72.61 36.5684 72.61 36.5684C72.61 36.5684 72.1127 36.7979 70.9652 36.7979C69.8176 36.7979 68.0963 36.6448 68.0963 35.0766C68.0963 33.5081 68.0963 29.3769 68.0963 29.3769H66.6812Z" fill="white"/>
<path d="M132.817 29.3769V28.4208H134.347V25.9343H136.528V28.4208H139.014V29.3769H136.528C136.528 29.3769 136.528 34.5028 136.528 34.8851C136.528 35.4589 137.216 35.612 138.746 35.612C138.746 35.8032 138.746 36.5684 138.746 36.5684C138.746 36.5684 138.249 36.7979 137.101 36.7979C135.954 36.7979 134.233 36.6448 134.233 35.0766C134.233 33.5081 134.233 29.3769 134.233 29.3769H132.817Z" fill="white"/>
<path d="M127.806 30.9838L129.718 28.4209H132.128L129.871 30.9838H127.806Z" fill="white"/>
<path d="M134.729 22.53H137.292L134.347 25.9345H131.822L134.729 22.53Z" fill="white"/>
</g>
<defs>
<clipPath id="clip0_681_26">
<rect width="140" height="41.3115" fill="white" transform="translate(0.159668 0.344238)"/>
</clipPath>
</defs>
</svg>
