<svg width="191" height="22" viewBox="0 0 191 22" fill="none" xmlns="http://www.w3.org/2000/svg">
<g clip-path="url(#clip0_681_85)">
<mask id="mask0_681_85" style="mask-type:luminance" maskUnits="userSpaceOnUse" x="0" y="0" width="191" height="22">
<path d="M0.776367 0.568604H190.754V21.4314H0.776367V0.568604Z" fill="white"/>
</mask>
<g mask="url(#mask0_681_85)">
<path fill-rule="evenodd" clip-rule="evenodd" d="M105.161 10.0626C105.593 10.1647 105.998 10.3599 106.346 10.6341L106.332 10.6513C106.721 10.9642 107.024 11.3718 107.212 11.8345C107.402 12.295 107.499 12.7882 107.498 13.2867C107.508 13.696 107.471 14.1052 107.389 14.5064C107.287 14.8998 107.149 15.2827 106.975 15.6501C106.824 16.0293 106.643 16.396 106.435 16.7469C106.229 17.0584 106.002 17.3564 105.758 17.6388C105.485 17.986 105.194 18.3183 104.884 18.6335C104.584 18.9092 104.269 19.1685 103.941 19.4106C103.62 19.661 103.285 19.8938 102.938 20.1081C102.596 20.3286 102.242 20.529 101.876 20.7086C101.507 20.8897 101.125 21.0424 100.733 21.1653C100.341 21.2962 99.9321 21.3722 99.519 21.3911C99.1005 21.38 98.6865 21.301 98.2933 21.1572C98.2218 21.1316 98.15 21.1068 98.078 21.0826C97.7544 20.9778 97.4363 20.8567 97.125 20.7198C96.7785 20.5484 96.4432 20.3584 96.1191 20.1483C95.7421 19.9173 95.3792 19.6625 95.0305 19.3995C94.6631 19.1166 94.3095 18.8163 93.971 18.4994C93.702 18.261 93.4464 18.0061 93.205 17.7394C92.9464 17.418 92.708 17.0808 92.4912 16.7298C92.2567 16.3911 92.0484 16.0349 91.8683 15.6643C91.6955 15.2879 91.5605 14.8953 91.4652 14.4923C91.3676 14.0896 91.3169 13.6771 91.314 13.2628C91.3244 12.8605 91.3982 12.4626 91.5315 12.0833C91.6463 11.6981 91.8221 11.333 92.0509 11.003C92.2931 10.6768 92.5821 10.3881 92.9085 10.1461C93.2289 9.90021 93.5821 9.70053 93.9568 9.55076C94.3352 9.41104 94.7298 9.31991 95.1311 9.27954C95.471 9.24497 95.8135 9.24497 96.1534 9.27954C95.8048 9.08291 95.4672 8.86725 95.1423 8.63354C94.774 8.35511 94.4403 8.03368 94.1483 7.67609C93.8428 7.32699 93.6037 6.92499 93.4427 6.4899C93.2848 6.05183 93.2036 5.5898 93.2028 5.12413C93.2125 4.2244 93.5053 3.35057 94.0395 2.62656C94.3041 2.27403 94.6177 1.96114 94.9709 1.69743C95.3231 1.43609 95.7072 1.22076 96.1139 1.05664C96.5211 0.898185 96.9443 0.78451 97.3761 0.717623C97.8043 0.629827 98.2393 0.57996 98.6763 0.568604C99.1084 0.575309 99.5391 0.615545 99.9646 0.688564C100.386 0.755623 100.798 0.875584 101.19 1.04621C101.601 1.20778 101.977 1.44541 102.299 1.7466C102.61 2.04464 102.851 2.40974 103.002 2.81507C103.151 3.21892 103.223 3.64735 103.212 4.07802C103.209 4.51035 103.124 4.93816 102.961 5.33872C102.814 5.7571 102.582 6.14027 102.279 6.46382C101.962 6.78913 101.582 7.04601 101.162 7.2186C100.744 7.37454 100.299 7.44547 99.8528 7.42723C99.601 7.43869 99.3494 7.39964 99.113 7.31237C98.8765 7.22509 98.6599 7.09137 98.4759 6.91907C98.2899 6.74972 98.1426 6.54224 98.0441 6.31078C97.9456 6.07933 97.8982 5.82935 97.9051 5.5779C97.8883 5.1845 98.0072 4.79727 98.2419 4.48111C98.3515 4.32232 98.4985 4.19288 98.6699 4.10415C98.8412 4.01542 99.0317 3.97011 99.2247 3.97221C99.3861 3.96003 99.5481 3.98661 99.6971 4.04973C99.8462 4.11285 99.978 4.21068 100.082 4.33507C100.13 4.39245 100.175 4.47366 100.225 4.55935C100.345 4.7717 100.484 5.01535 100.713 5.01535C101.167 5.01535 101.522 4.36115 101.522 3.78966C101.54 3.33603 101.422 2.88735 101.184 2.50064C100.931 2.13644 100.573 1.85666 100.159 1.69743C99.7436 1.55719 99.306 1.49406 98.8678 1.51115C98.4309 1.5133 98.0019 1.62773 97.622 1.84347C97.2435 2.05954 96.9126 2.35162 96.6504 2.70033C96.3881 3.05053 96.1877 3.44543 96.0595 3.86343C95.9315 4.29589 95.867 4.74466 95.868 5.19566C95.8701 5.52372 95.9084 5.85055 95.982 6.17025C96.0424 6.49288 96.1385 6.80805 96.2681 7.11056C96.4991 7.55688 96.8054 7.95998 97.1734 8.30272C97.2748 8.41002 97.388 8.51805 97.4983 8.62311L97.5877 8.70805C97.8559 8.96809 98.1108 9.21696 98.3388 9.46507C98.7448 9.89947 99.1703 10.4337 99.1703 11.0655C99.1703 11.4314 99.0101 11.6862 98.7992 11.6862C98.7212 11.6793 98.6458 11.6546 98.5789 11.6139C98.5119 11.5732 98.4553 11.5176 98.4133 11.4515C98.2054 11.2198 97.9421 11.0447 97.648 10.9426C97.3561 10.8369 97.0463 10.7893 96.7361 10.8025C96.2953 10.7886 95.8606 10.9072 95.488 11.143C95.1077 11.3894 94.8094 11.7435 94.6311 12.1601C94.4502 12.5667 94.3575 13.007 94.3592 13.4521C94.3637 13.8887 94.4359 14.3216 94.5738 14.7352C94.7079 15.1517 94.886 15.5518 95.105 15.9295C95.3219 16.3118 95.5648 16.6776 95.8337 17.0248C96.0357 17.2782 96.2517 17.5203 96.479 17.7506L96.7361 18.0732C96.8478 18.185 96.9514 18.2945 97.0564 18.4048C97.2211 18.5791 97.3895 18.7557 97.5937 18.9479C97.9275 19.2624 98.1935 19.5023 98.5422 19.7877C98.8067 20.0291 99.1345 20.1885 99.4877 20.2481C99.8305 20.1806 100.149 20.0226 100.41 19.7906C100.765 19.5023 101.053 19.2504 101.362 18.9539C101.67 18.6559 101.97 18.3533 102.276 18.0277C102.581 17.7014 102.893 17.3676 103.133 17.039C103.385 16.6866 103.611 16.317 103.81 15.9325C104.011 15.5488 104.171 15.145 104.284 14.727C104.413 14.3134 104.483 13.885 104.493 13.4521C104.484 13.0056 104.379 12.5661 104.187 12.1631C104.02 11.7419 103.732 11.3798 103.358 11.1229C102.982 10.8785 102.541 10.7522 102.093 10.7601C101.828 10.7534 101.565 10.8007 101.32 10.8989C101.074 10.9972 100.851 11.1444 100.664 11.3315L100.646 11.3509C100.49 11.5126 100.339 11.6691 100.142 11.6691C99.9362 11.6691 99.8185 11.4373 99.8185 10.9769C99.8093 10.5534 99.9663 10.1431 100.256 9.8339C100.551 9.53586 100.901 9.29743 101.287 9.13351C101.574 9.01429 101.871 8.91817 102.173 8.84813C102.39 8.79076 102.61 8.72519 102.827 8.65962L102.889 8.641C103.289 8.51801 103.696 8.41653 104.107 8.337L104.214 8.31464C104.464 8.26249 104.714 8.20958 104.964 8.14178C105.39 8.02921 105.793 7.84584 106.158 7.59935C106.345 7.49237 106.502 7.33829 106.612 7.15233C106.721 6.96638 106.781 6.75499 106.784 6.53907C106.784 6.42731 106.761 6.25296 106.604 6.25296C106.529 6.2662 106.459 6.30088 106.404 6.3528C106.181 6.52766 105.904 6.61866 105.621 6.60986C105.433 6.61925 105.245 6.5873 105.07 6.51625C104.895 6.4452 104.738 6.33677 104.61 6.19856C104.378 5.89622 104.259 5.52195 104.276 5.14127C104.28 4.96101 104.321 4.78352 104.397 4.61984C104.472 4.45615 104.581 4.30977 104.715 4.18978C104.979 3.94297 105.326 3.80507 105.687 3.80382C106.082 3.79786 106.465 3.93794 106.764 4.195C107.075 4.45056 107.312 4.78511 107.449 5.16362C107.582 5.53096 107.65 5.91766 107.652 6.30735C107.647 6.72078 107.584 7.13145 107.466 7.52782C107.361 7.9309 107.197 8.3161 106.978 8.6708C106.749 9.02078 106.459 9.32667 106.121 9.57386C105.831 9.78994 105.506 9.95386 105.161 10.0626ZM14.6203 1.33158H12.9632C12.8964 1.33158 12.8303 1.34475 12.7686 1.37034C12.7069 1.39592 12.6508 1.43342 12.6036 1.48068C12.5564 1.52795 12.519 1.58406 12.4935 1.64579C12.468 1.70753 12.4549 1.77369 12.455 1.84049V9.40547H3.45052V1.84049C3.45052 1.77366 3.43736 1.70748 3.41179 1.64574C3.38621 1.58399 3.34873 1.52789 3.30147 1.48064C3.25421 1.43338 3.19811 1.3959 3.13637 1.37032C3.07463 1.34475 3.00845 1.33158 2.94162 1.33158H1.28452C1.21773 1.33158 1.15159 1.34475 1.08989 1.37034C1.02819 1.39592 0.972136 1.43342 0.92494 1.48068C0.877743 1.52795 0.840328 1.58406 0.814835 1.64579C0.789341 1.70753 0.77627 1.77369 0.776368 1.84049V19.8443C0.776368 19.9791 0.829882 20.1085 0.925158 20.2039C1.02043 20.2993 1.14968 20.353 1.28452 20.3532H2.94162C3.07659 20.3532 3.20603 20.2996 3.30147 20.2041C3.39691 20.1087 3.45052 19.9793 3.45052 19.8443V12.0319H12.455V19.851C12.455 19.9858 12.5085 20.1152 12.6038 20.2106C12.6991 20.306 12.8284 20.3597 12.9632 20.3599H14.6203C14.7553 20.3599 14.8847 20.3063 14.9801 20.2108C15.0756 20.1154 15.1292 19.986 15.1292 19.851V1.84645C15.1292 1.71148 15.0756 1.58204 14.9801 1.4866C14.8847 1.39116 14.7553 1.33754 14.6203 1.33754V1.33158ZM24.4452 18.0248C22.3455 18.0248 20.2227 16.4072 20.2227 13.315C20.2227 10.2228 22.3455 8.60225 24.4452 8.60225C26.5448 8.60225 28.6415 10.2228 28.6415 13.315C28.6415 16.4072 26.5307 18.0248 24.4452 18.0248ZM24.4452 5.97578C20.511 5.97578 17.5485 9.12009 17.5485 13.315C17.5485 17.5099 20.511 20.6281 24.4452 20.6281C28.3793 20.6281 31.315 17.4846 31.315 13.315C31.315 9.14543 28.3614 5.97578 24.4452 5.97578ZM34.2208 1.33158H35.8779C35.9447 1.33158 36.0109 1.34475 36.0726 1.37034C36.1343 1.39592 36.1903 1.43342 36.2375 1.48068C36.2847 1.52795 36.3221 1.58406 36.3476 1.64579C36.3731 1.70753 36.3862 1.77369 36.3861 1.84049V19.8443C36.3861 19.9791 36.3326 20.1085 36.2373 20.2039C36.142 20.2993 36.0128 20.353 35.8779 20.3532H34.2208C34.086 20.353 33.9567 20.2993 33.8615 20.2039C33.7662 20.1085 33.7127 19.9791 33.7127 19.8443V1.84049C33.7127 1.70565 33.7662 1.57632 33.8615 1.4809C33.9567 1.38548 34.086 1.33178 34.2208 1.33158ZM41.8775 1.33158H40.2174C40.0829 1.33218 39.9541 1.38608 39.8592 1.48147C39.7644 1.57687 39.7113 1.70597 39.7115 1.84049V19.8443C39.7115 19.9787 39.7647 20.1077 39.8595 20.2031C39.9543 20.2984 40.0829 20.3524 40.2174 20.3532H41.8775C42.0123 20.353 42.1416 20.2993 42.2368 20.2039C42.3321 20.1085 42.3856 19.9791 42.3856 19.8443V1.84049C42.3856 1.70565 42.3321 1.57632 42.2368 1.4809C42.1416 1.38548 42.0123 1.33178 41.8775 1.33158ZM63.7886 7.56209C64.7822 6.56155 66.1294 5.99179 67.5394 5.97578C70.6815 5.981 72.8735 8.14551 72.8735 11.2399V19.8517C72.8735 19.9867 72.8199 20.1162 72.7245 20.2116C72.6291 20.307 72.4996 20.3606 72.3646 20.3606H70.7083C70.5733 20.3606 70.4439 20.307 70.3484 20.2116C70.253 20.1162 70.1994 19.9867 70.1994 19.8517V11.9947C70.1994 9.74225 69.2367 8.6477 67.26 8.6477C66.839 8.64213 66.4211 8.72126 66.0313 8.88039C65.6414 9.03952 65.2876 9.27539 64.9907 9.57399C64.6938 9.8726 64.46 10.2278 64.3032 10.6186C64.1463 11.0094 64.0696 11.4277 64.0777 11.8486V19.851C64.0777 19.9178 64.0645 19.984 64.0389 20.0457C64.0133 20.1075 63.9759 20.1636 63.9286 20.2108C63.8814 20.2581 63.8252 20.2956 63.7635 20.3212C63.7018 20.3467 63.6356 20.3599 63.5688 20.3599H61.9117C61.7768 20.3597 61.6476 20.306 61.5523 20.2106C61.457 20.1152 61.4035 19.9858 61.4035 19.851V6.79315C61.4035 6.65831 61.457 6.52898 61.5523 6.43357C61.6476 6.33815 61.7768 6.28445 61.9117 6.28425H63.1917C63.3143 6.28384 63.4329 6.32796 63.5254 6.40841C63.6179 6.48886 63.6781 6.60016 63.6947 6.72162L63.7886 7.56209ZM81.8527 18.024C79.5183 18.024 77.827 16.0443 77.827 13.315C77.827 10.5403 79.4811 8.60225 81.8527 8.60225C84.1722 8.60225 85.8517 10.5738 85.8517 13.2889C85.8517 16.0041 84.1692 18.024 81.8527 18.024ZM87.9715 1.33158H86.3151C86.1801 1.33158 86.0507 1.3852 85.9553 1.48064C85.8598 1.57608 85.8062 1.70552 85.8062 1.84049V7.55613C84.6732 6.523 83.1915 5.95636 81.6582 5.96982C78.5154 5.96982 75.1506 8.5419 75.1506 13.309C75.1071 15.2682 75.8143 17.1699 77.1273 18.6246C77.7078 19.2474 78.4087 19.7458 79.1875 20.0897C79.9664 20.4336 80.8069 20.6158 81.6582 20.6252C82.4733 20.634 83.2816 20.4774 84.0344 20.1649C84.7872 19.8524 85.4688 19.3905 86.0379 18.8071L86.149 19.8994C86.1625 20.0245 86.2215 20.1402 86.3148 20.2245C86.4081 20.3089 86.5291 20.356 86.6549 20.3569H87.9715C88.106 20.3569 88.2352 20.3036 88.3305 20.2087C88.4259 20.1137 88.4798 19.9848 88.4804 19.8503V1.84719C88.4804 1.71222 88.4268 1.58278 88.3313 1.48734C88.2359 1.39191 88.1064 1.33829 87.9715 1.33829V1.33158ZM157.023 5.97578C157.339 5.96833 157.653 5.99068 157.964 6.04433H157.952C158.326 6.11884 158.375 6.27531 158.375 6.54131V8.1686C158.375 8.56574 158.16 8.73115 157.78 8.66856C157.527 8.62481 157.27 8.60287 157.012 8.603C155.067 8.603 153.813 9.95162 153.838 11.9187V19.8517C153.838 19.9866 153.785 20.1159 153.689 20.2113C153.594 20.3067 153.465 20.3604 153.33 20.3606H151.684C151.617 20.3607 151.551 20.3476 151.489 20.3221C151.428 20.2965 151.371 20.259 151.324 20.2118C151.277 20.1645 151.24 20.1083 151.214 20.0465C151.189 19.9848 151.176 19.9186 151.176 19.8517V6.79315C151.176 6.65831 151.229 6.52898 151.325 6.43357C151.42 6.33815 151.549 6.28445 151.684 6.28425H152.95C153.076 6.28229 153.198 6.32757 153.292 6.41117C153.386 6.49476 153.445 6.61059 153.458 6.73578L153.572 7.76178C153.968 7.21521 154.486 6.76896 155.086 6.45881C155.685 6.14866 156.349 5.98323 157.023 5.97578ZM149.139 6.04433C148.828 5.9909 148.512 5.96794 148.196 5.97578C147.524 5.98473 146.863 6.15091 146.266 6.46103C145.669 6.77114 145.153 7.2166 144.759 7.76178L144.645 6.73578C144.632 6.60855 144.571 6.49109 144.474 6.40723C144.378 6.32338 144.253 6.27941 144.125 6.28425H142.857C142.722 6.28425 142.592 6.33787 142.497 6.4333C142.402 6.52874 142.348 6.65818 142.348 6.79315V19.851C142.348 19.986 142.402 20.1154 142.497 20.2108C142.592 20.3063 142.722 20.3599 142.857 20.3599H144.516C144.651 20.3599 144.781 20.3063 144.876 20.2108C144.971 20.1154 145.025 19.986 145.025 19.851V11.9164C144.996 9.95013 146.253 8.60076 148.196 8.60076C148.455 8.60076 148.713 8.62311 148.967 8.66782C149.344 8.72966 149.561 8.56425 149.559 8.16711V6.54131C149.559 6.27605 149.51 6.11884 149.139 6.04433ZM165.168 8.57915C163.269 8.57915 161.735 9.95088 161.283 11.9515H168.505C168.251 9.477 166.651 8.57915 165.168 8.57915ZM158.472 13.3865C158.472 9.27954 161.043 5.97578 165.191 5.97578L165.185 5.98174C169.333 5.98174 171.185 9.54554 171.185 13.0751C171.185 13.4119 171.162 13.7151 171.136 14.0005C171.126 14.13 171.067 14.2507 170.971 14.3383C170.875 14.4258 170.749 14.4737 170.619 14.4721H161.252C161.646 16.6873 163.083 18.0389 165.585 18.0389C167.135 18.0284 168.639 17.5139 169.87 16.5733C169.915 16.5235 169.974 16.4893 170.04 16.4755C170.105 16.4618 170.174 16.4693 170.235 16.497C170.295 16.5247 170.346 16.5711 170.379 16.6294C170.411 16.6877 170.425 16.755 170.417 16.8214V18.9226C170.419 19 170.403 19.0767 170.369 19.1463C170.335 19.2159 170.284 19.2762 170.222 19.322C168.766 20.2245 167.077 20.6788 165.366 20.6281C161.146 20.6281 158.472 17.8281 158.472 13.3865ZM180.132 17.9845C179.765 18.0533 179.394 18.0917 179.021 18.0993C177.387 18.0993 176.555 17.2275 176.555 15.5101V8.77362H179.875C179.942 8.77388 180.008 8.76083 180.07 8.73525C180.132 8.70967 180.188 8.67206 180.235 8.6246C180.33 8.52906 180.384 8.39967 180.384 8.26472V6.77602C180.379 6.64416 180.323 6.5193 180.228 6.42761C180.133 6.33593 180.007 6.28455 179.875 6.28425H176.555V3.29194C176.555 3.1916 176.525 3.09366 176.469 3.01024C176.413 2.92681 176.334 2.86155 176.242 2.82253C176.18 2.797 176.114 2.78384 176.047 2.78378H174.47C174.335 2.78417 174.206 2.83784 174.111 2.93305C174.016 3.02826 173.962 3.15729 173.962 3.29194V6.28425H172.399C172.264 6.28445 172.135 6.33784 172.04 6.43278C171.945 6.52771 171.891 6.65646 171.89 6.79092V8.27888C171.89 8.41372 171.944 8.54305 172.039 8.63846C172.134 8.73388 172.264 8.78758 172.399 8.78778H173.89V15.5585C173.89 18.6357 175.83 20.6281 178.835 20.6281C179.336 20.6395 179.836 20.5955 180.326 20.497C180.441 20.4749 180.543 20.4131 180.617 20.3226C180.69 20.2321 180.729 20.1186 180.726 20.0023V18.4845C180.726 18.0672 180.569 17.9123 180.132 17.9845ZM188.899 18.0993C189.273 18.0918 189.645 18.0531 190.011 17.9845C190.448 17.913 190.602 18.0672 190.602 18.4852V20.0023C190.605 20.1197 190.566 20.2344 190.492 20.3253C190.417 20.4162 190.312 20.4771 190.197 20.497C189.706 20.5955 189.206 20.6395 188.706 20.6281C185.7 20.6281 183.761 18.6365 183.761 15.5585V8.78703H182.269C182.202 8.78713 182.136 8.77403 182.074 8.74848C182.012 8.72293 181.956 8.68544 181.909 8.63815C181.862 8.59087 181.824 8.53472 181.799 8.47294C181.773 8.41116 181.76 8.34496 181.761 8.27813V6.79017C181.761 6.65579 181.815 6.52711 181.91 6.4323C182.006 6.33748 182.134 6.28425 182.269 6.28425H183.832V3.29194C183.832 3.22511 183.845 3.15891 183.87 3.09713C183.896 3.03535 183.933 2.9792 183.98 2.93191C184.028 2.88463 184.084 2.84714 184.145 2.82159C184.207 2.79604 184.273 2.78294 184.34 2.78303H185.926C185.993 2.78284 186.059 2.79587 186.121 2.82139C186.182 2.8469 186.239 2.88439 186.286 2.93169C186.333 2.979 186.37 3.03518 186.396 3.09701C186.421 3.15884 186.434 3.22509 186.434 3.29194V6.28425H189.754C189.886 6.2838 190.013 6.33496 190.108 6.42682C190.203 6.51868 190.258 6.64398 190.262 6.77602V8.26472C190.263 8.33163 190.25 8.39797 190.224 8.4598C190.199 8.52162 190.161 8.57767 190.113 8.6246C190.066 8.67203 190.01 8.70964 189.949 8.73522C189.887 8.76081 189.821 8.77386 189.754 8.77362H186.434V15.5093C186.434 17.2275 187.265 18.0993 188.899 18.0993ZM118.191 17.7163H113.249V12.0148H118.196C120.174 12.0148 121.191 13.3977 121.191 14.8723C121.191 16.3475 120.191 17.7446 118.191 17.7163ZM113.249 3.99829H117.702C119.565 3.99829 120.419 5.28433 120.419 6.62998C120.419 7.97637 119.591 9.30786 117.699 9.29966H113.26L113.249 3.99829ZM123.294 6.49288C123.294 7.88919 122.623 9.59249 121.365 10.4546C122.716 11.0089 124.079 12.4253 124.079 14.8842C124.079 18.0732 122.068 20.3599 118.102 20.3599H110.866C110.813 20.3601 110.76 20.3497 110.71 20.3294C110.661 20.3091 110.616 20.2793 110.578 20.2415C110.54 20.2038 110.51 20.159 110.489 20.1096C110.469 20.0603 110.458 20.0073 110.458 19.9538V1.7548C110.458 1.64683 110.501 1.54344 110.578 1.4673C110.654 1.39117 110.758 1.34852 110.866 1.34872H117.928C121.137 1.34872 123.294 3.42084 123.294 6.49288ZM132.415 18.0248C130.081 18.0248 128.387 16.0443 128.387 13.315C128.387 10.5403 130.044 8.60225 132.415 8.60225C134.732 8.60225 136.415 10.5738 136.415 13.2889C136.415 16.0041 134.729 18.0248 132.415 18.0248ZM138.535 6.28425H137.066C136.94 6.28326 136.819 6.32933 136.725 6.41342C136.631 6.49751 136.572 6.61355 136.56 6.73876L136.474 7.67311C135.339 6.56916 133.813 5.95901 132.23 5.97578C129.087 5.97578 125.724 8.54786 125.724 13.315C125.724 17.1873 128.35 20.6281 132.23 20.6281C133.812 20.6446 135.337 20.0369 136.474 18.9368L136.574 19.9024C136.587 20.0276 136.646 20.1436 136.74 20.2281C136.833 20.3125 136.954 20.3595 137.08 20.3599H138.549C138.682 20.3574 138.809 20.3025 138.902 20.2073C138.995 20.1121 139.046 19.9841 139.046 19.851V6.779C139.042 6.64617 138.986 6.52011 138.891 6.4277C138.795 6.33528 138.667 6.28381 138.535 6.28425ZM47.4538 13.315C47.4538 16.0443 49.1451 18.024 51.4788 18.024C53.7961 18.024 55.4785 16.0048 55.4785 13.2889C55.4785 10.5745 53.799 8.60225 51.4788 8.60225C49.1079 8.60225 47.4538 10.5395 47.4538 13.315ZM56.1297 6.28351H57.5975C57.7307 6.28248 57.8589 6.33374 57.9546 6.42626C58.0503 6.51878 58.1059 6.64517 58.1094 6.77825V19.8503C58.1094 19.9851 58.0559 20.1144 57.9606 20.2098C57.8654 20.3053 57.7361 20.359 57.6013 20.3592H56.1327C56.0068 20.3586 55.8856 20.3116 55.7923 20.2271C55.6989 20.1427 55.64 20.0268 55.6268 19.9017L55.5269 18.9353C54.392 20.036 52.8683 20.6442 51.2873 20.6274C47.4053 20.6274 44.7796 17.1865 44.7796 13.3143C44.7796 8.54711 48.1452 5.97504 51.2873 5.97504C52.8701 5.95886 54.3951 6.56896 55.5299 7.67237L55.6268 6.72386C55.6435 6.60225 55.7036 6.49077 55.796 6.40999C55.8884 6.3292 56.0069 6.2838 56.1297 6.28351Z" fill="white"/>
</g>
</g>
<defs>
<clipPath id="clip0_681_85">
<rect width="190" height="20.8627" fill="white" transform="translate(0.776367 0.568604)"/>
</clipPath>
</defs>
</svg>
