<svg width="131" height="60" viewBox="0 0 131 60" fill="none" xmlns="http://www.w3.org/2000/svg">
<g clip-path="url(#clip0_681_102)">
<path d="M0.608398 14.6832H41.5384C44.1384 10.6265 47.5551 7.40988 51.7951 5.02654C56.0317 2.64654 60.6317 1.45654 65.5984 1.45654C70.5617 1.45654 75.1717 2.64988 79.4251 5.03988C83.6784 7.42988 87.0917 10.6465 89.6584 14.6832H130.608L126.555 18.7365H91.8917C92.6051 20.2732 93.1451 21.8765 93.5117 23.5499H121.858L117.805 27.6065H94.1384C94.2084 28.6532 94.2417 29.4465 94.2417 29.9865C94.2417 30.5265 94.2084 31.3232 94.1384 32.3699H113.045L108.988 36.4232H93.5117C93.1451 38.1132 92.6051 39.7099 91.8917 41.2132H104.155L100.048 45.2665H89.6584C87.0917 49.3099 83.6784 52.5366 79.4251 54.9399C75.1717 57.3432 70.5617 58.5432 65.5984 58.5432C60.6317 58.5432 56.0317 57.3465 51.7951 54.9532C47.5551 52.5565 44.1384 49.3265 41.5384 45.2665H31.1684L27.1384 41.2132H39.3784C38.6717 39.7099 38.1384 38.1132 37.7751 36.4232H22.3084L18.2017 32.3699H37.1051C37.0351 31.3232 37.0017 30.5265 37.0017 29.9865C37.0017 29.4465 37.0351 28.6532 37.1051 27.6065H13.4884L9.38173 23.5499H37.7751C38.1384 21.8765 38.6717 20.2732 39.3784 18.7365H4.66173L0.608398 14.6832ZM43.0951 20.4865C41.8051 23.5099 41.1584 26.6765 41.1584 29.9865C41.1584 33.2965 41.8051 36.4665 43.0951 39.4899C44.3851 42.5099 46.1251 45.1199 48.3117 47.3132C50.4984 49.5065 53.0984 51.2499 56.1117 52.5465C59.1251 53.8432 62.2884 54.4899 65.5984 54.4899C68.9051 54.4899 72.0717 53.8432 75.0951 52.5465C78.1151 51.2499 80.7217 49.5065 82.9084 47.3132C85.0951 45.1199 86.8351 42.5099 88.1384 39.4899C89.4384 36.4665 90.0884 33.2965 90.0884 29.9865C90.0884 26.6765 89.4384 23.5099 88.1384 20.4865C86.8351 17.4632 85.0951 14.8599 82.9084 12.6732C80.7217 10.4899 78.1151 8.74988 75.0951 7.45321C72.0717 6.15655 68.9051 5.50988 65.5984 5.50988C62.2884 5.50988 59.1251 6.15655 56.1117 7.45321C53.0984 8.74988 50.4984 10.4899 48.3117 12.6732C46.1251 14.8599 44.3851 17.4632 43.0951 20.4865ZM46.0951 36.4232H48.6284L48.5551 26.8199L51.6217 36.4232L54.4384 36.4065L57.4484 26.8699V36.4232H60.1517V23.5499L56.3451 23.5465L53.0784 33.8132L49.7484 23.5599L46.0951 23.5499V36.4232ZM63.0651 36.4232H65.7484V23.5499H63.0651V36.4232ZM68.6617 36.4232H71.2451V27.1499L76.3851 36.4232H79.5017V23.5499H76.9684V32.8765L71.8284 23.5499H68.6617V36.4232ZM82.4651 36.4232H85.0984V23.5499H82.4651V36.4232Z" fill="white"/>
</g>
<defs>
<clipPath id="clip0_681_102">
<rect width="130" height="60" fill="white" transform="translate(0.608398)"/>
</clipPath>
</defs>
</svg>
