<svg width="161" height="30" viewBox="0 0 161 30" fill="none" xmlns="http://www.w3.org/2000/svg">
<g clip-path="url(#clip0_681_51)">
<path d="M21.2972 13.8824C21.258 12.8824 20.9638 11.8628 20.454 10.9608L15.8462 2.98041C15.4933 2.37256 15.258 1.7255 15.1207 1.05884L14.9246 1.39217C13.7874 3.37256 13.7874 5.80394 14.9246 7.78433L18.6109 14.1765C19.7482 16.1569 19.7482 18.5882 18.6109 20.5686L18.4148 20.902C18.2776 20.2353 18.0423 19.5883 17.6893 18.9804L14.3168 13.1373L12.1599 9.41178C11.807 8.80394 11.5717 8.15688 11.4344 7.49021L11.2384 7.82354C10.1011 9.78433 10.1011 12.2157 11.2188 14.1961L14.9246 20.6079C16.0619 22.5882 16.0619 25.0196 14.9246 27L14.7286 27.3333C14.5913 26.6667 14.356 26.0196 14.0031 25.4118L9.39522 17.353C8.76777 16.2745 8.49326 15.0784 8.55208 13.8824C3.61091 15.1765 0.21875 17.902 0.21875 21.0784C0.21875 25.4902 6.80698 29.0588 14.9442 29.0588C23.0815 29.0588 29.6697 25.4902 29.6697 21.0784C29.6501 17.902 26.2384 15.1765 21.2972 13.8824ZM35.1991 27.5098C35.258 26.3726 35.4148 25.6079 35.7286 24.7255C37.2776 25.451 39.2776 25.8039 40.7874 25.8039C43.356 25.8039 44.807 24.9804 44.807 23.3333C44.807 21.7255 43.7482 20.9804 41.1599 19.8432L39.7482 19.2353C37.1403 18.0981 35.3756 16.6275 35.3756 13.7059C35.3756 10.549 37.5521 8.52943 42.0423 8.52943C43.8462 8.52943 45.5325 8.78433 47.1011 9.33335C47.0227 10.4314 46.8266 11.2941 46.5521 12.0981C45.0619 11.549 43.2972 11.2941 42.0227 11.2941C39.6109 11.2941 38.5129 12.2353 38.5129 13.7059C38.5129 15.1373 39.5913 15.9804 41.5325 16.8039L43.0227 17.4314C46.5325 18.9216 48.0031 20.5098 48.0031 23.1765C48.0031 26.353 45.5913 28.549 40.905 28.549C38.6109 28.5686 36.7482 28.2353 35.1991 27.5098ZM62.8266 14.2941V28.1177H60.0423L59.8854 26.451C59.1207 27.6667 57.9246 28.451 55.9835 28.451C52.3364 28.451 49.905 25.8039 49.905 21.1569C49.905 16.2941 52.5129 13.5294 57.6305 13.5294C59.5913 13.5098 61.2384 13.7451 62.8266 14.2941ZM59.7874 24.9608V16.2745C59.1599 16.1569 58.454 16.1177 57.6109 16.1177C54.454 16.1177 52.9835 18.0588 52.9835 21.1569C52.9835 23.9804 54.1207 25.9608 56.8266 25.9608C58.0227 25.9608 58.9835 25.5686 59.7874 24.9608ZM78.4148 18.8235V28.1177H75.3756V19.353C75.3756 17.1765 74.6501 16.1177 71.6109 16.1177C70.8854 16.1177 70.0423 16.1961 69.1992 16.3333V28.1177H66.1599V14.2941C68.1011 13.8235 70.2188 13.5294 71.6893 13.5294C76.7678 13.5098 78.4148 15.4902 78.4148 18.8235ZM86.8462 25.8628C87.7286 25.8628 88.5521 25.7059 89.2188 25.451C89.1403 26.2745 89.0227 27.2157 88.8658 28.0196C88.0423 28.353 87.1599 28.4706 86.2972 28.4706C83.3364 28.4706 81.454 27.1177 81.454 23.7451V9.2157C82.3952 8.90198 83.5521 8.76472 84.4933 8.76472V14H89.2972C89.2384 14.9412 89.1599 15.8039 89.0227 16.6079H84.4933V23.3922C84.4933 25.1569 85.3756 25.8628 86.8462 25.8628ZM103.16 14.2941V28.1177H100.376L100.219 26.451C99.4344 27.6667 98.258 28.451 96.3168 28.451C92.6697 28.451 90.2384 25.8039 90.2384 21.1569C90.2384 16.2941 92.8462 13.5294 97.9639 13.5294C99.9246 13.5098 101.552 13.7451 103.16 14.2941ZM100.121 24.9608V16.2745C99.4933 16.1569 98.7874 16.1177 97.9442 16.1177C94.7874 16.1177 93.3168 18.0588 93.3168 21.1569C93.3168 23.9804 94.454 25.9608 97.1599 25.9608C98.356 25.9608 99.3168 25.5686 100.121 24.9608ZM118.729 18.8235V28.1177H115.689V19.353C115.689 17.1765 114.964 16.1177 111.925 16.1177C111.199 16.1177 110.356 16.1961 109.513 16.3333V28.1177H106.474V14.2941C108.415 13.8235 110.532 13.5294 112.003 13.5294C117.101 13.5098 118.729 15.4902 118.729 18.8235ZM134.16 8.76472V28.1177H131.376L131.219 26.353C130.434 27.6471 129.258 28.451 127.258 28.451C123.611 28.451 121.18 25.8039 121.18 21.1569C121.18 16.2941 123.787 13.5294 128.905 13.5294C129.709 13.5294 130.454 13.6079 131.18 13.7451V9.17649C132.081 8.84315 133.16 8.76472 134.16 8.76472ZM131.16 24.9216V16.4118C130.356 16.2549 129.532 16.1373 128.729 16.1373C125.709 16.1373 124.278 18.0196 124.278 21.1765C124.278 24 125.415 25.9804 128.121 25.9804C129.317 25.9608 130.317 25.549 131.16 24.9216ZM149.454 22.1961H139.748C140.14 24.6667 141.572 25.8432 144.278 25.8432C145.944 25.8432 147.631 25.4902 149.14 24.7843C149.023 25.5882 148.866 26.6471 148.67 27.549C147.278 28.1765 145.827 28.4314 144.18 28.4314C139.081 28.4314 136.631 25.6079 136.631 20.8824C136.631 16.7647 138.532 13.4902 143.376 13.4902C147.709 13.4902 149.591 16.3333 149.591 19.8235C149.631 20.7059 149.572 21.3922 149.454 22.1961ZM139.689 19.6667H146.552C146.552 17.3922 145.336 16.0784 143.238 16.0784C141.081 16.0588 139.944 17.3137 139.689 19.6667ZM160.101 13.6275C160.101 14.549 159.983 15.6471 159.827 16.2353C159.101 16.1569 158.395 16.1177 157.532 16.1177C156.787 16.1177 156.042 16.1765 155.297 16.2745V28.1177H152.258V14.2941C153.552 13.8432 155.748 13.5294 157.454 13.5294C158.395 13.5098 159.454 13.549 160.101 13.6275Z" fill="white"/>
</g>
<defs>
<clipPath id="clip0_681_51">
<rect width="160" height="28.2353" fill="white" transform="translate(0.160156 0.882324)"/>
</clipPath>
</defs>
</svg>
