<svg xmlns="http://www.w3.org/2000/svg" width="40" height="40" fill="none"><path fill="#F21483" fill-rule="evenodd" d="M26.667 40h-10v-1.667A3.332 3.332 0 0 1 20 35h3.333a3.334 3.334 0 0 1 3.334 3.333V40ZM40 40H30v-1.667A3.332 3.332 0 0 1 33.333 35h3.334A3.334 3.334 0 0 1 40 38.333V40ZM11.265 15a6.142 6.142 0 0 0 2.82-.727c1.258-.7 4.492-2.738 5.808-3.54a.841.841 0 0 1 1.09.189l.014.018a.838.838 0 0 1-.072 1.133c-1.037.995-4.072 3.88-5.617 5.355a4.656 4.656 0 0 0-1.421 3.174c-.159 3.678-.435 11.52-.552 14.721a1.396 1.396 0 0 1-1.395 1.344c-.74 0-1.312-.579-1.395-1.314-.185-1.635-.548-5.466-.71-7.02-.067-.64-.467-1.021-.975-1.025-.507-.001-.872.377-.915 1.015-.102 1.535-.442 5.414-.568 7.034a1.41 1.41 0 0 1-1.4 1.31 1.406 1.406 0 0 1-1.405-1.347c-.162-3.903-.615-14.94-.615-14.94l-2.145 3.883a.965.965 0 0 1-1.192.434H.618a.967.967 0 0 1-.581-1.164l2.073-7.321A1.667 1.667 0 0 1 3.713 15h7.552Zm10.402 11.667c2.07 0 3.75 1.68 3.75 3.75 0 2.07-1.68 3.75-3.75 3.75-2.07 0-3.75-1.68-3.75-3.75 0-2.07 1.68-3.75 3.75-3.75Zm13.333 0c2.07 0 3.75 1.68 3.75 3.75 0 2.07-1.68 3.75-3.75 3.75-2.07 0-3.75-1.68-3.75-3.75 0-2.07 1.68-3.75 3.75-3.75ZM40 25H15v-1.667h13.333v-1.666h5v1.666h5V1.667H1.667v11.666L0 17.908V0h40v25ZM30 15h-6.667v-1.667H30V15ZM8.957 6.667c2.068 0 3.75 1.68 3.75 3.75 0 2.07-1.682 3.75-3.75 3.75-2.07 0-3.75-1.68-3.75-3.75 0-2.07 1.68-3.75 3.75-3.75Zm26.043 5H23.333V10H35v1.667Zm0-3.334H23.333V6.667H35v1.666Z" clip-rule="evenodd"/></svg>