<svg xmlns="http://www.w3.org/2000/svg" width="34" height="42" fill="none"><path fill="#F21483" d="M31.631 10.583c-.81 0-6.875 2.083-14.63 2.083-7.813 0-13.761-2.083-14.634-2.083-1.121 0-2.034.913-2.034 2.034 0 .943.67 1.779 1.578 1.98 4.504 1.174 9.523 1.976 9.523 6.526 0 7.427-4.836 14.373-6.792 17.658A2.035 2.035 0 0 0 7.85 41.23c1.602-1.608 4.775-6.4 6.227-8.712.815-1.296 1.648-2.459 2.936-2.46 1.256.001 2.093 1.164 2.91 2.46 1.452 2.312 4.623 7.104 6.225 8.712a2.035 2.035 0 0 0 3.481-1.43c0-.353-.093-.705-.293-1.051-2.005-3.369-6.771-10.19-6.771-17.625 0-4.81 5.731-5.544 9.506-6.521a2.052 2.052 0 0 0 1.596-1.986c0-1.12-.915-2.033-2.036-2.033ZM17.048.167c2.863 0 5.183 2.333 5.183 5.208s-2.32 5.208-5.183 5.208c-2.86 0-5.185-2.333-5.185-5.208S14.188.167 17.048.167Z"/></svg>