<svg xmlns="http://www.w3.org/2000/svg" width="40" height="40" fill="none"><path fill="#F21483" fill-rule="evenodd" d="M7.968 40a1.876 1.876 0 0 1-1.873-1.798l-.82-19.917-2.86 5.177c-.31.565-.988.81-1.588.578l-.002-.002a1.288 1.288 0 0 1-.825-1.2l.048-.35 2.765-9.76a2.224 2.224 0 0 1 2.14-1.616h30.094c.995 0 1.868.66 2.14 1.616l2.765 9.76.048.35c0 .522-.318 1.004-.825 1.2l-.002.002a1.282 1.282 0 0 1-1.588-.578l-2.86-5.177-.82 19.917A1.874 1.874 0 0 1 32.033 40a1.88 1.88 0 0 1-1.868-1.745c-.17-2.162-.623-7.333-.76-9.38-.057-.85-.678-1.35-1.353-1.35-.605 0-1.285.5-1.34 1.35-.139 2.047-.592 7.218-.76 9.38A1.88 1.88 0 0 1 24.085 40h-.003a1.873 1.873 0 0 1-1.87-1.798c-.217-5.2-1.074-21.535-1.074-21.535h-2.246s-.887 16.335-1.104 21.535A1.873 1.873 0 0 1 15.918 40h-.003a1.88 1.88 0 0 1-1.867-1.745c-.168-2.162-.621-7.333-.76-9.38-.055-.85-.735-1.35-1.34-1.35-.675 0-1.296.5-1.353 1.35-.137 2.047-.59 7.218-.76 9.38A1.878 1.878 0 0 1 7.968 40Zm3.974-40c2.76 0 5 2.24 5 5s-2.24 5-5 5c-2.759 0-5-2.24-5-5s2.241-5 5-5Zm16.116 0c-2.76 0-5 2.24-5 5s2.24 5 5 5c2.759 0 5-2.24 5-5s-2.241-5-5-5Z" clip-rule="evenodd"/></svg>