<svg width="90" height="168" viewBox="0 0 90 168" fill="none" xmlns="http://www.w3.org/2000/svg">
<g clip-path="url(#clip0_692_203)">
<path fill-rule="evenodd" clip-rule="evenodd" d="M0 76.2072C0 76.2072 15.1974 41.8563 43.5854 37.8146C71.9729 33.773 88.0309 58.8826 89.4646 85.1537C86.5972 73.8981 71.5349 44.2596 43.8327 47.0247C19.8354 49.42 0 76.2072 0 76.2072Z" fill="white"/>
<path fill-rule="evenodd" clip-rule="evenodd" d="M42.5205 67.8462C42.5205 67.8462 43.2679 80.4038 30.3961 95.1214C18.6221 108.585 0.34921 117.24 5.81255 137.769C7.82492 123.457 22.174 121.952 35.8614 102.966C46.8333 87.7482 42.5205 67.8462 42.5205 67.8462Z" fill="white"/>
<path fill-rule="evenodd" clip-rule="evenodd" d="M52.6211 61.5418C52.6211 61.5418 58.931 91.7264 47.7452 109.823C52.191 92.3052 48.4147 77.0079 48.4147 77.0079C48.4147 77.0079 47.6561 88.3913 43.2519 102.005C40.7599 109.708 35.8344 117.807 32.353 125.748C23.6136 145.681 27.8812 167.539 27.8812 167.539C27.8812 167.539 29.8594 143.952 41.1965 128.161C47.3627 119.571 53.4558 115.296 57.7834 109.34C64.5199 100.07 67.2938 91.2776 68.109 81.6406C70.212 87.2383 70.7858 109.051 59.5043 128.354C80.5851 107.796 77.1433 76.5252 67.0094 59.5386C66.7706 66.0052 65.4317 72.8574 62.086 83.4745C59.6956 70.6379 52.6211 61.5418 52.6211 61.5418Z" fill="white"/>
<path fill-rule="evenodd" clip-rule="evenodd" d="M33.7214 79.6155C33.7214 79.6155 32.3497 82.718 19.6707 88.0632C15.7212 89.7285 12.8109 92.0246 13.0948 96.0335C13.2316 97.9672 14.8926 100.234 17.6845 100.377C23.1321 100.656 32.3497 93.4564 33.7214 79.6155Z" fill="white"/>
<path fill-rule="evenodd" clip-rule="evenodd" d="M0 76.1976C0 76.1976 7.53618 61.2425 25.3509 68.4021C25.3509 73.7626 30.9685 78.2307 30.9685 78.2307C30.9685 78.2307 17.7167 71.1004 0 76.1976Z" fill="white"/>
<path fill-rule="evenodd" clip-rule="evenodd" d="M64.7412 0C64.7412 0 69.4298 14.1365 54.1479 19.6693C51.8689 20.4944 49.1715 21.228 46.261 22.0333C51.2559 18.5536 52.7887 13.742 52.4069 9.01985C51.5101 12.1901 48.043 17.3683 32.7781 22.3999C31.2753 22.8953 29.9046 23.5192 28.642 24.2295C28.9648 22.5647 28.9708 21.2826 28.9708 21.2826C13.0698 27.2234 11.8962 47.2229 12.5083 51.9231C12.5083 51.9231 19.8783 39.9069 38.912 34.6314C61.3682 28.4074 65.605 23.6552 67.5492 16.5923C69.8122 8.37319 64.7412 0 64.7412 0Z" fill="#F21483"/>
</g>
<defs>
<clipPath id="clip0_692_203">
<rect width="89.4646" height="167.538" fill="white"/>
</clipPath>
</defs>
</svg>
