<svg fill="none" xmlns="http://www.w3.org/2000/svg" viewBox="0 0 136 47"><path d="M57.626 18.592c2.91.046 3.013-2.02 3.013-2.442 0-.947-.526-2.42-3.014-3.025v5.467Zm0-5.706c1.358-.354 2.476-1.096 2.476-2.557 0-1.426-1.107-2.031-2.476-2.157v4.714Zm.525-5.787c3.15 0 4.017 1.986 4.017 3.127 0 1.496-1.027 2.237-1.678 2.728 1.233.742 2.271 1.872 2.271 3.276 0 1.392-1.141 2.67-2.157 3.024-.707.251-1.643.468-2.476.457l-2.865-.034c.434-1.359.49-2.865.49-3.596V10.41c0-2.282-.273-2.899-.433-3.31h2.83Zm10.317 0c-.24.742-.468 1.427-.468 3.333v5.81c0 1.426.103 2.156.468 3.48h-2.842c.251-.787.49-1.518.49-3.618V10.09c0-1.427-.17-2.226-.49-2.99h2.842Zm13.17 2.386c-.741-.388-1.78-.913-3.275-.913-2.808 0-4.782 2.088-4.782 4.896 0 2.58 1.678 4.793 4.645 4.793 1.94 0 3.025-.844 3.72-1.358l-.102 1.952c-.81.4-1.952.959-3.938.959-4.896 0-6.322-3.87-6.322-6.14 0-3.368 2.83-6.7 7.35-6.7 1.312 0 2.088.274 2.704.49v2.02Zm9.839-2.386-.96 1.952c-1.414-.64-2.156-.81-3.48-.753v4.405h3.949l-1.073 1.77c-1.45-.423-1.917-.492-2.876-.56v4.61c1.62 0 2.51 0 5.181-.912l-.924 2.1h-6.608c.217-.742.468-1.632.468-3.241v-6.175c0-.856-.114-2.1-.468-3.196h6.79Zm9.256 2.42c-.56-.434-1.267-.993-2.386-.993-1.096 0-1.951.708-1.951 1.7 0 1.199 1.061 1.815 2.636 2.728 1.815 1.039 2.317 2.032 2.317 3.242 0 2.088-1.632 3.595-4.269 3.595-.993 0-1.586-.172-2.168-.331v-2.671c.57.662 1.312 1.53 2.476 1.53 1.096 0 1.884-.88 1.884-1.77 0-.878-.685-1.426-1.062-1.666-2.693-1.678-3.766-2.351-3.766-4.268 0-1.998 1.666-3.653 3.732-3.653 1.141 0 1.952.354 2.557.605V9.52Zm12.896-2.408-.879 1.94c-1.381-.56-1.837-.673-3.298-.673v8.331c0 1.005.08 2.032.354 3.013h-2.568c.183-.787.354-1.712.354-3.218V8.378c-.845-.012-1.587-.012-4.018.856l.674-2.123h9.381Zm9.53-.012-.959 1.952c-1.415-.64-2.157-.81-3.481-.753v4.405h3.949l-1.072 1.77c-1.45-.423-1.918-.492-2.877-.56v4.61c1.61 0 2.511 0 5.182-.912l-.924 2.1h-6.609c.217-.742.468-1.632.468-3.241v-6.175c0-.856-.114-2.1-.468-3.196h6.791Zm5.889 6.597c1.199-.33 3.116-.879 3.116-2.807 0-.948-.593-2.454-3.116-2.705v5.512Zm-1.871-3.96c0-1.484-.206-2.169-.343-2.602l2.454-.035c3.241-.045 4.782 1.906 4.782 3.595 0 2.055-1.815 3.06-2.385 3.367 1.13 1.986 2.67 3.858 4.177 5.65h-1.735c-1.7-1.461-2.477-2.374-5.079-5.832v3.115c0 .982.023 1.381.354 2.728h-2.556c.273-1.244.342-2.168.342-3.264V9.736h-.011ZM57.625 27.289c-.102.365-.114.502-.114.673 0 .491.251 1.461.537 2.226l2.625 6.677 2.705-6.46c.273-.65.605-1.587.605-2.283 0-.182-.012-.365-.149-.822l3.276.046c-.72.845-1.233 1.803-1.667 2.842l-4.12 9.804h-1.426l-3.55-9.12a37.014 37.014 0 0 0-.97-2.168c-.388-.776-.536-.97-.924-1.415h3.172Zm15.043 0c-.24.742-.468 1.427-.468 3.333v5.809c0 1.427.103 2.157.468 3.48h-2.842c.251-.787.49-1.517.49-3.617V30.29c0-1.427-.17-2.226-.49-2.99h2.842v-.012ZM82.494 39.9h-6.163c.32-.81.503-1.29.503-4.051v-5.57c0-1.814-.24-2.42-.434-2.979h2.83c-.25.651-.468 1.233-.49 3.093l-.069 8.23c2.26-.206 3.515-.56 4.862-1.096L82.495 39.9Zm10.09 0H86.42c.32-.81.502-1.29.502-4.051v-5.57c0-1.814-.24-2.42-.434-2.979h2.83c-.25.651-.467 1.233-.49 3.093l-.069 8.23c2.26-.206 3.515-.56 4.862-1.096L92.584 39.9Zm8.091-5.398h3.059l-1.461-3.378-1.598 3.378Zm6.015 1.952c.913 1.963 1.495 2.807 1.975 3.446h-3.002c0-.559-.069-1.198-.525-2.225l-.742-1.7h-4.428l-.64 1.358c-.216.467-.707 1.563-.638 2.556h-3.082c.422-.49.788-.947 1.838-3.013l4.862-9.655h.102l4.28 9.233Zm13.993-6.78c-.845-.433-2.203-1.14-4.006-1.14-2.135 0-4.543 1.563-4.543 4.94 0 2.763 1.872 4.977 5.113 4.977 1.141 0 1.632-.205 2.226-.434v-1.392c0-1.952-.365-2.454-.845-3.093h3.082c-.137.388-.354.959-.354 2.191v1.495c0 .845 0 1.096.24 1.952-.856.331-2.1.822-4.429.822-5.672 0-6.962-3.732-6.962-6.13 0-1.597.537-3.229 1.587-4.473 1.347-1.62 2.944-2.237 5.615-2.237 1.529 0 2.511.24 3.276.422v2.1Zm11.104-2.385-.958 1.952c-1.415-.64-2.157-.81-3.481-.754v4.406h3.949l-1.073 1.769c-1.45-.422-1.918-.49-2.876-.56v4.612c1.62 0 2.511 0 5.181-.914l-.924 2.1h-6.608c.217-.741.468-1.632.468-3.24v-6.175c0-.856-.115-2.1-.468-3.196h6.79Z" fill="#fff"/><path fill-rule="evenodd" clip-rule="evenodd" d="M23.535.103C10.615.103.138 10.58.138 23.5c0 12.92 10.477 23.397 23.397 23.397 12.92 0 23.397-10.477 23.397-23.397C46.932 10.58 36.455.103 23.535.103Zm0 44.717c-11.755 0-21.32-9.564-21.32-21.32 0-11.755 9.565-21.32 21.32-21.32 11.756 0 21.32 9.565 21.32 21.32 0 11.756-9.564 21.32-21.32 21.32Zm0-43.507C11.3 1.313 1.348 11.265 1.348 23.5c0 12.235 9.952 22.187 22.187 22.187 12.235 0 22.187-9.952 22.187-22.187 0-12.235-9.952-22.187-22.187-22.187ZM20.693 22.04c-2.077-.57-3.344-1.404-5.239-3.39.89 2.74 2.75 4.19 5.273 5.045l-.034-1.655Zm.56-8.64c-2.455.765-4.463 1.804-6.38 3.607.89-2.888 3.458-4.268 6.38-3.607Zm-2.42 6.94c3.195.901 5.969-1.027 5.615-4.12-.947-1.096-2.294-1.518-4.269-1.153 1.78-.046 3.06 1.118 3.527 2.51-.41.526-.993 1.005-1.78 1.45-1.564-.274-2.237-.673-3.002-1.232.64-.548 1.849-1.108 3.241-1.21-1.803-.434-3.4-.194-4.668.445.514 1.198 1.564 2.088 2.9 2.716-.469.206-.994.4-1.564.594Zm6.448.011c.959-3.48.72-5.147-1.53-7.43 3.14 1.176 4.817 3.812 1.53 7.43Zm-3.367 2.328c1.758-.148 3.595-.97 4.543-2.077-.286 2.477-2.74 3.219-4.543 2.077Zm-8.023 4.817a8.303 8.303 0 0 1-1.929-1.062c-.628-.445-.799-1.061-.171-1.632.57-.548.958-1.198.901-1.78 1.598 1.62 3.207 2.602 5.616 3.298-3.983-2.59-5.49-4.84-6.608-7.692-.354-.913-.297-1.541.24-1.93.832-.593 1.631-1.574 2.293-3.103-.628.627-.981.821-1.506 1.004.418-.471.765-.98 1.102-1.471.25-.367.495-.725.758-1.051.605-.765 1.335-1.359 2.614-1.347 1.426.023 3.013.137 4.588.434-.49-.265-.937-.47-1.428-.696a89.045 89.045 0 0 1-.25-.115c-.103-1.518 1.53-1.609 2.282-.97.96.822 2.01 1.335 3.287 1.54 2.032.32 3.447 2.021 2.5 2.569-.319.179-.595.323-.868.467-.198.103-.394.206-.604.32.428-.015.84-.065 1.227-.111 1.047-.126 1.914-.23 2.448.42.73.89 1.232 2.031 1.073 3.012a1.99 1.99 0 0 1-1.073 1.496c-.286.148-.582.57-.251.753l.142.082c.364.209.94.539 1.09.808.171.308.206.64-.068.993-.56.72-1.153 2.02-1.541 3.458-.285 1.027-1.267 1.678-2.58 1.324-1.826-.502-3.435-1.312-4.782-2.534.229.651.708 1.313 1.461 1.85.331.239.343.98-.41 1.095-1.176.183-2.283.97-3.025 1.929-.867 1.107-2.123 1.187-3.196.33-1.14-.924-2.111-1.94-2.693-3.172-.044.163-.04.39-.037.618.007.542.015 1.098-.602.866Zm17.28-1.77c.558-1.529 1.255-2.636 2.887-2.944-.8-.297-1.587-.16-2.226.594.872-1.641 2.098-1.502 3.23-1.373.615.07 1.202.137 1.69-.088-.743 2.488-2.683 3.88-5.582 3.812Zm-17.493 4.157c1.305-.056 2.755-.117 3.74 1.31-.674-.593-1.267-.833-2.431-.707 1.632.297 2.236.844 2.533 2.1-2.43.388-5.022-.753-5.672-2.83.514.183 1.153.155 1.83.127Zm11.33-3.198c-.218 8.97-13.742 11.094-17.634.788 3.72 14.414 19.54 9.142 17.633-.788Zm1.94 7.955c1.152.034 2.088.365 2.738 1.381-1.871-.924-2.978-.833-4.108-.16 1.37 1.93 4.154 2.523 6.209 1.005-.496-.16-.87-.593-1.269-1.052-.766-.884-1.617-1.865-3.57-1.174Zm8.514-5.992c-2.945-1.107-5.593-.798-8.149 1.119 2.66-3.938 7.99-3.938 12.406.434-1.297-.01-2.004.45-3.107 1.167-.208.135-.429.279-.67.43-3.014 1.884-5.707 2.055-8.983.582-1.255.925-2.317 2.146-3.081 3.824.947-6.015 7.281-7.91 11.584-7.556Z" fill="#fff"/></svg>
