<svg width="95" height="50" viewBox="0 0 95 50" fill="none" xmlns="http://www.w3.org/2000/svg">
<g clip-path="url(#clip0_681_83)">
<path d="M90.2788 21.1312C90.2228 18.7785 89.0514 16.5282 87.0465 15.4744C87.8198 14.2892 88.5751 13.0923 89.3123 11.8842C90.0694 13.4131 91.189 15.0654 91.189 17.2387C91.1893 18.6199 90.8671 19.9752 90.2788 21.1312ZM88.3405 23.4785C87.4916 24.0973 86.4841 24.4605 85.354 24.4605C83.845 24.4605 82.5611 23.8417 81.7634 22.7729C83.2773 20.9319 84.7758 18.865 86.1878 16.7684C87.8348 17.694 88.5044 19.8315 88.5044 21.765C88.504 22.3635 88.4529 22.9368 88.3405 23.4785ZM81.0266 21.1567C80.9446 20.7936 80.9036 20.4049 80.9036 20.0007C80.9036 17.95 82.3615 16.2977 84.2897 16.2977C84.4179 16.2977 84.5457 16.3022 84.663 16.3124C83.4352 18.0515 82.2081 19.7037 81.0262 21.156M58.5382 30.4285C57.8781 30.4285 57.5766 29.8917 57.5766 28.9101C57.5766 25.7338 60.3995 19.0744 64.9311 15.162C65.4322 15.9906 65.6574 17.0443 65.6623 18.144C65.6811 23.3913 60.8754 30.4285 58.5382 30.4285ZM40.5709 34.3259C39.9314 34.3259 39.6093 33.7737 39.6093 32.8323C39.6093 28.7308 46.5751 15.3154 50.0788 15.3154C50.7386 15.3154 51.0405 15.8676 51.0405 16.8289C51.0405 20.9722 44.1153 34.3259 40.5709 34.3259ZM30.4138 20.312C29.5596 19.3864 28.6288 18.6346 27.6672 18.0515C30.0506 13.1518 32.695 8.5229 36.004 4.99433C37.1292 6.15523 37.7378 7.74095 37.7378 9.63832C37.7375 14.3537 34.6281 18.4913 30.4138 20.312ZM17.2284 43.0921C16.3078 43.0921 15.469 42.9695 14.7172 42.7492C18.8446 38.106 21.9183 30.6691 25.2784 23.2022C26.6901 23.2481 28.0453 23.0744 29.2472 22.8597C29.9172 24.2767 30.3314 26.0097 30.3314 28.0718C30.3318 34.8173 25.3705 43.0921 17.2284 43.0921ZM11.7303 41.0876C10.4059 39.8443 9.75099 38.2387 9.7664 36.9037C9.77768 36.2383 9.9555 35.6255 10.242 35.0932C10.6664 36.0244 11.6995 36.73 12.9525 36.73C13.423 36.7285 13.8887 36.6348 14.3232 36.4541C13.4743 38.1872 12.6202 39.753 11.7303 41.0876ZM20.6243 18.9112C20.6243 18.006 21.719 17.8473 22.8848 17.9857C22.4652 18.7669 22.0578 19.5546 21.6626 20.3485C21.0029 19.9391 20.6243 19.4327 20.6243 18.9112ZM26.8589 19.75C27.3228 20.1355 27.746 20.5674 28.122 21.0391C27.4723 21.1775 26.8118 21.2595 26.148 21.2842C26.3833 20.7729 26.6187 20.2564 26.8589 19.75ZM90.1408 10.6564C90.9288 9.75599 91.4194 8.6308 91.4194 7.80223C91.4194 7.23982 91.092 6.88193 90.5653 6.88193C89.6908 6.88193 88.6371 7.96087 88.6371 9.58719C88.6371 9.81726 88.6668 10.0425 88.7089 10.2676C87.7063 11.8379 86.663 13.4285 85.604 14.9628C85.2284 14.8882 84.8463 14.8506 84.4634 14.8503C81.9217 14.8503 79.3029 16.7579 79.3029 20.2052C79.3029 21.1409 79.4668 21.9646 79.748 22.6752C77.5694 25.156 75.6562 26.7616 74.3623 26.7616C73.8514 26.7616 73.5442 26.4857 73.5442 25.9079C73.5442 25.2891 73.8461 24.3071 74.4446 22.9417L81.9168 6.38606L89.9875 5.43493L90.9032 3.52215L83.0935 3.77779L84.4484 0.780421L81.4209 1.15899L80.045 3.87516L69.1205 4.22779L67.1562 8.12516L78.5822 6.78005L76.2856 11.3368C75.1093 10.8101 73.6878 10.5086 72.0307 10.5086C69.5299 10.5086 67.2078 11.1274 65.1157 12.1759C64.1694 11.7154 63.1006 11.4906 62.0111 11.4906C59.3717 11.4906 56.3852 12.759 53.9559 14.9838C53.4645 13.4703 52.4367 12.5597 50.9123 12.5597C49.1375 12.5597 47.2506 13.4906 45.445 14.9992C44.3657 14.1143 42.8006 13.8586 41.1593 14.4827C42.0442 12.8304 42.5299 11.0714 42.5299 9.32177C42.5299 6.26877 41.098 4.02328 38.4844 2.66802C39.3796 1.9417 40.3205 1.29245 41.3179 0.734557C40.9499 0.443203 40.7198 0.264256 40.4126 0.095459C39.1355 0.614078 37.9023 1.23489 36.725 1.95185C35.0784 1.42516 33.1145 1.15937 30.869 1.15937C20.4405 1.15937 10.5747 7.17892 10.5747 14.6154C10.5747 17.8988 12.4311 19.0703 14.2672 19.0703C15.9807 19.0703 17.6581 18.1086 18.1901 16.9428C16.6965 16.6361 15.8119 15.3421 15.8119 13.7003C15.8119 7.9105 22.8292 2.84208 30.0303 2.84208C31.6412 2.84208 33.0375 3.14395 34.1833 3.69583C29.8104 7.06125 26.4551 11.644 23.6833 16.5436C23.2974 16.4839 22.9076 16.4531 22.5172 16.4515C20.4457 16.4515 18.9525 17.3413 18.9525 19.0597C18.9525 20.2259 19.7145 21.2285 20.8754 21.9545C19.1672 25.5195 17.6638 29.0894 16.2266 32.3372C15.7254 31.3503 14.5897 30.7056 13.2702 30.7056C10.0991 30.7056 7.71602 33.4981 7.71602 36.9503C7.71602 39.206 8.63144 41.359 10.2066 43.0831C8.71828 44.7447 7.09196 45.7323 5.18933 45.7778C4.57115 45.7965 3.96001 45.6424 3.42467 45.3327C4.91302 45.1695 6.1352 44.0646 6.09948 42.6278C6.06226 41.1902 4.86715 40.1725 3.22505 40.2082C1.2149 40.2545 0.125423 41.9368 0.161513 43.4097C0.223167 46.1413 2.53971 47.5729 5.56264 47.5019C8.17618 47.4402 10.4213 46.509 12.4213 44.9394C14.3187 46.1567 16.692 46.8985 19.3465 46.8985C27.366 46.8985 34.1732 40.0654 34.1732 30.8955C34.1732 27.2485 33.2322 24.3639 31.8307 22.1549C34.4341 21.2391 36.7202 19.7767 38.4999 18.0116C40.9957 15.5364 42.8525 15.7665 43.9059 16.4368C39.7683 20.7331 36.4081 27.6628 36.4081 32.3222C36.4081 35.2071 37.5589 37.0838 39.7784 37.0838C46.4375 37.0838 54.3856 24.2462 54.2882 17.1936C56.4262 14.8252 59.2852 13.4135 61.607 13.4135C62.0469 13.4135 62.4457 13.465 62.8089 13.5624C57.6074 17.2394 54.3649 23.5304 54.3649 28.3688C54.3649 30.9364 55.6232 32.8793 58.0781 32.8793C62.6604 32.8793 68.6292 25.7443 68.6292 18.6252C68.6292 16.4413 68.0104 14.7947 67.0235 13.6387C68.6243 12.6872 70.3837 12.1094 72.2705 12.1094C73.3653 12.1094 74.5108 12.3654 75.5386 12.8154L70.951 21.9139C69.8822 24.1334 69.4679 25.7804 69.4679 26.9721C69.4679 28.8135 70.542 29.7549 72.2555 29.7549C74.7408 29.7549 77.6769 27.4428 80.6021 24.1387C81.8657 25.7041 83.8348 26.4045 85.466 26.4045C85.9826 26.4045 86.5141 26.353 87.0517 26.256C85.819 27.8105 83.7683 28.9815 80.7608 29.7334L40.9344 39.6913C34.8841 41.2003 31.186 44.1872 32.9709 49.9056C34.3517 48.7699 36.8375 47.6601 43.2615 45.7011L79.4156 34.6793C84.704 33.0631 88.0593 29.2737 89.4912 25.4473C91.957 24.256 94.1457 21.9699 94.1457 18.7936C94.1453 15.2902 91.2096 13.1981 90.1408 10.6564Z" fill="white"/>
</g>
<defs>
<clipPath id="clip0_681_83">
<rect width="93.985" height="50" fill="white" transform="translate(0.160156)"/>
</clipPath>
</defs>
</svg>
