<svg width="210" height="30" viewBox="0 0 210 30" fill="none" xmlns="http://www.w3.org/2000/svg">
<g clip-path="url(#clip0_682_162)">
<path d="M57.2998 21.781C59.1996 21.8733 60.7827 20.9894 62.2735 20.0132C62.5505 19.8285 62.9331 19.5646 62.8078 19.1623C62.6824 18.7599 62.5505 18.4235 62.1481 18.2981C60.9874 18.3309 59.8333 18.4856 58.7049 18.7599C58.3948 18.7599 58.0452 18.9578 57.7682 18.7929C57.9786 18.1159 58.2365 17.4546 58.54 16.814L61.4159 16.7348C61.7656 16.682 62.1349 16.7018 62.3922 16.405C62.4519 16.0322 62.4385 15.6513 62.3526 15.2836C61.4687 14.8219 60.1956 15.0791 59.2062 15.0396L59.1006 15C59.2307 14.5263 59.3848 14.0596 59.5624 13.6016C61.1455 13.562 62.5307 13.6543 63.9489 13.2322C64.0285 13.1948 64.0952 13.1348 64.141 13.0597C64.1867 12.9847 64.2094 12.8978 64.2062 12.81C64.0908 12.4329 63.8868 12.0889 63.6115 11.8066C63.3361 11.5244 62.9972 11.312 62.6231 11.1873C61.1102 11.1471 59.5974 11.271 58.1112 11.5567C57.3526 11.7612 56.4291 11.6293 55.7497 12.0514C55.6969 12.1966 55.8816 12.2757 55.8619 12.401C56.0465 13.2849 57.003 13.1794 57.6099 13.4367C57.2273 14.0963 57.2999 15.4156 56.2312 15.3298C55.6244 15.6464 56.0993 16.3984 56.1191 16.8799C55.6772 17.9485 54.9977 19.2942 55.6969 20.4749C55.8448 20.7996 56.0639 21.0868 56.3379 21.3152C56.612 21.5436 56.934 21.7073 57.2801 21.7942" fill="white"/>
<path d="M33.4608 21.3588C33.7511 21.2466 34.1601 21.1741 34.2524 20.8047C34.3645 18.1332 34.1007 15.4089 33.9556 12.678C33.8931 12.2171 33.6904 11.7865 33.3751 11.4445C33.2102 11.3324 33.0123 11.1675 32.788 11.2796C32.5812 11.4269 32.432 11.6414 32.3659 11.8865C31.8054 14.8269 31.7252 17.8386 32.1284 20.8047C32.3659 21.339 32.9727 21.2796 33.4477 21.3588" fill="white"/>
<path d="M47.4249 21.1742C47.5522 21.1171 47.6657 21.0333 47.7579 20.9287C47.85 20.824 47.9187 20.7008 47.9592 20.5673C48.1967 19.2481 48.1439 17.7441 48.2495 16.4578C48.2285 15.9712 48.3188 15.4862 48.5133 15.0396C49.3774 16.2335 49.8326 17.6188 50.6637 18.8127C51.2574 19.4723 51.6466 20.4882 52.603 20.6003C53.0637 20.5241 53.4937 20.3198 53.8436 20.0106C54.1936 19.7015 54.4495 19.3001 54.5819 18.8523C54.9294 17.4918 54.9766 16.072 54.7203 14.6915C54.464 13.3109 53.9104 12.0027 53.0978 10.8576C52.6756 10.376 52.2534 9.63724 51.5674 9.58447C51.3497 9.67682 51.3299 9.8945 51.2904 10.0792C51.6598 12.1966 52.6096 14.2085 52.6954 16.4182C52.7905 16.8578 52.7585 17.3154 52.603 17.7375H52.4909C51.4025 16.3523 50.7429 14.8219 49.6347 13.4433C49.1532 12.9486 48.8234 12.2428 48.1769 11.9328C47.8075 11.7678 47.5173 12.0977 47.3128 12.3549C46.6953 13.7544 46.297 15.2406 46.1321 16.7613C46.1321 18.1992 45.545 19.7428 46.5212 20.9433C46.6426 21.0525 46.7864 21.1339 46.9425 21.1817C47.0986 21.2296 47.2632 21.2427 47.4249 21.2204" fill="white"/>
<path d="M37.5308 20.3957C39.4635 21.4511 42.4714 21.4643 44.3118 20.1979C45.5255 19.5382 45.5255 18.0211 45.3606 16.8601C44.9714 15.4617 43.4806 15.0198 42.2471 14.8351C40.4793 14.6899 38.6719 14.6504 37.069 14.0963C37.0596 14.0832 37.0532 14.0683 37.0501 14.0525C37.047 14.0367 37.0474 14.0204 37.0511 14.0048C37.0549 13.9891 37.0619 13.9745 37.0719 13.9618C37.0818 13.9491 37.0943 13.9388 37.1086 13.9314C39.1732 13.1926 41.66 13.3443 43.8698 13.0475C44.3926 13.0404 44.9052 12.902 45.3606 12.6451C45.5903 12.4391 45.7339 12.1541 45.7629 11.8469C45.6574 11.6688 45.4727 11.6688 45.321 11.5765C42.2471 10.7453 38.3223 10.8377 35.7827 12.7704C35.5375 13.0482 35.3613 13.38 35.2685 13.7388C35.1756 14.0975 35.1688 14.4731 35.2484 14.8351C35.395 15.1459 35.641 15.3989 35.9476 15.5541C37.7682 16.0884 39.945 15.7585 41.7854 16.2137C42.5766 16.3019 43.3061 16.6831 43.8302 17.2823C43.8494 17.4037 43.8321 17.5282 43.7804 17.6398C43.7287 17.7513 43.6451 17.845 43.54 17.9089C42.3198 18.5209 40.9902 18.8841 39.6284 18.9775C38.6521 18.9248 37.3658 19.2546 36.6468 18.3707C36.5965 18.2362 36.5984 18.0878 36.6522 17.9547C36.7059 17.8216 36.8076 17.7135 36.9371 17.6517C38.5598 17.0976 39.7207 18.7928 41.383 18.2453C41.8579 18.0804 42.5571 18.0211 42.7023 17.4142C41.8418 16.8808 40.863 16.5681 39.8527 16.5039C38.5334 16.3984 37.069 16.1741 36.1455 17.2031C35.9608 17.4253 35.837 17.6917 35.7861 17.9761C35.7352 18.2606 35.759 18.5534 35.8553 18.8258C36.2371 19.5138 36.8223 20.0667 37.5308 20.4089" fill="white"/>
<path d="M12.6956 23.4567C12.2734 22.83 12.3064 21.9989 12.1415 21.2667C9.4266 20.0902 7.08268 18.1977 5.36047 15.7918C5.2643 15.5487 5.22905 15.2858 5.2578 15.0259C5.28654 14.7661 5.3784 14.5172 5.52537 14.301C6.79846 12.9158 8.54648 12.4606 10.2417 11.9395L12.3262 11.5569C12.5307 9.80233 12.5307 7.8894 13.2299 6.2799C13.8367 6.14798 14.1138 6.86697 14.4238 7.23637C14.9581 8.4369 14.7602 10.02 14.9779 11.2535C17.8539 11.2535 20.8354 11.3657 23.0847 13.0741C23.3508 13.3045 23.5632 13.5905 23.7068 13.9119C23.8504 14.2333 23.9217 14.5823 23.9159 14.9343C23.8045 15.3539 23.596 15.7415 23.3072 16.0658C23.0185 16.39 22.6576 16.6419 22.2536 16.801C21.6608 16.9282 21.0418 16.8219 20.5254 16.5042C20.5529 16.404 20.6037 16.3118 20.6736 16.235C20.7436 16.1582 20.8306 16.099 20.9277 16.0622C21.2971 15.805 21.8314 15.4026 21.8117 14.9343C20.4925 14.3716 19.0959 14.0113 17.6692 13.8657C16.7533 13.7335 15.8304 13.6564 14.9053 13.6348L14.8328 13.7271C14.8328 15.9567 15.0702 20.396 15.0702 20.396C18.4587 21.0699 21.9727 20.6782 25.1296 19.2746C26.7787 18.3907 28.0979 16.6955 27.9132 14.7957C27.689 11.2271 24.5623 8.46328 21.6863 6.60972C16.1058 3.22581 9.62828 1.01605 2.58342 2.19679C2.39213 2.28914 2.13487 2.26935 2.02933 2.45405C2.31957 2.78386 2.94622 2.45405 3.24305 2.85642C3.3354 2.96856 3.5201 3.08069 3.40796 3.22581C3.04386 3.39337 2.64781 3.48013 2.24701 3.48013C1.84621 3.48013 1.45016 3.39337 1.08606 3.22581C0.991952 3.16752 0.920455 3.07897 0.883298 2.97469C0.846142 2.87041 0.845534 2.7566 0.881574 2.65193C1.0311 2.12236 1.32711 1.64578 1.73554 1.27702C2.14398 0.908258 2.64824 0.662318 3.19028 0.567502C9.2325 -0.956244 15.3671 0.798373 20.5254 3.31157C24.4832 5.19151 28.4409 8.52265 30.3077 12.5926C30.7505 13.7207 30.8697 14.95 30.6518 16.1422C30.4338 17.3344 29.8875 18.4421 29.0742 19.3406C26.7721 21.7153 23.7971 22.6387 20.5979 22.9092C18.7028 22.9542 16.8092 22.7704 14.9581 22.3617C14.8723 22.8762 14.8855 23.5226 14.2985 23.7403C13.7444 23.6876 12.9792 24.0569 12.6758 23.4831M12.0161 19.5253C12.2075 17.5987 12.2912 15.663 12.2668 13.7271C10.1824 13.9844 8.03197 14.0635 6.22458 14.9606C6.14708 15.032 6.0907 15.1232 6.06161 15.2244C6.03253 15.3257 6.03186 15.4329 6.05967 15.5345C7.62714 17.4161 9.71534 18.793 12.0623 19.4923" fill="white"/>
<path d="M30.5124 10.0263C30.3244 9.83301 30.1939 9.59113 30.1356 9.32781C30.0774 9.06448 30.0936 8.79013 30.1826 8.53554C29.8907 8.22147 29.6709 7.84738 29.5388 7.43946C29.4066 7.03154 29.3652 6.59967 29.4174 6.17407C29.7341 4.64372 31.1852 3.46958 32.5111 2.77037C33.837 2.07116 35.7169 1.68198 37.1285 2.45375C37.3577 2.64334 37.5577 2.8656 37.7222 3.11338C38.0303 3.10547 38.3357 3.17211 38.6125 3.30763C38.8893 3.44316 39.1292 3.64354 39.3119 3.89174C39.5036 4.25312 39.5944 4.65949 39.5747 5.06809C39.5549 5.4767 39.4254 5.87243 39.1998 6.21364C37.2802 8.42341 34.7407 10.5078 31.647 9.39966C31.4029 9.6767 31.3699 10.1384 30.9478 10.2308C30.8597 10.2399 30.7707 10.2259 30.6897 10.19C30.6087 10.1541 30.5385 10.0977 30.486 10.0263M34.9254 7.70441C36.2446 7.31523 37.9069 6.67538 38.1641 5.06589C38.1531 4.81749 38.0496 4.5822 37.8739 4.40626C37.7059 4.32327 37.5229 4.27522 37.3358 4.26502C37.1487 4.25482 36.9615 4.28267 36.7855 4.34689C35.1171 5.04905 33.6989 6.23742 32.7156 7.75718C33.4593 7.91402 34.2294 7.89595 34.9649 7.70441M30.895 6.91285C31.731 5.94041 32.623 5.01756 33.5665 4.149C33.5665 4.10942 33.5665 4.07644 33.5665 4.05665C32.366 4.29412 31.0071 5.23739 30.8027 6.54346L30.895 6.91285Z" fill="white"/>
<path d="M62.6428 28.0277C62.7154 25.3892 63.5663 22.9947 64.3381 20.6003L64.7273 19.5713C63.1375 16.5633 65.3341 13.4697 67.3658 11.1478C67.5637 10.9829 67.7682 10.7652 68.0254 10.8905C68.3025 11.4248 67.9529 11.9393 67.8605 12.4407C67.0162 14.0436 65.7629 15.5343 65.8156 17.4868L65.8684 17.5396C67.4911 15.4815 69.2985 13.252 71.5808 11.9393C71.7532 11.8673 71.9382 11.8302 72.125 11.8302C72.3119 11.8302 72.4968 11.8673 72.6692 11.9393C73.2867 12.4083 73.7557 13.0455 74.0202 13.7744C74.2846 14.5033 74.3331 15.293 74.16 16.0488C73.7378 18.5356 71.251 20.6662 69.0017 21.4314C68.3551 21.5962 67.6818 21.6276 67.0228 21.5238C65.9928 24.2387 65.2456 27.0526 64.7932 29.9209C64.3842 30.1649 64.0149 29.7757 63.6653 29.591C63.1338 29.2219 62.7652 28.6619 62.6362 28.0277M71.3368 17.8232C72.4252 16.8668 73.1046 15.5211 72.656 14.0699C72.5835 13.9182 72.4911 13.7533 72.2866 13.7731C70.6997 15.28 69.3754 17.0412 68.3684 18.9842C69.4514 18.9013 70.485 18.4971 71.3368 17.8232Z" fill="white"/>
<path d="M112.953 15.9301C112.953 17.3681 112.775 19.0963 114.081 19.6834C114.421 19.8363 114.79 19.9154 115.163 19.9154C115.536 19.9154 115.904 19.8363 116.245 19.6834C117.564 18.9446 117.405 17.4407 117.405 16.128V1.75464H119.747V15.7322C119.747 17.4868 120.011 19.9341 117.491 21.1676C116.709 21.5039 115.866 21.6773 115.014 21.6773C114.163 21.6773 113.32 21.5039 112.537 21.1676C110.407 20.1583 110.611 18.1333 110.611 16.6029V1.75464H112.953V15.9301Z" fill="white"/>
<path d="M126.508 2.42087V1.75464H128.85V21.438H126.508V2.42087Z" fill="white"/>
<path d="M138.448 17.2691C139.008 15.8575 138.091 14.525 136.996 12.9947L135.75 11.2928C134.088 9.01711 132.933 7.16355 134.18 4.9406C135.189 3.19257 137.478 2.05141 139.008 1.48413L139.991 3.11342C138.388 3.73347 136.818 4.55141 136.284 6.05537C135.842 7.26249 136.581 8.40366 137.709 9.95379L139.127 11.8865C141.053 14.624 141.917 16.0818 140.347 18.6279C139.457 20.1319 137.082 21.339 135.248 21.8601L134.206 20.1583C135.776 19.6108 137.795 18.9248 138.448 17.2955" fill="white"/>
<path d="M153.012 16.1478H148.83V19.5647H153.487V21.438H148.83H146.488V2.42087V1.75464H153.012V3.26519V3.7797H148.83V14.3008H153.012V16.1478Z" fill="white"/>
<path d="M202.168 1.75464V2.42087V21.438H204.51H209.16V19.5581H204.51V16.1478H208.692V14.3008H204.51V3.7797H208.692V3.26519V1.75464H202.168Z" fill="white"/>
<path d="M179.76 2.42087V1.75464H182.102V21.438H179.76V2.42087Z" fill="white"/>
<path d="M194.589 15.066V12.8958L190.143 7.41431V8.1531V21.0687V21.4381H187.801V1.90639V1.33911L194.589 9.48555V1.72829H196.489H196.931V21.4381H194.589V15.066Z" fill="white"/>
<path d="M91.4226 3.37078C87.1086 5.25732 85.2682 8.70059 85.2946 11.7481C85.354 14.6241 86.9635 17.8233 91.3368 19.9077V21.8866C89.3194 21.4493 87.469 20.4445 86.0035 18.9907C84.5381 17.5369 83.5185 15.6946 83.0651 13.6808C82.3527 10.1848 83.6323 5.57395 88.2102 2.69796C89.2287 2.12858 90.3058 1.67079 91.4226 1.33252V3.37078Z" fill="white"/>
<path d="M97.0889 21.4381V1.33252C100.057 1.99215 103.375 4.09637 104.708 7.30877C105.235 8.57082 105.414 9.95099 105.227 11.3059C105.041 12.6607 104.494 13.9409 103.646 15.0133C103.134 15.6887 102.545 16.302 101.891 16.8404L104.978 21.4578H102.34L99.8791 17.9288C99.7391 18.0417 99.5775 18.1248 99.4042 18.1729V21.471L97.0889 21.4381ZM99.4306 15.785C100.349 15.2933 101.143 14.5997 101.754 13.7565C102.366 12.9133 102.778 11.9424 102.96 10.917C103.23 9.0436 102.043 6.10165 99.4306 4.45257V15.785Z" fill="white"/>
<path d="M175.189 19.5449V21.3918H171.053H168.718V2.42087V1.75464H171.053V19.5449H175.189Z" fill="white"/>
</g>
<defs>
<clipPath id="clip0_682_162">
<rect width="208.305" height="30" fill="white" transform="translate(0.855225)"/>
</clipPath>
</defs>
</svg>
