<svg xmlns="http://www.w3.org/2000/svg" fill="none" viewBox="0 0 70 30"><g clip-path="url(#a)"><mask id="b" width="70" height="30" x="0" y="0" maskUnits="userSpaceOnUse" style="mask-type:luminance"><path fill="#fff" d="M0 .425h70v29.15H0V.425Z"/></mask><g mask="url(#b)"><path fill="#fff" d="M45.169 14.545c-.483-.374-1.072-.695-1.66-.801.482-.161.963-.375 1.337-.696.483-.375.91-.802 1.179-1.283.267-.429.481-.91.695-1.605.161-.587.267-1.176.267-1.712 0-.534-.106-1.07-.267-1.604-.16-.535-.481-.963-.962-1.338-.43-.375-.91-.535-1.5-.535-.482 0-1.017.215-1.338.535-.428.375-.641.857-.641 1.338 0 .587.16 1.124.481 1.497.321.375.803.588 1.445.588.587 0 .91-.213 1.124-.374.107-.054.213-.16.267-.16.214 0 .268.268.268.375 0 .588-.268 1.069-.856 1.496-.588.322-1.124.59-1.767.75a9.495 9.495 0 0 1-1.177.267l-.642.16c-.374.107-.803.215-1.177.322-.321.106-.589.16-.91.266-.429.108-.856.215-1.231.43-.643.267-1.124.587-1.445.962a2.363 2.363 0 0 0-.588 1.605c0 .64.16.962.428.962.267 0 .481-.214.75-.481.533-.535 1.23-.803 2.032-.803.697 0 1.232.16 1.767.482.48.32.856.802 1.177 1.443.267.643.428 1.23.428 1.82 0 .534-.107 1.07-.268 1.764a8.104 8.104 0 0 1-.642 1.713c-.213.373-.535.962-.963 1.55-.321.48-.75.91-1.178 1.39-.374.428-.856.856-1.284 1.285-.428.427-.857.748-1.338 1.175-.427.375-1.016.642-1.284.642-.321 0-.803-.212-1.337-.641-.483-.375-.858-.75-1.339-1.176a24.88 24.88 0 0 1-1.178-1.232c-.16-.16-.267-.32-.428-.427-.318-.325-.621-.665-.909-1.016a11.108 11.108 0 0 1-1.017-1.55c-.322-.537-.535-1.072-.75-1.66-.32-.587-.374-1.175-.374-1.764 0-.643.107-1.23.375-1.819.267-.641.695-1.07 1.177-1.444.482-.32 1.07-.48 1.767-.48.535 0 .908.053 1.283.212.322.107.75.322 1.07.696.161.214.322.321.535.321.322 0 .537-.375.537-.856 0-.909-.59-1.658-1.178-2.246l-1.07-1.07c-.215-.16-.375-.375-.589-.588-.642-.642-1.017-1.124-1.285-1.659-.213-.427-.321-.855-.428-1.337a6.165 6.165 0 0 1-.16-1.39c0-.641.107-1.284.267-1.873.214-.587.481-1.175.803-1.603.375-.535.856-.91 1.337-1.23a3.372 3.372 0 0 1 1.766-.482c.537 0 1.232.053 1.82.267a3.047 3.047 0 0 1 1.445 1.123c.322.428.482 1.07.482 1.82 0 .802-.482 1.712-1.124 1.712-.428 0-.642-.697-.909-.964-.267-.321-.589-.535-1.231-.535-.589 0-.963.214-1.392.695-.32.375-.482.91-.482 1.551 0 .803.267 1.391.803 1.873.536.48 1.125.748 1.927.748.803 0 1.338-.107 1.819-.267.589-.268 1.125-.588 1.552-1.07.375-.375.697-.909.963-1.605.215-.588.375-1.176.375-1.765.01-.6-.08-1.196-.268-1.765a4.009 4.009 0 0 0-.962-1.498c-.375-.32-.857-.695-1.553-.962a6.55 6.55 0 0 0-1.711-.481 9.598 9.598 0 0 0-1.82-.16c-.641 0-1.23.106-1.819.212-.75.108-1.285.269-1.766.483-.589.267-1.125.535-1.605.908A4.881 4.881 0 0 0 27.83 3.26c-.375.481-.642 1.016-.856 1.659a5.983 5.983 0 0 0-.322 1.871c0 .643.108 1.284.322 1.925.213.535.535 1.07.962 1.659.429.535.91.962 1.393 1.337.427.32.91.642 1.391.91a6.513 6.513 0 0 0-1.445 0c-.642.053-1.177.213-1.659.374a6.79 6.79 0 0 0-1.445.855c-.482.321-.856.75-1.177 1.178a5.583 5.583 0 0 0-.75 1.497c0 .481-.16 1.069-.16 1.711 0 .535.053 1.124.213 1.713.108.534.322 1.122.59 1.657.213.482.534.963.855 1.498.322.481.643.962 1.018 1.39.321.375.695.75 1.07 1.07.428.427 1.016.909 1.499 1.284.481.375 1.016.748 1.551 1.07.483.266.964.587 1.393.8.587.268 1.176.43 1.658.59a5.08 5.08 0 0 0 1.713.32c.587 0 1.123-.16 1.712-.32.535-.16 1.07-.375 1.605-.642.483-.213.963-.535 1.499-.856.535-.321.962-.641 1.391-.962.429-.322.91-.695 1.338-1.07.428-.428.857-.91 1.231-1.39.321-.375.696-.803.962-1.232.323-.48.537-1.016.75-1.55.215-.482.43-1.016.59-1.605.16-.587.16-1.176.16-1.712 0-.695-.16-1.39-.428-2.031-.375-.75-.75-1.284-1.284-1.713h-.001Zm-25.046 12.89V2.19a.708.708 0 0 0-.697-.695h-2.3a.709.709 0 0 0-.696.695v10.59H3.746V2.19a.708.708 0 0 0-.696-.695H.696A.709.709 0 0 0 0 2.19v25.245c0 .375.321.696.696.696h2.3a.709.709 0 0 0 .696-.696V16.471h12.63v10.964c0 .375.322.696.697.696h2.3c.482.053.803-.267.803-.696Zm45.863-6.952c0 2.032-1.391 4.01-4.227 4.01H54.8v-8.022h6.958c2.782 0 4.227 1.925 4.227 4.012h.001Zm-1.07-11.608c0 1.925-1.177 3.744-3.8 3.744h-6.262V5.185h6.262c2.569 0 3.8 1.818 3.8 3.69Zm1.284 5.401c1.766-1.23 2.73-3.637 2.73-5.562 0-4.279-3.05-7.22-7.546-7.22h-9.9a.594.594 0 0 0-.589.587v25.513c0 .322.267.589.587.589h10.17c5.566 0 8.402-3.21 8.402-7.702-.054-3.422-1.927-5.455-3.854-6.203v-.002Z"/></g></g><defs><clipPath id="a"><path fill="#fff" d="M0 0h70v30H0z"/></clipPath></defs></svg>