<svg width="141" height="50" viewBox="0 0 141 50" fill="none" xmlns="http://www.w3.org/2000/svg">
<mask id="mask0_681_109" style="mask-type:luminance" maskUnits="userSpaceOnUse" x="0" y="0" width="141" height="50">
<path d="M140.323 0H0.776367V50H140.323V0Z" fill="white"/>
</mask>
<g mask="url(#mask0_681_109)">
<path d="M39.3501 37.7634C39.2691 37.7634 39.3501 37.4392 39.3501 37.1151V36.2237C39.3501 35.4133 38.9449 35.0081 38.1346 35.0081H37C36.1897 35.0081 35.7845 35.4133 35.7845 36.2237V48.4603C35.7845 49.2707 36.1897 49.6758 37 49.6758H38.2966C39.107 49.6758 39.5122 49.2707 39.5122 48.4603V43.1118C39.5122 40.6807 40.7277 38.0065 43.3209 38.0065C45.0227 38.0065 45.2658 39.3841 45.2658 40.9238V48.4603C45.2658 49.2707 45.671 49.6758 46.4814 49.6758H47.778C48.5884 49.6758 48.9935 49.2707 48.9935 48.4603V43.1118C48.9935 40.5186 50.2901 38.0065 52.7213 38.0065C54.423 38.0065 54.7472 39.3031 54.7472 40.9238V48.4603C54.7472 49.2707 55.1524 49.6758 55.9628 49.6758H57.1783C57.9887 49.6758 58.3939 49.2707 58.3939 48.4603V40.2755C58.3939 36.3857 56.611 34.684 53.6127 34.684C51.3436 34.684 49.3987 36.1426 48.5884 37.6823H48.5073C47.9401 35.6564 46.4004 34.684 44.2123 34.684C41.8623 34.684 40.0794 36.3047 39.3501 37.7634ZM17.5511 48.4603V30.47C17.5511 29.6596 17.1459 29.2545 16.3355 29.2545H15.0389C14.2286 29.2545 13.8234 29.6596 13.8234 30.47V37.7634C12.3647 38.5737 10.906 38.9789 9.28528 38.9789C7.5835 38.9789 5.96275 38.4927 4.42304 37.6013V30.5511C4.42304 29.7407 4.01786 29.3355 3.20749 29.3355H1.99193C1.18155 29.3355 0.776367 29.7407 0.776367 30.5511V48.6224C0.776367 49.4327 1.18155 49.8379 1.99193 49.8379H3.28852C4.0989 49.8379 4.50408 49.4327 4.50408 48.6224V41.1669C6.04379 41.8963 7.66454 42.3015 9.36632 42.3015C10.906 42.3015 12.4457 41.9773 13.9044 41.329V48.6224C13.9044 49.4327 14.3096 49.8379 15.12 49.8379H16.4166C17.1459 49.6758 17.5511 49.2707 17.5511 48.4603ZM31.0843 42.3825C31.0843 45.1378 29.0584 47.0016 26.7083 47.0016C24.3582 47.0016 22.3323 45.1378 22.3323 42.3825C22.3323 39.7083 24.2772 37.7634 26.7083 37.7634C29.1394 37.7634 31.0843 39.6272 31.0843 42.3825ZM26.7083 34.684C22.2512 34.684 18.6046 37.8444 18.6046 42.3825C18.6046 46.9206 22.1702 50.081 26.7083 50.081C31.2464 50.081 34.812 46.9206 34.812 42.3825C34.812 37.8444 31.1653 34.684 26.7083 34.684ZM56.2059 21.1507C54.0989 23.825 50.6953 25.3647 47.0487 25.3647C43.402 25.3647 39.9984 23.7439 37.8914 21.1507C37.7294 20.9076 37.6483 20.6645 37.6483 20.4214C37.6483 20.1783 37.8104 19.9352 37.9725 19.7731C38.1346 19.611 38.3777 19.53 38.6208 19.53C38.9449 19.53 39.188 19.6921 39.3501 19.9352C41.1329 22.1232 43.9692 23.4198 46.9676 23.4198C49.966 23.4198 52.8023 22.1232 54.5851 19.9352C54.7472 19.6921 55.0713 19.53 55.3145 19.53C55.5576 19.53 55.7196 19.611 55.9628 19.7731C56.2059 19.9352 56.2869 20.1783 56.2869 20.4214C56.449 20.7455 56.3679 20.9887 56.2059 21.1507ZM62.0405 14.5867C62.0405 14.1005 61.7974 13.6953 61.4733 13.3712L48.1832 0.486224C47.9401 0.162075 47.4538 0 47.0487 0C46.5624 0 46.1572 0.162075 45.8331 0.486224L40.8088 5.34846V4.53809C40.8088 3.64668 40.0794 2.8363 39.107 2.8363H37.2431C36.3517 2.8363 35.5414 3.56564 35.5414 4.53809V10.4538L32.543 13.4522C32.2188 13.7763 32.0568 14.1815 32.0568 14.6677C32.0568 15.5592 32.7861 16.3695 33.7585 16.3695H35.5414V27.5527C35.5414 28.4441 36.2707 29.2545 37.2431 29.2545H45.9952H56.9352C57.8266 29.2545 58.637 28.5251 58.637 27.5527V16.3695H60.5008C61.3112 16.2885 62.0405 15.5592 62.0405 14.5867ZM62.6888 41.5721C62.5268 39.6272 63.4992 38.0065 65.282 37.5203C66.9028 37.1151 68.3615 37.9254 69.0098 39.8703C68.1183 39.7893 67.0649 39.8703 65.8493 40.1945C64.5527 40.4376 63.4992 40.9238 62.6888 41.5721ZM73.4668 46.8395C73.953 46.3533 73.953 45.705 73.4668 45.1378L72.8995 44.7326C72.3323 44.1653 72.0892 44.1653 71.4409 44.6515C70.8736 45.2188 69.8201 46.2723 68.5235 46.5964C66.0114 47.2447 63.9854 46.1912 63.094 43.7601C64.3096 43.9222 66.0114 43.8412 67.9563 43.2739C70.0632 42.7066 71.5219 41.9773 72.2512 41.0859C72.5754 40.7617 72.7375 40.2755 72.6564 39.8703C71.6029 35.9806 68.6046 33.7115 64.5527 34.765C60.2577 35.8995 58.1508 39.7893 59.3663 44.1653C60.4198 48.2172 64.3096 50.8104 69.0098 49.5138C71.1978 48.9465 72.6564 47.6499 73.4668 46.8395ZM78.248 34.6029C78.248 33.2253 79.4636 32.3339 81.3274 32.3339C82.9482 32.3339 84.0017 32.9822 84.8931 33.4684C85.4603 33.7925 86.1086 33.8736 86.5138 33.0632L87 32.0908C87.3242 31.4425 87.2431 30.8752 86.5948 30.47C85.7034 29.8217 83.7585 28.9303 81.3274 28.9303C77.4376 28.9303 74.4393 31.2804 74.4393 34.846C74.4393 41.248 84.0016 40.4376 84.0016 44.3274C84.0016 45.705 82.8671 46.6775 80.9222 46.6775C78.8963 46.6775 77.4376 45.624 76.7893 45.2188C76.06 44.8136 75.5738 44.8136 75.0875 45.4619L74.5203 46.2723C73.953 47.0827 74.1961 47.5689 74.6824 47.9741C75.6548 48.7844 78.0859 50.081 81.0033 50.081C85.2982 50.081 87.8104 47.3258 87.8104 44.0032C87.8104 37.4392 78.248 38.4927 78.248 34.6029ZM98.7504 40.5186C97.9401 40.1945 96.8055 40.0324 95.59 40.1135C94.2934 40.1945 93.1589 40.4376 92.2675 40.8428C92.5106 38.8979 93.8072 37.5203 95.671 37.4392C97.3728 37.3582 98.5884 38.4927 98.7504 40.5186ZM102.478 41.329C102.316 37.2771 99.8039 34.4408 95.671 34.6029C91.295 34.765 88.3777 38.0875 88.5397 42.6256C88.7018 46.7585 91.8623 50.1621 96.7245 50C98.9935 49.919 100.695 48.9465 101.668 48.2982C102.316 47.893 102.397 47.3258 101.992 46.6775L101.587 46.1102C101.182 45.4619 100.857 45.2998 100.209 45.705C99.5608 46.1912 98.3452 46.9206 96.9676 47.0016C94.3744 47.0827 92.5916 45.624 92.2675 43.0308C93.483 43.517 95.1038 43.6791 97.1297 43.5981C99.3177 43.517 100.857 43.0308 101.83 42.4635C102.235 42.2204 102.478 41.8152 102.478 41.329ZM112.365 37.1961V36.0616C112.365 35.2512 112.041 34.846 111.23 34.846C109.123 34.846 107.502 36.7909 106.935 38.5737H106.854C106.854 38.5737 106.935 38.0875 106.935 37.6013V36.2237C106.935 35.4133 106.53 35.0081 105.72 35.0081H104.585C103.775 35.0081 103.37 35.4133 103.37 36.2237V48.4603C103.37 49.2707 103.775 49.6758 104.585 49.6758H105.882C106.692 49.6758 107.097 49.2707 107.097 48.4603V43.7601C107.097 41.0859 108.394 38.4117 111.068 38.4117C111.96 38.4117 112.365 38.0065 112.365 37.1961ZM127.032 36.3857C127.357 35.5754 126.951 35.0081 126.06 35.0081H124.682C123.953 35.0081 123.548 35.3323 123.305 35.9806L120.549 44.0843C120.225 44.9757 120.063 46.2723 120.063 46.2723H119.982C119.982 46.2723 119.739 44.8947 119.415 44.0843L116.66 35.9806C116.498 35.2512 116.011 35.0081 115.282 35.0081H113.904C113.013 35.0081 112.689 35.5754 112.932 36.3857L117.389 48.7034C117.551 49.4327 118.037 49.6758 118.767 49.6758H121.036C121.765 49.6758 122.17 49.3517 122.413 48.7034L127.032 36.3857ZM136.676 40.5186C135.866 40.1945 134.731 40.0324 133.515 40.1135C132.219 40.1945 131.084 40.4376 130.193 40.8428C130.436 38.8979 131.733 37.5203 133.596 37.4392C135.217 37.3582 136.514 38.4927 136.676 40.5186ZM140.323 41.329C140.16 37.2771 137.648 34.4408 133.515 34.6029C129.139 34.765 126.222 38.0875 126.384 42.6256C126.546 46.7585 129.707 50.1621 134.569 50C136.838 49.919 138.54 48.9465 139.512 48.2982C140.16 47.893 140.242 47.3258 139.836 46.6775L139.431 46.1102C139.026 45.4619 138.702 45.2998 138.054 45.705C137.405 46.1912 136.19 46.9206 134.812 47.0016C132.219 47.0827 130.436 45.624 130.112 43.0308C131.327 43.517 132.948 43.6791 134.974 43.5981C137.162 43.517 138.702 43.0308 139.674 42.4635C140.079 42.2204 140.323 41.8152 140.323 41.329Z" fill="white"/>
</g>
<path d="M138.296 28.9304C139.431 28.9304 140.322 29.8218 140.322 31.0374C140.322 32.1719 139.431 33.1444 138.296 33.1444C137.162 33.1444 136.271 32.1719 136.271 31.0374C136.271 29.8218 137.162 28.9304 138.296 28.9304ZM138.296 32.5771C139.188 32.5771 139.836 31.8478 139.836 30.9564C139.836 30.0649 139.188 29.3356 138.296 29.3356C137.405 29.3356 136.757 30.0649 136.757 30.9564C136.757 31.8478 137.405 32.5771 138.296 32.5771ZM137.567 30.146C137.567 29.9839 137.648 29.9029 137.81 29.9029H138.459C138.864 29.9029 139.107 30.146 139.107 30.5512C139.107 30.8753 138.864 31.0374 138.783 31.1184C138.783 31.1184 138.783 31.1184 138.864 31.1995L139.107 31.6857C139.188 31.8478 139.107 31.9288 139.026 31.9288H138.945C138.783 31.9288 138.702 31.8478 138.702 31.7667L138.459 31.1995H138.215V31.7667C138.215 31.9288 138.134 32.0098 137.972 32.0098C137.81 32.0098 137.729 31.9288 137.729 31.7667V30.146H137.567ZM138.296 30.8753C138.459 30.8753 138.621 30.7943 138.621 30.5512C138.621 30.3891 138.54 30.227 138.296 30.227H138.053V30.8753H138.296Z" fill="white"/>
</svg>
