<svg width="86" height="50" viewBox="0 0 86 50" fill="none" xmlns="http://www.w3.org/2000/svg">
<g clip-path="url(#clip0_681_118)">
<mask id="mask0_681_118" style="mask-type:luminance" maskUnits="userSpaceOnUse" x="0" y="0" width="86" height="50">
<path d="M85.2238 0H0.608398V50H85.2238V0Z" fill="white"/>
</mask>
<g mask="url(#mask0_681_118)">
<path d="M79.1311 3.86406L79.048 2.03563C79.0277 1.64942 79.037 1.23523 79.0167 0.72961H79.0001C78.8949 1.16246 78.7602 1.64568 78.6476 2.03563L78.0942 3.79689H77.3783L76.8911 2.00951C76.797 1.63636 76.6974 1.17739 76.583 0.733342H76.5627C76.5627 1.18672 76.5627 1.63076 76.5368 2.01697L76.4409 3.86406H75.594L75.8524 0.0262258H77.1254L77.5461 1.51881C77.6421 1.85652 77.7177 2.24272 77.8156 2.61961H77.8321C77.9392 2.2334 78.0351 1.83599 78.1384 1.50016L78.5997 0.00756836H79.7935L80.0426 3.8454L79.1311 3.86406ZM75.3744 0.0262258V0.800509H74.3024V3.86406H73.3798V0.800509H72.3281V0.0262258H75.3744Z" fill="white"/>
<path d="M5.10127 40.9644V44.8732H1.78559V40.9644H0.608398V49.8696H1.78559V45.6623H5.10127V49.8696H6.27845V40.9644H5.10127Z" fill="white"/>
<path d="M14.8309 43.1137C14.7139 42.764 14.628 42.4044 14.5745 42.0391H14.5486C14.4867 42.4037 14.3974 42.7629 14.2812 43.1137L13.2313 46.4926H15.855L14.8309 43.1137ZM16.879 49.8696L16.047 47.2035H13.0265L12.1685 49.8677H11.0928L14.0782 40.9644H15.1299L18.1006 49.8696H16.879Z" fill="white"/>
<path d="M24.1264 40.9644H22.9492V49.8696H24.1264V40.9644Z" fill="white"/>
<path d="M31.9209 41.5344C31.5779 41.512 31.235 41.5763 30.9227 41.7209V45.4524C31.1704 45.5079 31.4236 45.5342 31.6773 45.5308C33.111 45.5308 33.8029 44.805 33.8029 43.5251C33.8029 42.165 33.2144 41.5306 31.9209 41.5306V41.5344ZM33.8417 49.8668L30.9485 45.7118H30.9227V49.8668H29.7603V41.3142C30.4409 40.9786 31.1915 40.8141 31.9486 40.8347C33.945 40.8347 34.9709 41.8179 34.9709 43.4765C34.9709 44.9897 33.9063 45.902 32.2954 45.9226V45.9487L35.1738 49.8668H33.8417Z" fill="white"/>
<path d="M43.2035 50.0021C41.0891 50.0021 39.8989 47.9498 39.8989 45.4198C39.8989 42.9458 41.0761 40.8357 43.2035 40.8357C43.8125 40.8077 44.4142 40.9806 44.9176 41.3283L44.6353 42.0261C44.267 41.795 43.8417 41.674 43.4083 41.6771C41.7164 41.6771 41.1278 43.5298 41.1278 45.4198C41.1278 47.3471 41.781 49.1084 43.3935 49.1084C43.8284 49.1188 44.2564 48.9972 44.6224 48.7595L44.9306 49.5058C44.4206 49.8498 43.8161 50.0222 43.2035 49.9984" fill="white"/>
<path d="M52.8935 43.1143C52.7763 42.7645 52.6905 42.4049 52.6369 42.0397H52.6129C52.5496 42.4042 52.4596 42.7633 52.3436 43.1143L51.2919 46.4931H53.9174L52.8935 43.1143ZM54.9415 49.8702L54.1168 47.204H51.087L50.2309 49.8683H49.1533L52.1387 40.9631H53.1942L56.1649 49.8683L54.9415 49.8702Z" fill="white"/>
<path d="M63.1582 41.5344C62.8147 41.5122 62.4711 41.5761 62.1582 41.7209V45.4524C62.4065 45.5077 62.6604 45.534 62.9146 45.5308C64.3483 45.5308 65.0403 44.805 65.0403 43.5251C65.0403 42.165 64.4497 41.5306 63.1582 41.5306V41.5344ZM65.0772 49.8668L62.1877 45.7118H62.1618V49.8668H60.9976V41.3142C61.6782 40.9786 62.429 40.8141 63.1859 40.8347C65.1841 40.8347 66.2082 41.8179 66.2082 43.4765C66.2082 44.9897 65.1454 45.902 63.5328 45.9226V45.9487L66.4129 49.8668H65.0772Z" fill="white"/>
<path d="M71.4971 40.9644V49.8696H75.5803V49.0673H72.6743V45.6623H75.2869V44.8732H72.6743V41.7667H75.5803V40.9644H71.4971Z" fill="white"/>
<path d="M26.256 33.5087V16.9465C26.256 14.6405 25.1489 12.5489 21.8646 12.5489C19.9642 12.5489 18.488 13.1907 17.1798 14.6012V33.5087H13.4564V16.7748C13.4564 14.2151 11.7699 12.5079 8.47456 12.5079C6.61837 12.5079 5.6054 12.7635 4.38024 13.2747V33.5087H0.666016V11.6963C2.73624 10.6701 4.93009 10.075 8.56128 10.075C12.067 10.075 14.1742 11.1422 15.5266 12.8512C17.0875 11.1832 19.4106 10.075 22.5768 10.075C28.0218 10.075 29.9573 13.6628 29.9573 16.8625V33.5087H26.256Z" fill="white"/>
<path d="M44.0232 33.9784C38.3235 33.9784 35.96 31.0753 35.96 26.465V10.5017H39.6761V26.5937C39.6761 29.2822 41.1097 31.3308 44.2336 31.3308C46.0066 31.3308 47.2724 31.0323 48.3297 30.398V10.5017H52.0439V32.1443C50.3556 33.1257 47.695 33.9802 44.0232 33.9802" fill="white"/>
<path d="M59.0918 0V33.5106H62.723V21.6426H62.8078L71.5021 33.5106H75.7237L66.1826 21.2582L74.7956 10.5023H70.9117L62.8078 21.1724H62.723V0H59.0918Z" fill="white"/>
<path d="M82.8196 33.6776C82.1702 33.6776 81.5475 33.4167 81.0883 32.9525C80.6292 32.4882 80.3711 31.8584 80.3711 31.2019C80.3733 30.8797 80.4385 30.5611 80.5629 30.2646C80.6874 29.968 80.8685 29.6992 81.0961 29.4738C81.3238 29.2483 81.5931 29.0706 81.8889 28.951C82.1848 28.8312 82.5011 28.7719 82.8196 28.7764C83.1353 28.7739 83.4483 28.835 83.7405 28.956C84.0325 29.0769 84.298 29.2555 84.5212 29.4812C84.7444 29.7069 84.921 29.9753 85.0407 30.2707C85.1603 30.5661 85.2207 30.8826 85.2183 31.2019C85.2229 31.5241 85.1644 31.8439 85.0461 32.1432C84.9278 32.4424 84.7521 32.7149 84.529 32.9451C84.3061 33.1753 84.0402 33.3585 83.7469 33.4843C83.4534 33.61 83.1383 33.6757 82.8196 33.6776Z" fill="white"/>
</g>
</g>
<defs>
<clipPath id="clip0_681_118">
<rect width="84.6154" height="50" fill="white" transform="translate(0.608398)"/>
</clipPath>
</defs>
</svg>
