<svg width="61" height="60" viewBox="0 0 61 60" fill="none" xmlns="http://www.w3.org/2000/svg">
<path fill-rule="evenodd" clip-rule="evenodd" d="M0.608398 0H60.6084V60H0.608398V0ZM21.3907 55.0054C22.3643 55.0054 23.2955 54.7303 24.1421 54.18L24.3537 54.8996H26.3008V48.8467C26.3008 47.3229 25.0733 46.3705 22.8934 46.3705C21.3061 46.3705 20.1209 46.9208 19.3378 48.0001L20.8193 48.8467C21.3061 48.2329 22.0045 47.8943 22.8511 47.8943C23.6976 47.8943 24.1632 48.2329 24.1632 48.8467V49.3123C20.6288 49.7144 18.9146 50.7091 18.9146 52.5716C18.9146 53.9684 19.8246 55.0054 21.3907 55.0054ZM22.0468 53.5028C21.4119 53.5028 21.0521 52.9737 21.0521 52.4234C21.0521 51.4287 22.0257 50.9208 24.0786 50.6456V52.6139C23.4013 53.2065 22.7452 53.5028 22.0468 53.5028ZM28.015 46.7938L29.8351 46.5398L30.0256 47.5345C31.0626 46.7938 31.8669 46.3916 32.9039 46.3916C34.6182 46.3916 35.5071 47.3017 35.5071 49.1006V54.9207H33.306V49.4816C33.306 48.4657 33.0309 48.0001 32.2478 48.0001C31.5917 48.0001 30.9356 48.2964 30.1949 48.9313V54.9207H28.015V46.7938ZM46.1318 50.7303C46.1318 53.4816 47.6132 55.0689 50.0683 55.0689C51.7826 55.0689 53.0524 54.434 53.7508 53.2276L52.1423 52.3388C51.6344 53.0795 51.0841 53.4181 50.2588 53.4181C48.9677 53.4181 48.3117 52.635 48.2905 51.0477H53.8566C53.8566 50.9867 53.8615 50.9208 53.8666 50.8523C53.8721 50.7783 53.8778 50.7014 53.8778 50.6245C53.8778 47.8943 52.4386 46.3705 50.0259 46.3705C47.6132 46.3705 46.1318 47.9578 46.1318 50.7303ZM50.0471 47.852C51.0841 47.852 51.7191 48.5081 51.7191 49.6298H48.354C48.4386 48.4869 49.0524 47.852 50.0471 47.852ZM7.99424 55.1534C5.81435 55.1534 3.86726 53.7777 3.86726 50.7513C3.86726 47.7248 5.83551 46.3492 7.99424 46.3492C10.1741 46.3492 12.1212 47.7248 12.1212 50.7513C12.1212 53.7777 10.1741 55.1534 7.99424 55.1534ZM7.99424 48.1904C6.36461 48.1904 6.04715 49.6719 6.04715 50.7301C6.04715 51.8095 6.34345 53.2698 7.99424 53.2698C9.64504 53.2698 9.94133 51.7883 9.94133 50.7301C9.94133 49.6719 9.62387 48.1904 7.99424 48.1904ZM15.7192 46.561H13.624V54.8784H15.8673V49.3335C16.1848 48.5927 17.243 48.4446 18.1954 48.4446H18.3012V46.3917C18.2165 46.3705 18.1107 46.3705 18.0261 46.3705C17.0949 46.3705 16.1213 47.0054 15.7192 47.5345V46.561ZM40.8832 53.1217C42.5551 53.1006 42.6821 51.4075 42.6821 50.3069C42.6821 48.9948 42.0472 47.9366 40.862 47.9366C40.0789 47.9366 39.19 48.508 39.19 50.3916C39.2112 51.4286 39.2747 53.1217 40.8832 53.1217ZM44.8197 46.6032V54.4551C44.8197 55.8519 44.7139 58.1376 40.735 58.1799C39.0842 58.1799 37.5816 57.5239 37.2641 56.1059L39.4229 55.7672C39.5075 56.1694 39.7615 56.5926 40.989 56.5926C42.1318 56.5926 42.6821 56.0424 42.6821 54.7514V53.7778L42.6609 53.7567C42.3223 54.3704 41.7721 54.963 40.5022 54.963C38.5551 54.963 37.0313 53.6085 37.0313 50.7937C37.0313 48 38.6186 46.4339 40.3964 46.4339C42.0194 46.4339 42.6453 47.1518 42.816 47.5617L42.9996 46.6032H44.8197ZM53.8568 43.7673H54.7034V43.4075H52.5235V43.7673H53.3912V46.1589H53.8568V43.7673ZM57.8568 46.1589H58.259V43.4075H57.5605L56.7563 45.5028L55.9309 43.4075H55.2325V46.1589H55.6981V43.852H55.7193L56.6293 46.1589H56.9256L57.8357 43.852H57.8568V46.1589Z" fill="white"/>
</svg>
