<svg xmlns="http://www.w3.org/2000/svg" fill="none" viewBox="0 0 36 49"><g fill="#fff" clip-path="url(#a)"><path d="M17.548 40.794v.064l.056-.032.056.032v-.064C35.87 30.6 33.146 7.37 33.146 7.37c-4.584 0-3.543-3.793-3.543-3.793h-1.916v-1.69C24.413.394 19.065.068 17.66.006V0l-.005.001c-1.405.062-6.86.392-10.133 1.886v1.69H5.605S6.646 7.37 2.062 7.37c0 0-2.724 23.231 15.486 33.424M19.273 4.26s4.926.39 8.992 4.829c4.065 4.439 1.655 7.839-2.625 10.07-.06.03 2.13.93 1.613 3.443-.516 2.511-1.01 4.157-7.98 12.494V4.26Zm-1.318 12.77c.267 0 .524.107.713.297a1.019 1.019 0 0 1 0 1.436 1.005 1.005 0 0 1-1.427 0 1.018 1.018 0 0 1 0-1.436c.19-.19.446-.297.714-.297ZM4.7 11.64a199.21 199.21 0 0 1 2.327-1.38c1.359 8.487 4.15 14.325 4.15 14.325l.242-3.26C9.484 12.9 9.097 7.182 9.097 7.182l2.345-.953c.494 8.532 2.925 16.913 2.925 16.913L14.281 4.67l2.474-.411-.064 31.01c-1.958-2.772-3.937-9.29-3.937-9.29l-.848 5.596C7.026 24.853 4.524 11.76 4.7 11.64"/><path d="M27.254 15.26c.024-.034 3.183-3.875-5.529-7.795v10.979s4.26-1.364 5.529-3.183Zm-4.066 4.981-1.613.629v7.535s2.15-2.534 2.926-4.612c0 0 .752-2.945-1.313-3.552ZM6.97 45.143c-.29-.046-.58-.079-.873-.1.41-.94.873-1.838 1.373-2.718.196-.34-.286-.942-.713-1.211-1.444 1.05-2.826 2.431-4.082 3.912-.776.027-1.534.071-2.157.117-.375.026-.481.197-.517.538a15.5 15.5 0 0 0 1.257 1.14c-.286.394-.57.789-.838 1.174-.285.324-.027.88.365 1.005.363-.571.74-1.134 1.132-1.686.953.664 2.023 1.184 2.968 1.121a24.56 24.56 0 0 1 .891-2.638c.32.025.626.052.914.084l.28-.738Zm-5.356 1.21a4.454 4.454 0 0 1-.633-.547 20.16 20.16 0 0 1 1.114-.072l-.481.62Zm2.085 1.221c-.374-.162-.909-.44-1.425-.772.267-.368.534-.735.82-1.094.445 0 .9.009 1.354.018-.267.61-.508 1.229-.749 1.848Zm1.07-2.567a23.485 23.485 0 0 0-1.114 0c.811-.986 1.666-1.91 2.567-2.718a22.226 22.226 0 0 0-1.453 2.718Z"/><path d="M9.26 47.404c-.062 0-.054-.09-.018-.207.09-.27.25-.565.393-.807.293-.512-.241-1.157-.402-1.157-.178 0-.963.556-1.64 1.318l.223-.511c.16-.413-.418-.754-.846-.897l.143.789c-.141-.019-.282-.036-.423-.051l-.683 1.8c-.125.333.49.808.73.808l.143-.305c.455-.88 1.382-1.74 1.667-1.884a7.438 7.438 0 0 0-.73 1.417c-.126.35.453.772.587.772.26 0 1.242-.613 2.113-1.584l.667-1.759c-.439 1.013-1.79 2.258-1.924 2.258Z"/><path d="m6.97 45.142-.28.74c.145.015.288.031.422.05l-.143-.79Zm4.49-1.121c-.08.296.161.592.5.718.454-.144.9-.655.971-.915.063-.225-.142-.628-.508-.718-.4.098-.882.628-.962.915Zm.197 3.275c-.116 0-.009-.251.036-.36l.338-.897c.152-.385-.419-.753-.846-.897.106.207-.17.53-.071 1.005a7.272 7.272 0 0 1-.598.758l-.294.777c-.125.331.446.807.669.807.396 0 1.241-.804 2.002-1.67l.555-1.466c-.451.72-1.605 1.943-1.791 1.943Z"/><path d="m11.185 45.143-.002.002-.667 1.76c.216-.239.415-.492.597-.758-.098-.475.179-.798.072-1.004Zm7.37 2.018c.087-.195.202-.39.33-.58-.44.492-.867.823-.972.823-.062 0-.053-.09-.017-.207.089-.27.249-.565.392-.807.293-.512-.241-1.158-.401-1.158-.197 0-1.079.638-1.792 1.49l.24-.593c.152-.412-.418-.915-.516-.915-.188 0-1.043.592-1.72 1.454l.276-.629c.16-.412-.419-.753-.847-.896l-.08.21.009-.013v.807c-.183.229-.371.453-.565.673l-.326.861c-.125.333.49.808.73.808.526-.888 1.248-1.794 1.828-2.189l-.58 1.435c-.151.368.686.745.847.745.374-.978 1.497-2.018 1.81-2.18a7.394 7.394 0 0 0-.732 1.418c-.124.349.455.77.589.77.196 0 .81-.353 1.475-.947a.582.582 0 0 1 .022-.38Z"/><path d="m13.457 45.34-.008.013-.556 1.467c.197-.225.389-.452.564-.673v-.807Zm8.654 1.956c-.116 0-.009-.251.036-.36l.338-.897c.152-.385-.418-.753-.847-.897l-.311.817c-.134-.476-.57-.799-.847-.799-.3 0-1.071.654-1.594 1.421.123-.136.246-.285.364-.443.215-.278.419-.466.518.01a7.835 7.835 0 0 1-1.235 1.393c.111.467.645.948.833.948.392 0 .945-.467 1.372-.978l-.062.17c-.125.332.446.808.669.808.396 0 1.243-.805 2.004-1.671l.56-1.477c-.445.719-1.61 1.955-1.798 1.955Zm-2.353.367c-.053-.134 0-.412.116-.61.294-.53.722-.969.989-.969.107 0 .25.225.295.332-.161.36-1.24 1.176-1.4 1.247"/><path d="M19.767 46.147c-.098-.475-.303-.287-.517-.008a6.631 6.631 0 0 1-.364.443 3.91 3.91 0 0 0-.331.58.585.585 0 0 0-.022.379c.422-.378.864-.85 1.234-1.394Zm4.688 1.149c-.116 0-.01-.251.035-.36l.998-2.628h.714c.15 0 .302-.431.231-.628h-.704l.214-.547c.151-.386-.339-.951-.766-1.095l-.633 1.642h-4.002c-.401 0-.606.367-.678.628h4.44l-.394 1.033.001-.002v.808a19.87 19.87 0 0 1-.563.67l-.328.864c-.125.332.445.808.669.808.395 0 1.241-.803 2-1.67l.557-1.466c-.451.72-1.605 1.943-1.791 1.943Z"/><path d="m23.912 45.34-.001.002-.562 1.476c.196-.224.387-.451.563-.67v-.808Zm2.69-1.32c-.08.297.161.593.5.719.454-.144.9-.655.97-.915.064-.225-.142-.628-.507-.718-.4.098-.883.628-.963.915Zm.945 2.854c.082-.218.218-.442.384-.655-.277.305-.945 1.077-1.132 1.077-.116 0-.01-.251.035-.36l.34-.897c.15-.385-.42-.753-.848-.897l-.08.211.01-.013v.807c-.184.229-.372.453-.565.673l-.327.861c-.125.332.445.808.668.808.307 0 .883-.482 1.48-1.1-.027-.189-.02-.37.035-.515Z"/><path d="m26.255 45.34-.01.013-.555 1.467c.197-.225.388-.452.565-.673v-.807Zm4.598 1.076.205-.322c.143-.216-.223-.754-.508-.664-.201.066-.388.17-.552.304-.054-.197-.277-.448-.553-.654-.5.153-1.104.615-1.513 1.139l.667-.072c-.344.43-.707.844-1.088 1.241.075.524.42 1.101.82 1.101.499 0 1.55-.7 2.059-1.292.423-.13.882-.383 1.26-.674l.411-1.089c-.213.444-.8.815-1.208.982Zm-1.292.79c-.348.287-.65.422-.864.538-.143-.144-.143-.574.187-.995.213-.279.463-.458.73-.593-.151.233-.231.467-.231.61 0 .234.062.368.178.44Z"/><path d="M27.932 46.219a2.58 2.58 0 0 0-.385.655 1.07 1.07 0 0 0-.035.514c.38-.397.743-.81 1.087-1.24l-.667.071Zm7.894.072c-.419.503-1.23 1.112-1.363 1.112-.063 0-.054-.09-.018-.206.089-.269.25-.565.392-.807.294-.512-.24-1.158-.401-1.158-.179 0-.963.556-1.64 1.319l.223-.512c.16-.412-.42-.753-.847-.897l-.11.292.04-.095v.773c-.139.15-.29.288-.453.41l-.44 1.16c-.124.331.49.807.732.807l.142-.305c.454-.88 1.381-1.74 1.667-1.884a7.426 7.426 0 0 0-.731 1.418c-.125.35.454.77.588.77.321 0 1.738-.986 2.228-1.488.267-.279.17-.548-.009-.71Z"/><path d="M32.101 46.111v-.771l-.04.094-.412 1.09c.171-.134.327-.272.452-.413Zm-11.845-5.428v-.597h.163v-.169h-.524v.169h.164v.596h.197Zm.667-.356-.154-.41h-.194l-.13.765h.197l.064-.44h.002l.174.44h.079l.182-.44h.002l.055.44h.198l-.115-.764h-.196l-.163.409Z"/></g><defs><clipPath id="a"><path fill="#fff" d="M0 0h36v49H0z"/></clipPath></defs></svg>